<?xml version="1.0" encoding="utf-8"?>
<!-- Generator: Adobe Illustrator 22.0.1, SVG Export Plug-In . SVG Version: 6.00 Build 0)  -->
<svg version="1.1" id="Layer_1" xmlns="http://www.w3.org/2000/svg" xmlns:xlink="http://www.w3.org/1999/xlink" x="0px" y="0px"
	 viewBox="0 0 66 36" style="enable-background:new 0 0 66 36;" xml:space="preserve">
<style type="text/css">
	.st0{filter:url(#Adobe_OpacityMaskFilter);}
	.st1{fill:#FFFFFF;}
	.st2{mask:url(#mask-2_1_);fill:#F7D488;}
	.st3{enable-background:new    ;}
	.st4{fill:#AB8539;}
</style>
<title>Timerbtn/1min</title>
<desc>Created with Sketch.</desc>
<g id="Page-2">
	<g id="Student-page-timer" transform="translate(-825.000000, -412.000000)">
		<g id="Timerbtn_x2F_1min" transform="translate(825.000000, 411.000000)">
			<g id="Group-3" transform="translate(0.000000, 0.196500)">
				<g id="Clip-2">
				</g>
				<defs>
					<filter id="Adobe_OpacityMaskFilter" filterUnits="userSpaceOnUse" x="0" y="0.8" width="65.3" height="35.2">
						<feColorMatrix  type="matrix" values="1 0 0 0 0  0 1 0 0 0  0 0 1 0 0  0 0 0 1 0"/>
					</filter>
				</defs>
				<mask maskUnits="userSpaceOnUse" x="0" y="0.8" width="65.3" height="35.2" id="mask-2_1_">
					<g class="st0">
						<polygon id="path-1_1_" class="st1" points="0,0.8 65.3,0.8 65.3,36 0,36 						"/>
					</g>
				</mask>
				<path id="Fill-1" class="st2" d="M53.3,36H12C5.4,36,0,30.6,0,24V12.8c0-6.6,5.4-12,12-12h41.3c6.6,0,12,5.4,12,12V24
					C65.3,30.6,59.9,36,53.3,36"/>
			</g>
			<g class="st3">
				<path class="st4" d="M18.1,12.2L18.1,12.2c0.3,0,0.5,0.2,0.5,0.5v9.2c0,0.6-0.5,1-1.1,1c-0.6,0-1.1-0.5-1.1-1v-7l-0.7,0.3
					c-0.4,0.2-0.9,0-1.2-0.4c-0.2-0.4-0.1-1,0.4-1.2l2.7-1.3C17.8,12.2,17.9,12.2,18.1,12.2z"/>
				<path class="st4" d="M35.4,23c-0.6,0-1.1-0.4-1.1-1v-3.1c0-1-0.6-1.5-1.2-1.5c-0.7,0-1.3,0.4-1.3,1.5v3c0,0.6-0.5,1-1.1,1
					c-0.6,0-1.1-0.4-1.1-1v-3.1c0-0.9-0.6-1.4-1.2-1.4c-0.7,0-1.3,0.4-1.3,1.5v3c0,0.6-0.5,1-1.1,1c-0.6,0-1.1-0.4-1.1-1v-5.7
					c0-0.5,0.5-1,1.1-1c0.6,0,1.1,0.4,1.1,1v0.2c0.4-0.8,1.2-1.2,2-1.2c1.2,0,2,0.4,2.5,1.4c0.5-1.2,1.6-1.4,2.2-1.4
					c1.8,0,2.9,1.1,2.9,3.4V22C36.5,22.5,36,23,35.4,23z"/>
				<path class="st4" d="M39.4,11.3c0.8,0,1.4,0.6,1.4,1.3s-0.6,1.3-1.4,1.3c-0.8,0-1.4-0.6-1.4-1.3S38.7,11.3,39.4,11.3z M39.4,23
					c-0.6,0-1.1-0.4-1.1-1v-5.7c0-0.5,0.5-1,1.1-1c0.6,0,1.1,0.4,1.1,1V22C40.6,22.5,40,23,39.4,23z"/>
				<path class="st4" d="M46.8,15.2c1.7,0,2.8,1,2.8,3.2V22c0,0.6-0.5,1-1.1,1c-0.6,0-1.1-0.4-1.1-1v-3.1c0-1-0.5-1.5-1.3-1.5
					c-0.8,0-1.4,0.4-1.4,1.5v3c0,0.6-0.5,1-1.1,1c-0.6,0-1.1-0.4-1.1-1v-5.7c0-0.5,0.5-1,1.1-1c0.6,0,1.1,0.4,1.1,1v0.2
					C45.1,15.7,46,15.2,46.8,15.2z"/>
			</g>
		</g>
	</g>
</g>
</svg>
