<?xml version="1.0" encoding="UTF-8"?>
<svg width="48px" height="48px" viewBox="0 0 48 48" version="1.1" xmlns="http://www.w3.org/2000/svg" xmlns:xlink="http://www.w3.org/1999/xlink">
    <!-- Generator: Sketch 52.4 (67378) - http://www.bohemiancoding.com/sketch -->
    <title>Timerbtn/play</title>
    <desc>Created with Sketch.</desc>
    <defs>
        <polygon id="path-1" points="0.0002 0.0002 48 0.0002 48 48 0.0002 48"></polygon>
    </defs>
    <g id="Page-2" stroke="none" stroke-width="1" fill="none" fill-rule="evenodd">
        <g id="Student-page-timer" transform="translate(-853.000000, -655.000000)">
            <g id="Timerbtn/play" transform="translate(853.000000, 655.000000)">
                <g id="Group-3">
                    <mask id="mask-2" fill="white">
                        <use xlink:href="#path-1"></use>
                    </mask>
                    <g id="Clip-2"></g>
                    <path d="M24.0002,0.0002 C37.2552,0.0002 48.0002,10.7452 48.0002,24.0002 C48.0002,37.2552 37.2552,48.0002 24.0002,48.0002 C10.7452,48.0002 0.0002,37.2552 0.0002,24.0002 C0.0002,10.7452 10.7452,0.0002 24.0002,0.0002" id="Fill-1" fill="#F7D488" mask="url(#mask-2)"></path>
                </g>
                <path d="M33.0954,21.7023 C35.3704,22.9713 35.3664,25.0303 33.0954,26.2963 L22.1184,33.0873 C19.8434,34.3553 18.0004,33.2733 18.0004,30.6663 L18.0004,17.3323 C18.0004,14.7263 19.8474,13.6453 22.1184,14.9113 L33.0954,21.7023 Z" id="Fill-4" fill="#A58646"></path>
            </g>
        </g>
    </g>
</svg>