<?xml version="1.0" encoding="UTF-8"?>
<svg width="50px" height="50px" viewBox="0 0 50 50" version="1.1" xmlns="http://www.w3.org/2000/svg" xmlns:xlink="http://www.w3.org/1999/xlink">
    <!-- Generator: Sketch 52.4 (67378) - http://www.bohemiancoding.com/sketch -->
    <title>Icon/add group Copy 3</title>
    <desc>Created with Sketch.</desc>
    <g id="Page-2" stroke="none" stroke-width="1" fill="none" fill-rule="evenodd">
        <g id="icon-/-group-selected" fill="#2A7FE1">
            <path d="M19.6847,28.5734 C14.8277,28.5734 10.4347,31.4524 8.4947,35.9074 C8.1637,36.6664 8.5107,37.5504 9.2697,37.8814 C10.0327,38.2134 10.9137,37.8634 11.2447,37.1044 C12.7087,33.7444 16.0217,31.5734 19.6847,31.5734 C24.2947,31.5734 28.1987,34.9964 28.8197,39.6024 L28.8197,42.8144 C28.8197,43.6424 29.4907,44.3144 30.3197,44.3144 C31.1477,44.3144 31.8197,43.6424 31.8197,42.8144 L31.8197,39.5074 L31.8047,39.3004 C31.0567,33.1844 25.8457,28.5734 19.6847,28.5734 M19.6847,15.0114 C22.3567,15.0114 24.5297,17.1844 24.5297,19.8564 C24.5297,22.5284 22.3567,24.7014 19.6847,24.7014 C17.0137,24.7014 14.8397,22.5284 14.8397,19.8564 C14.8397,17.1844 17.0137,15.0114 19.6847,15.0114 M19.6847,27.7014 C24.0177,27.7014 27.5297,24.1894 27.5297,19.8564 C27.5297,15.5234 24.0177,12.0114 19.6847,12.0114 C15.3517,12.0114 11.8397,15.5234 11.8397,19.8564 C11.8397,24.1894 15.3517,27.7014 19.6847,27.7014 M42.4957,34.3854 C41.0557,31.3994 37.9887,29.4704 34.6807,29.4704 C33.3787,29.4704 32.1147,29.7664 30.9217,30.3514 C30.1787,30.7164 29.8707,31.6144 30.2357,32.3584 C30.5997,33.1024 31.4977,33.4114 32.2427,33.0454 C33.0197,32.6644 33.8407,32.4704 34.6807,32.4704 C36.8437,32.4704 38.8507,33.7334 39.7927,35.6874 C40.0517,36.2234 40.5877,36.5364 41.1447,36.5364 C41.3637,36.5364 41.5857,36.4884 41.7957,36.3874 C42.5417,36.0274 42.8547,35.1314 42.4957,34.3854 M24.9997,47.0004 C12.8697,47.0004 2.9997,37.1314 2.9997,25.0004 C2.9997,12.8694 12.8697,3.0004 24.9997,3.0004 C37.1307,3.0004 46.9997,12.8694 46.9997,25.0004 C46.9997,37.1314 37.1307,47.0004 24.9997,47.0004 M24.9997,0.0004 C11.1927,0.0004 -0.0003,11.1924 -0.0003,25.0004 C-0.0003,38.8064 11.1927,50.0004 24.9997,50.0004 C38.8077,50.0004 49.9997,38.8064 49.9997,25.0004 C49.9997,11.1924 38.8077,0.0004 24.9997,0.0004 M34.6807,22.2824 C35.4867,22.2824 36.1417,22.9374 36.1417,23.7434 C36.1417,24.5494 35.4867,25.2044 34.6807,25.2044 C33.8757,25.2044 33.2207,24.5494 33.2207,23.7434 C33.2207,22.9374 33.8757,22.2824 34.6807,22.2824 M34.6807,28.2044 C37.1447,28.2044 39.1417,26.2074 39.1417,23.7434 C39.1417,21.2794 37.1447,19.2824 34.6807,19.2824 C32.2177,19.2824 30.2207,21.2794 30.2207,23.7434 C30.2207,26.2074 32.2177,28.2044 34.6807,28.2044" id="Fill-1"></path>
        </g>
    </g>
</svg>