<?xml version="1.0" encoding="utf-8"?>
<!-- Generator: Adobe Illustrator 22.0.1, SVG Export Plug-In . SVG Version: 6.00 Build 0)  -->
<svg version="1.1" id="Layer_1" xmlns="http://www.w3.org/2000/svg" xmlns:xlink="http://www.w3.org/1999/xlink" x="0px" y="0px"
	 viewBox="0 0 50 50" style="enable-background:new 0 0 50 50;" xml:space="preserve">
<style type="text/css">
	.st0{enable-background:new    ;}
	.st1{fill:#4A4A4A;}
	.st2{filter:url(#Adobe_OpacityMaskFilter);}
	.st3{fill:#FFFFFF;}
	.st4{mask:url(#mask-2_1_);fill:#4A4A4A;}
</style>
<title>cvc</title>
<desc>Created with Sketch.</desc>
<g id="Open-Lesson-2.0">
	<g id="book-2" transform="translate(-47.000000, -453.000000)">
		<g id="cvc" transform="translate(46.500000, 453.000000)">
			<g class="st0">
				<path class="st1" d="M15.2,19.5c1.8,0,3.3,0.6,4.4,1.7c0.5,0.4,0.3,1.3-0.2,1.8c-0.5,0.4-1.2,0.4-1.7,0c-0.6-0.6-1.5-1-2.5-1
					c-2.1,0-3.6,1.7-3.6,3.8c0,2.1,1.5,3.8,3.6,3.8c1,0,1.9-0.4,2.5-1c0.5-0.4,1.2-0.4,1.7,0c0.5,0.5,0.6,1.4,0.2,1.8
					c-1.1,1.1-2.6,1.7-4.4,1.7c-3.5,0-6.2-2.8-6.2-6.4C8.9,22.3,11.6,19.5,15.2,19.5z"/>
				<path class="st1" d="M25.3,32.1h-0.3c-0.7,0-1.1-0.4-1.3-1l-3.1-10c-0.2-0.6,0.3-1.4,0.9-1.5c0.7-0.2,1.4,0.2,1.6,0.8l2,7.7
					l2-7.7c0.2-0.6,0.9-1,1.6-0.8c0.6,0.2,1.1,0.9,0.9,1.5l-3.1,10C26.5,31.7,26,32.1,25.3,32.1z"/>
				<path class="st1" d="M36.8,19.5c1.8,0,3.3,0.6,4.4,1.7c0.5,0.4,0.3,1.3-0.2,1.8c-0.5,0.4-1.2,0.4-1.7,0c-0.6-0.6-1.5-1-2.5-1
					c-2.1,0-3.6,1.7-3.6,3.8c0,2.1,1.5,3.8,3.6,3.8c1,0,1.9-0.4,2.5-1c0.5-0.4,1.2-0.4,1.7,0c0.5,0.5,0.6,1.4,0.2,1.8
					c-1.1,1.1-2.6,1.7-4.4,1.7c-3.5,0-6.2-2.8-6.2-6.4C30.6,22.3,33.3,19.5,36.8,19.5z"/>
			</g>
			<g id="Group-3" transform="translate(0.500000, 0.000000)">
				<g id="Clip-2">
				</g>
				<defs>
					<filter id="Adobe_OpacityMaskFilter" filterUnits="userSpaceOnUse" x="0" y="0" width="50" height="50">
						<feColorMatrix  type="matrix" values="1 0 0 0 0  0 1 0 0 0  0 0 1 0 0  0 0 0 1 0"/>
					</filter>
				</defs>
				<mask maskUnits="userSpaceOnUse" x="0" y="0" width="50" height="50" id="mask-2_1_">
					<g class="st2">
						<polygon id="path-1_1_" class="st3" points="0,0 50,0 50,50 0,50 						"/>
					</g>
				</mask>
				<path id="Fill-1" class="st4" d="M25,47C12.9,47,3,37.1,3,25S12.9,3,25,3c12.1,0,22,9.9,22,22S37.1,47,25,47 M25,0
					C11.2,0,0,11.2,0,25c0,13.8,11.2,25,25,25s25-11.2,25-25C50,11.2,38.8,0,25,0"/>
			</g>
		</g>
	</g>
</g>
</svg>
