<svg id="Layer_1" data-name="Layer 1" xmlns="http://www.w3.org/2000/svg" viewBox="0 0 50 50"><defs><style>.cls-1{isolation:isolate;}.cls-2{fill:#2a7fe1;}</style></defs><title>cvc_selected</title><g id="Open-Lesson-2.0"><g id="book-2"><g id="cvc"><g class="cls-1"><path class="cls-2" d="M14.7,19.5a6,6,0,0,1,4.4,1.7c.5.4.3,1.3-.2,1.8a1.35,1.35,0,0,1-1.7,0,3.55,3.55,0,0,0-2.5-1,3.63,3.63,0,0,0-3.6,3.8,3.63,3.63,0,0,0,3.6,3.8,3.55,3.55,0,0,0,2.5-1,1.35,1.35,0,0,1,1.7,0,1.4,1.4,0,0,1,.2,1.8,6,6,0,0,1-4.4,1.7,6.21,6.21,0,0,1-6.2-6.4A6,6,0,0,1,14.7,19.5Z"/><path class="cls-2" d="M24.8,32.1h-.3a1.3,1.3,0,0,1-1.3-1l-3.1-10a1.26,1.26,0,0,1,.9-1.5,1.31,1.31,0,0,1,1.6.8l2,7.7,2-7.7a1.3,1.3,0,0,1,2.5.7L26,31.1C26,31.7,25.5,32.1,24.8,32.1Z"/><path class="cls-2" d="M36.3,19.5a6,6,0,0,1,4.4,1.7c.5.4.3,1.3-.2,1.8a1.35,1.35,0,0,1-1.7,0,3.55,3.55,0,0,0-2.5-1,3.63,3.63,0,0,0-3.6,3.8,3.63,3.63,0,0,0,3.6,3.8,3.55,3.55,0,0,0,2.5-1,1.35,1.35,0,0,1,1.7,0,1.4,1.4,0,0,1,.2,1.8,6,6,0,0,1-4.4,1.7,6.3,6.3,0,0,1,0-12.6Z"/></g><g id="Group-3"><path id="Fill-1" class="cls-2" d="M25,47A22,22,0,1,1,47,25,22.06,22.06,0,0,1,25,47M25,0A25,25,0,1,0,50,25,25,25,0,0,0,25,0"/></g></g></g></g></svg>