<?xml version="1.0" encoding="UTF-8"?>
<svg width="50px" height="50px" viewBox="0 0 50 50" version="1.1" xmlns="http://www.w3.org/2000/svg" xmlns:xlink="http://www.w3.org/1999/xlink">
    <!-- Generator: Sketch 52.6 (67491) - http://www.bohemiancoding.com/sketch -->
    <title>ic_loupe</title>
    <desc>Created with Sketch.</desc>
    <defs>
        <path d="M29,4.83333333 C15.66,4.83333333 4.83333333,15.66 4.83333333,29 C4.83333333,42.34 15.66,53.1666667 29,53.1666667 C42.34,53.1666667 53.1666667,42.34 53.1666667,29 C53.1666667,15.66 42.34,4.83333333 29,4.83333333 L29,4.83333333 Z M29,12.0833333 C33.0116667,12.0833333 36.25,15.3216667 36.25,19.3333333 C36.25,23.345 33.0116667,26.5833333 29,26.5833333 C24.9883333,26.5833333 21.75,23.345 21.75,19.3333333 C21.75,15.3216667 24.9883333,12.0833333 29,12.0833333 L29,12.0833333 Z M29,46.4 C22.9583333,46.4 17.6175,43.3066667 14.5,38.6183333 C14.5725,33.8091667 24.1666667,31.175 29,31.175 C33.8091667,31.175 43.4275,33.8091667 43.5,38.6183333 C40.3825,43.3066667 35.0416667,46.4 29,46.4 L29,46.4 Z" id="path-1"></path>
        <rect id="path-3" x="0" y="0" width="121" height="121"></rect>
    </defs>
    <g id="Page-2" stroke="none" stroke-width="1" fill="none" fill-rule="evenodd">
        <g id="Student-page-create-new" transform="translate(-47.000000, -207.000000)">
            <g id="ic_account_circle" transform="translate(43.000000, 203.000000)">
                <mask id="mask-2" fill="white">
                    <use xlink:href="#path-1"></use>
                </mask>
                <g id="Mask"></g>
                <g id="Colors/Black-Copy-2" mask="url(#mask-2)">
                    <g transform="translate(-31.416667, -31.416667)">
                        <mask id="mask-4" fill="white">
                            <use xlink:href="#path-3"></use>
                        </mask>
                        <use id="Black" stroke="none" fill="#4A90E2" fill-rule="evenodd" xlink:href="#path-3"></use>
                    </g>
                </g>
            </g>
        </g>
    </g>
</svg>