<?xml version="1.0" encoding="UTF-8"?>
<svg width="55px" height="56px" viewBox="0 0 55 56" version="1.1" xmlns="http://www.w3.org/2000/svg" xmlns:xlink="http://www.w3.org/1999/xlink">
    <!-- Generator: Sketch 52.6 (67491) - http://www.bohemiancoding.com/sketch -->
    <title>Stars/yellow</title>
    <desc>Created with Sketch.</desc>
    <g id="Page-2" stroke="none" stroke-width="1" fill="none" fill-rule="evenodd">
        <g id="Student-page-create-new" transform="translate(-492.000000, -120.000000)">
            <g id="Stars/yellow" transform="translate(492.000000, 120.000000)">
                <g id="Group-5">
                    <polygon id="Fill-1" fill="#FEFEFE" points="31.7386385 -0.00016969697 21.6203308 15.1088 2.97448462 12.0389818 11.8870231 28.7473455 0.239715385 44.1354667 3.21479231 45.5821333 21.8141 42.2441939 32.1261769 54.2723152 35.1004077 55.7181333 37.6837154 36.9479515 54.5678692 28.4410424 37.5644077 20.1768 34.7120231 1.44649697"></polygon>
                    <polygon id="Fill-2" fill="#FBF4B1" points="31.7386385 -0.00016969697 18.6461 13.6629818 0.000253846154 10.5940121 8.91194615 27.3015273 0.239715385 44.1354667 18.8407154 40.7983758 32.1261769 54.2723152 34.7094846 35.5021333 51.5936385 26.9943758 34.5901769 18.7309818"></polygon>
                    <path d="M32.5799692,31.118097 C32.5131231,30.9704606 32.4471231,30.8219758 32.3802769,30.6734909 C31.8387385,30.9237939 31.2980462,31.1749455 30.5830462,31.506703 C31.6644308,32.1303394 32.0782,31.5024606 32.5799692,31.118097 M15.0112769,26.4633091 C13.7462769,26.1680364 12.9246615,26.5193091 12.6598154,27.6316727 C13.5203538,27.2040364 14.1778154,26.8773697 15.0112769,26.4633091 M7.75889231,37.1533697 C7.78343077,37.0473091 7.80881538,36.9412485 7.8342,36.8351879 C7.45596923,36.6739758 7.03712308,36.3252485 6.70966154,36.3965212 C6.24173846,36.4966424 5.8212,36.8979758 6.29673846,37.5394303 C6.77396923,37.4138545 7.26643077,37.2840364 7.75889231,37.1533697 M34.3873538,21.1950667 C34.4753538,21.3240364 34.5642,21.4521576 34.6522,21.5819758 C35.1895077,21.5124 35.7268154,21.4428242 36.2641231,21.3732485 C35.8528923,21.0516727 35.4585846,20.7004 35.0101231,20.446703 C34.9593538,20.4178545 34.6022769,20.9320364 34.3873538,21.1950667 M32.4056615,37.694703 C32.3015846,37.7074303 32.1966615,37.7193091 32.0925846,37.7320364 C31.9445077,38.0205212 31.8573538,38.3692485 31.6390462,38.5864606 C30.8064308,39.4128848 30.9325077,39.4884 32.0240462,40.2970061 C32.1594308,39.3755515 32.2821231,38.5355515 32.4056615,37.694703 M33.3762,26.3487636 C34.7562769,26.2995515 36.0060462,26.2545818 37.3218154,26.2070667 C37.4918923,25.7064606 37.0738923,25.6411273 36.5433538,25.6810061 C36.1135077,25.7132485 35.6413538,25.6385818 35.2639692,25.7955515 C34.6911231,26.0331273 33.9016615,25.1999152 33.3762,26.3487636 M9.09835385,21.9824606 C10.1120462,21.7406424 11.3398154,22.2446424 11.6249692,20.8030667 C10.5038154,20.4254909 9.56458462,20.8081576 9.09835385,21.9824606 M14.2776615,20.086097 C14.5941231,20.0564 15.1297385,20.0063394 15.8582769,19.9384606 C14.6812769,18.9007636 12.9119692,19.5235515 12.3788923,21.202703 C13.0955846,20.7818545 13.5829692,20.4950667 14.2776615,20.086097 M38.0038154,31.6339758 C37.0298923,31.7273091 36.2810462,31.786703 35.5355846,31.8774909 C35.3130462,31.9046424 35.0380462,31.9665818 34.9077385,32.1176121 C34.8307385,32.206703 34.9272,32.5732485 35.0575077,32.6844 C35.2165846,32.8201576 35.5025846,32.8922788 35.7149692,32.8617333 C36.1575077,32.7964 36.6000462,32.6818545 37.0163538,32.5197939 C37.5071231,32.3288848 38.3600462,32.3484 38.0038154,31.6339758 M40.1885846,25.570703 C40.7326615,26.1977333 42.1872,26.2477939 42.6915077,25.6284 C42.8717385,25.4069455 43.0325077,24.986097 42.9377385,24.7722788 C42.8336615,24.5321576 42.4461231,24.3836727 42.1525077,24.2716727 C41.9003538,24.1749455 41.6075846,24.1859758 41.2445846,24.1367636 C41.2555846,24.5991879 41.2640462,24.9725212 41.2733538,25.4069455 C40.8917385,25.4646424 40.5473538,25.5164 40.1885846,25.570703 M37.6332,23.9602788 C37.6856615,23.9848848 37.9445846,24.1036727 38.2263538,24.2326424 C38.1375077,24.3870667 37.9437385,24.5694909 37.9648923,24.7213697 C37.9970462,24.9470667 38.1815077,25.1498545 38.3016615,25.3628242 C38.4531231,25.1948242 38.7695846,24.9453697 38.7323538,24.8698545 C38.2424308,23.862703 39.0166615,23.5852485 39.8103538,23.1932485 C39.0742,22.7859758 38.9802769,21.6379758 38.1307385,21.9408848 C37.9445846,22.6960364 37.8015846,23.2764 37.6332,23.9602788 M6.38389231,31.5610061 C6.91273846,30.8957939 7.3612,30.3298545 7.92135385,29.6239152 C7.9222,29.6239152 8.17689231,29.6256121 8.44427692,29.6264606 C8.61858462,28.566703 8.78696923,27.5442788 8.95450769,26.5210061 C8.86566154,26.5430667 8.77512308,26.5651273 8.68627692,26.5871879 C8.50350769,26.2401576 8.28266154,25.9084 8.14812308,25.5444 C7.91289231,24.9105818 7.74027692,24.2530061 7.51858462,23.6132485 C7.45681538,23.4350667 7.34766154,23.2450061 7.20550769,23.1279152 C6.50912308,22.5534909 6.5032,22.5619758 6.69189231,21.7686424 C5.30250769,20.6825818 4.0942,19.7687636 4.55450769,17.3709455 C3.70243077,17.1087636 3.03566154,16.6599152 3.14989231,15.5942182 C3.16258462,15.4745818 2.96712308,15.2157939 2.87743077,15.2200364 C1.27904615,15.2964 1.94243077,13.4636727 0.999815385,12.9494909 C0.867815385,12.8773697 0.946507692,12.0679152 1.16396923,11.7768848 C1.72073846,11.0285212 2.4112,10.3802788 3.1042,9.63021818 C3.4122,10.0434303 3.6322,10.3395515 3.85304615,10.6356727 C4.28796923,11.2219758 4.6772,11.3526424 5.47512308,11.0251273 C6.11904615,10.7604 7.02104615,11.1167636 7.80712308,11.2168848 C8.21750769,11.2694909 8.62366154,11.3636727 9.03150769,11.4374909 C9.2202,11.4722788 9.43427692,11.4578545 9.59166154,11.546097 C10.3202,11.9482788 11.0335077,12.3801576 11.7535846,12.8001576 C12.4008923,13.1785818 12.6978923,12.8425818 12.8654308,12.2248848 C13.6819692,12.550703 14.7066615,12.6694909 15.2549692,13.2447636 C16.1942,14.2290061 17.0843538,13.9210061 18.0955077,13.6774909 C18.3121231,13.6248848 18.5862769,13.810703 18.7411231,13.8582182 C19.9130462,13.2812485 19.6278923,11.1532485 21.5977385,11.5087636 C21.6205846,10.8477939 21.4555846,9.99846061 22.6503538,10.3531273 C22.5902769,10.030703 22.5403538,9.76003636 22.4709692,9.38330909 C22.9659692,9.12112727 23.4872,8.84367273 24.0262,8.55773333 C23.9712,8.46015758 23.8620462,8.2684 23.7808154,8.12415758 C24.7302,7.24427879 25.6432,6.39749091 26.5900462,5.51846061 C26.5392769,5.47264242 26.3920462,5.34112727 26.2050462,5.17567273 C26.3201231,5.08233939 26.3793538,5.01361212 26.4546615,4.97882424 C26.6755077,4.87446061 27.0892769,4.80149091 27.1011231,4.68355152 C27.2043538,3.64161212 27.9455846,3.88003636 28.6766615,3.93688485 C28.7494308,3.39130909 28.7164308,2.84149091 28.9102,2.38924848 C29.1192,1.90391515 29.4593538,1.30912727 29.8917385,1.13179394 C30.4053538,0.922218182 31.1626615,0.940036364 31.3978923,1.75967273 C31.6170462,2.52585455 31.6881231,3.36161212 32.0392769,4.0573697 C32.5351231,5.04330909 32.6485077,6.02076364 32.5148154,7.07712727 C32.5029692,7.16876364 32.6891231,7.28670303 32.7847385,7.39021818 C32.9032,7.51918788 33.1485846,7.68294545 33.1240462,7.76779394 C32.6307385,9.44694545 33.9228154,10.8019758 33.9363538,12.3513091 C33.9431231,13.226097 34.1783538,13.9617333 34.4525077,14.7482788 C34.8349692,15.8470667 34.8865846,17.1274303 35.4932769,18.0590667 C35.8825077,18.6564 36.3191231,19.8239152 37.5426615,19.5210061 C37.6222,19.5014909 37.7322,19.554097 37.8117385,19.6007636 C38.9548923,20.2795515 40.0853538,20.982097 41.2412,21.6388242 C41.9553538,22.0435515 42.7262,22.3498545 43.4361231,22.7613697 C43.8625846,23.0091273 44.2213538,23.3739758 44.6816615,23.7430667 C45.8341231,23.3451273 46.6193538,24.4006424 47.5898923,24.8927636 C48.8515077,25.5333697 50.0809692,26.2418545 51.4855846,27.0097333 C51.4881231,27.0385818 51.5185846,27.3253697 51.5685077,27.8098545 C50.3178923,28.4343394 49.0165077,29.0961576 47.7007385,29.7291273 C47.4426615,29.8538545 47.1118154,29.9684 46.8495077,29.914097 C45.9424308,29.7265818 45.4347385,30.4605212 44.7332769,30.7142182 C43.9700462,30.9899758 43.1712769,31.1036727 42.5696615,31.7357939 C42.4935077,31.8155515 42.1465846,31.6356727 41.8707385,31.5618545 C41.7378923,31.8444 41.6016615,32.1354303 41.5322769,32.2830667 C40.0286615,32.9830667 38.5081231,33.3555515 36.8056615,34.3915515 C35.9231231,34.4102182 34.7630462,35.5217333 34.5117385,36.9064606 C34.3340462,37.8839152 33.9854308,38.8291273 33.7612,39.7997939 C33.6935077,40.0950667 33.7857385,40.4268242 33.8043538,40.7416121 C33.8119692,40.8671879 33.8737385,41.0334909 33.8170462,41.1124 C32.9598923,42.3121576 33.3990462,43.6493697 33.4438923,44.9254909 C33.4785846,45.8970061 33.5632,45.8944606 32.4936615,46.8142182 C32.6248154,47.0059758 32.9158923,47.2936121 32.8651231,47.3810061 C32.1467385,48.6189455 32.7728923,49.9451273 32.5833538,51.2153091 C32.4242769,52.2767636 31.6881231,53.0717939 30.6524308,52.9182182 C30.3376615,52.8724 30.0762,52.3607636 29.8189692,52.0383394 C29.3002769,51.386703 28.7968154,50.7214909 28.2984308,50.0545818 C28.2045077,49.9290061 28.1875846,49.6574909 28.0919692,49.6354303 C26.9657385,49.3681576 26.6602769,48.1522788 25.7582769,47.6270667 C25.6085077,47.5396727 25.5915846,47.2410061 25.4790462,47.0619758 C25.3385846,46.8345818 25.1879692,46.6029455 24.9958923,46.4222182 C24.7767385,46.2151879 24.3138923,46.0828242 24.2918923,45.8817333 C24.1370462,44.4554303 22.4650462,44.3451273 22.0335077,43.1818545 C21.9742769,43.0206424 21.7187385,42.9010061 21.7145077,42.7567636 C21.6772769,41.5230667 20.7025077,41.4984606 19.8741231,41.278703 C19.8123538,41.2625818 19.7353538,41.2795515 19.6828923,41.250703 C19.0237385,40.8934909 18.3671231,40.5303394 17.7782,40.4624606 C16.7839692,40.7424606 15.7440462,41.3389455 14.8082,41.2057333 C14.0178923,41.0920364 13.5508154,41.5850061 12.8857385,41.5816121 C12.1859692,41.5773697 11.4557385,41.9804 10.7923538,41.8726424 C9.56966154,41.6724 8.44343077,42.7584606 7.15050769,41.9812485 C6.81796923,41.7810061 6.02173846,42.3316727 5.44973846,42.5650061 C5.15273846,42.6863394 4.89381538,42.9493697 4.59173846,43.0053697 C3.70412308,43.1691273 2.80550769,43.2972485 1.9052,43.3608848 C1.61243077,43.382097 1.03535385,43.1284 1.04381538,43.0571273 C1.10050769,42.6133697 0.152815385,42.2994303 0.9042,41.7436727 C1.07935385,41.6138545 0.919430769,41.0284 0.912661538,40.5905818 C1.00489231,40.3810061 1.07089231,39.9924 1.29850769,39.7802788 C1.53712308,39.5588242 1.93227692,39.5062182 2.39343077,39.3288848 C2.2572,39.1218545 2.10235385,38.8859758 1.94243077,38.6416121 C2.23689231,38.2504606 2.5322,37.8567636 2.84950769,37.4350667 C3.85473846,37.4588242 4.09673846,37.2195515 4.09758462,36.1428242 C4.09927692,34.758097 4.6882,33.9350667 6.01412308,33.4641576 C6.66143077,33.2342182 6.80950769,32.3153091 6.38389231,31.5610061" id="Fill-3" fill="#F7EE6E"></path>
                </g>
            </g>
        </g>
    </g>
</svg>