<?xml version="1.0" encoding="UTF-8"?>
<svg width="78px" height="79px" viewBox="0 0 78 79" version="1.1" xmlns="http://www.w3.org/2000/svg" xmlns:xlink="http://www.w3.org/1999/xlink">
    <!-- Generator: Sketch 53.2 (72643) - https://sketchapp.com -->
    <title>star btn grey</title>
    <desc>Created with Sketch.</desc>
    <defs>
        <polygon id="path-1" points="7.5e-05 0.15 77.85 0.15 77.85 77.99985 7.5e-05 77.99985"></polygon>
    </defs>
    <g id="Open-Lesson-2.0" stroke="none" stroke-width="1" fill="none" fill-rule="evenodd">
        <g id="book-2" transform="translate(-579.000000, -913.000000)">
            <g id="star-btn-grey" transform="translate(579.000000, 913.000000)">
                <g id="Group-3" transform="translate(0.000000, 0.600000)">
                    <mask id="mask-2" fill="white">
                        <use xlink:href="#path-1"></use>
                    </mask>
                    <g id="Clip-2"></g>
                    <path d="M38.925075,0.14985 C60.423075,0.14985 77.850075,17.57685 77.850075,39.07485 C77.850075,60.57285 60.423075,77.99985 38.925075,77.99985 C17.426325,77.99985 7.5e-05,60.57285 7.5e-05,39.07485 C7.5e-05,17.57685 17.426325,0.14985 38.925075,0.14985" id="Fill-1" fill="#A6A8AB" mask="url(#mask-2)"></path>
                </g>
                <path d="M61.760175,30.53235 L60.376425,30.51435 L47.420175,30.40185 L43.027425,18.2526 L42.536175,16.89885 C40.379925,10.90185 36.941175,10.9491 34.931925,16.98585 L34.053675,19.6101 L30.371925,30.60135 L18.791175,30.97035 L18.785925,30.96135 L17.391675,31.02285 L16.009425,31.0566 C9.638175,31.2696 8.632425,34.54785 13.751925,38.32935 L15.965925,39.97485 L25.292925,46.8651 L22.078425,58.0011 L22.068675,58.00635 L21.299925,60.65685 C19.526925,66.77085 22.309425,68.7486 27.494175,65.07135 L28.634925,64.2651 L29.761425,63.4566 L39.200175,56.7126 L48.779925,63.2316 L51.068925,64.77885 C56.353425,68.3631 59.104425,66.31485 57.173925,60.2301 L56.742675,58.85535 L52.862925,46.5426 L63.109425,38.5836 L64.206675,37.74735 C69.232425,33.8301 68.144175,30.5781 61.760175,30.53235" id="Fill-4" fill="#FFCF01"></path>
            </g>
        </g>
    </g>
</svg>