<?xml version="1.0" encoding="UTF-8"?>
<svg width="39px" height="39px" viewBox="0 0 39 39" version="1.1" xmlns="http://www.w3.org/2000/svg" xmlns:xlink="http://www.w3.org/1999/xlink">
    <!-- Generator: Sketch 52.4 (67378) - http://www.bohemiancoding.com/sketch -->
    <title>Icon/erase Copy</title>
    <desc>Created with Sketch.</desc>
    <defs>
        <polygon id="path-1" points="0 0 39 0 39 39 0 39"></polygon>
    </defs>
    <g id="Page-2" stroke="none" stroke-width="1" fill="none" fill-rule="evenodd">
        <g id="Student-page-create-new-input-name" transform="translate(-306.000000, -1020.000000)">
            <g id="Icon/erase-Copy" transform="translate(305.000000, 1019.000000)">
                <g id="Group-3" transform="translate(1.000000, 1.000000)">
                    <mask id="mask-2" fill="white">
                        <use xlink:href="#path-1"></use>
                    </mask>
                    <g id="Clip-2"></g>
                    <path d="M14.3554792,33.4546553 C14.882235,33.4339876 15.3709653,33.2426632 15.7724434,32.838461 C16.5170349,32.0891073 17.2516042,31.3291245 18.0141768,30.598667 C18.3319399,30.2942605 18.3552268,30.0893545 18.0274415,29.7630992 C15.0835636,26.8353642 12.150887,23.8961143 9.22616916,20.9494831 C8.92019686,20.6409431 8.70825652,20.5898642 8.38813522,20.9288154 C7.64590186,21.7144853 6.85326265,22.4523241 6.11692471,23.2433086 C5.30600971,24.1143068 5.31956917,25.2282987 6.16261421,26.0827627 C8.38813522,28.3390909 10.6339954,30.5747514 12.871602,32.8192695 C13.2716063,33.2205192 13.7529673,33.4316255 14.3554792,33.4546553 M32.4880222,15.8879502 C32.4346686,15.6101165 32.2439518,15.4790239 32.0909656,15.3257872 C29.2649961,12.4913524 26.4272357,9.66872771 23.6183629,6.81775867 C23.1493823,6.34180982 22.8669917,6.39849852 22.4283724,6.84285523 C19.339762,9.97018167 16.2381816,13.0845169 13.1156724,16.177594 C12.6649676,16.624608 12.7174368,16.872621 13.1410227,17.2865666 C16.0197563,20.1009242 18.8828669,22.9321112 21.7303547,25.7786515 C22.1607204,26.2091313 22.4319097,26.2144458 22.8610963,25.7774705 C25.7698964,22.8181433 28.7022783,19.881846 31.6237536,16.9349195 C31.865171,16.6913353 32.0847754,16.4253118 32.3073275,16.163717 C32.3842628,16.0736647 32.4387954,15.9647161 32.4880222,15.8879502 M23.0597719,33.3474783 C23.3554272,33.571871 23.6339858,33.4853617 23.8907313,33.4865427 C25.634007,33.4959908 27.3772827,33.4782756 29.1202635,33.4971718 C30.6182897,33.5128203 31.6726856,34.2137524 32.0594251,35.4009672 C32.6339338,37.1651077 31.4153505,38.9649738 29.56242,38.9744219 C24.2347291,39.0015853 18.9064486,39.0193005 13.5793472,38.9626118 C11.9000368,38.9448966 10.4482897,38.1698558 9.25092992,36.9914985 C6.7471451,34.5281975 4.1637721,32.1366431 1.85129365,29.4908754 C-0.744164949,26.5221001 -0.591178803,22.2607045 2.1882169,19.453433 C8.23927587,13.3419781 14.3268864,7.26713469 20.4109598,1.18845298 C21.8653598,-0.264490131 23.9750358,-0.441937562 25.4586183,0.971441561 C29.7445885,5.0550945 33.9394745,9.23736216 38.0014188,13.5445221 C39.464662,15.0960799 39.2689341,17.0226099 37.7470315,18.5573382 C34.2000521,22.1340407 30.6418714,25.6998188 27.087228,29.2688446 C25.9084388,30.4525164 24.725228,31.6311689 23.5464388,32.8145455 C23.3804828,32.9813638 23.2283809,33.1623542 23.0597719,33.3474783" id="Fill-1" fill="#2A7FE1" mask="url(#mask-2)"></path>
                </g>
            </g>
        </g>
    </g>
</svg>