<?xml version="1.0" encoding="UTF-8"?>
<svg width="268px" height="184px" viewBox="0 0 268 184" version="1.1" xmlns="http://www.w3.org/2000/svg" xmlns:xlink="http://www.w3.org/1999/xlink">
    <!-- Generator: Sketch 55.1 (78136) - https://sketchapp.com -->
    <title>createnew</title>
    <desc>Created with Sketch.</desc>
    <g id="Page-2" stroke="none" stroke-width="1" fill="none" fill-rule="evenodd">
        <g id="Student-page" transform="translate(-367.000000, -203.000000)">
            <g id="Group" transform="translate(367.000000, 203.000000)">
                <g id="createnew">
                    <rect id="Rectangle-2-Copy-43" fill-opacity="0.76" fill="#E7E7E7" x="0" y="0" width="268" height="184" rx="10"></rect>
                    <g id="card/create-new" transform="translate(112.000000, 70.000000)" fill="#4A4A4A">
                        <g transform="translate(22.500000, 22.500000) rotate(45.000000) translate(-22.500000, -22.500000) translate(7.000000, 7.000000)">
                            <path d="M25.9116629,31 C24.6090486,31 23.3073594,30.5031821 22.313746,29.5095464 L1.4904202,8.68575458 C-0.496806733,6.69848316 -0.496806733,3.47703109 1.4904202,1.48975968 C3.47672198,-0.49658656 6.69810195,-0.49658656 8.68625403,1.48975968 L29.5095798,22.3135515 C31.4968067,24.300823 31.4968067,27.522275 29.5095798,29.5095464 C28.5159663,30.5031821 27.2142772,31 25.9116629,31" id="Fill-1"></path>
                            <path d="M5.08833711,31 C3.78572281,31 2.48403366,30.5031877 1.4904202,29.5095631 C-0.496806733,27.522314 -0.496806733,24.3008979 1.4904202,22.3136488 L22.313746,1.49008996 C24.3009729,-0.497159208 27.523278,-0.496234046 29.5095798,1.49008996 C31.4968067,3.47733913 31.4968067,6.69875515 29.5095798,8.68600432 L8.68625403,29.5095631 C7.69264056,30.5031877 6.39002626,31 5.08833711,31" id="Fill-3"></path>
                        </g>
                    </g>
                </g>
            </g>
        </g>
    </g>
</svg>