<?xml version="1.0" encoding="utf-8"?>
<!-- Generator: Adobe Illustrator 22.0.1, SVG Export Plug-In . SVG Version: 6.00 Build 0)  -->
<svg version="1.1" id="Layer_1" xmlns="http://www.w3.org/2000/svg" xmlns:xlink="http://www.w3.org/1999/xlink" x="0px" y="0px"
	 viewBox="0 0 169 36" style="enable-background:new 0 0 169 36;" xml:space="preserve">
<style type="text/css">
	.st0{enable-background:new    ;}
	.st1{fill:#4A4A4A;}
</style>
<title>Students</title>
<desc>Created with Sketch.</desc>
<g id="Page-2">
	<g id="Student-page-create-new" transform="translate(-48.000000, -131.000000)">
		<g class="st0">
			<path class="st1" d="M59.3,133.4c0.6,0,1.4,0.1,2.4,0.2c1,0.1,2,0.4,2.9,0.7c0.9,0.3,1.8,0.8,2.5,1.4c0.7,0.6,1,1.3,1,2.2
				c0,0.9-0.3,1.6-0.8,2.3s-1.3,1-2.2,1c-0.5,0-0.9-0.1-1.3-0.2c-0.4-0.1-0.9-0.3-1.4-0.5c-0.5-0.2-1-0.3-1.5-0.5s-1.1-0.2-1.8-0.2
				c-1,0-1.8,0.2-2.6,0.7c-0.8,0.5-1.1,1.2-1.1,2.2c0,0.8,0.4,1.4,1.1,1.8c0.7,0.4,1.7,0.8,2.8,1.1s2.3,0.7,3.6,1.1
				c1.3,0.4,2.5,1,3.6,1.7s2.1,1.7,2.8,2.9c0.7,1.2,1.1,2.8,1.1,4.7c0,1.6-0.3,3.1-0.9,4.4c-0.6,1.3-1.4,2.4-2.5,3.3
				c-1.1,0.9-2.3,1.6-3.7,2.1s-2.9,0.7-4.4,0.7c-0.9,0-1.9-0.1-3.2-0.2c-1.2-0.1-2.4-0.4-3.6-0.7c-1.2-0.4-2.1-0.9-2.9-1.5
				s-1.2-1.5-1.2-2.6c0-0.9,0.3-1.6,0.8-2.2s1.3-0.9,2.2-0.9c0.5,0,1.1,0.1,1.7,0.3c0.6,0.2,1.2,0.4,1.8,0.6c0.6,0.2,1.3,0.4,2,0.6
				c0.7,0.2,1.4,0.3,2.1,0.3c1.5,0,2.6-0.4,3.4-1.1c0.8-0.7,1.2-1.7,1.2-2.8c0-0.9-0.4-1.6-1.1-2c-0.7-0.5-1.7-0.9-2.8-1.3
				s-2.3-0.7-3.6-1.1c-1.3-0.4-2.5-0.9-3.6-1.5s-2.1-1.5-2.8-2.5c-0.7-1-1.1-2.4-1.1-4.2c0-1.6,0.3-3,0.9-4.3
				c0.6-1.3,1.4-2.3,2.4-3.2c1-0.9,2.2-1.5,3.6-2C56.4,133.7,57.8,133.4,59.3,133.4z"/>
			<path class="st1" d="M83,160.2c1-0.1,1.9,0.2,2.4,0.9c0.6,0.6,0.8,1.4,0.8,2.3c0,0.7-0.2,1.2-0.5,1.6c-0.3,0.4-0.7,0.7-1.1,1
				c-0.4,0.2-0.8,0.4-1.3,0.5c-0.5,0.1-0.9,0.1-1.2,0.1h-0.9c-1.1,0-2-0.2-2.9-0.7c-0.8-0.5-1.5-1.1-2-1.8c-0.5-0.8-0.9-1.6-1.2-2.7
				s-0.4-2-0.4-3.1v-10.4h-1.4c-0.9,0-1.6-0.3-2.1-0.8c-0.5-0.5-0.8-1.2-0.8-2.1c0-0.8,0.3-1.5,0.8-2s1.2-0.8,2-0.8h1.4V139v0v-0.8
				c0-1.1,0.3-2,0.9-2.6c0.6-0.7,1.4-1,2.3-1c1,0,1.7,0.3,2.3,1c0.6,0.7,0.9,1.5,0.9,2.6v3.9h1.8c0.8,0,1.6,0.2,2.2,0.6
				c0.6,0.4,0.9,1.2,0.9,2.2c0,1-0.3,1.7-0.9,2.2c-0.6,0.4-1.3,0.7-2.2,0.7h-1.8v9.6c0,0.5,0.1,1,0.2,1.4c0.1,0.4,0.3,0.7,0.5,1
				C82.2,160,82.6,160.2,83,160.2z"/>
			<path class="st1" d="M107.8,162.9c0,1.1-0.3,2-0.9,2.6c-0.6,0.7-1.4,1-2.3,1c-1.1,0-2-0.5-2.7-1.4c-1.4,1-3,1.4-4.8,1.4
				c-3.5,0-6.1-0.8-7.9-2.5c-1.8-1.7-2.7-4-2.7-6.9v-11.7c0-1.1,0.3-1.9,0.9-2.6c0.6-0.7,1.4-1,2.3-1c1,0,1.7,0.3,2.3,1
				s0.9,1.5,0.9,2.6V157c0,1.3,0.4,2.4,1.3,3.1c0.9,0.7,1.8,1.1,2.9,1.1c1.1,0,2-0.4,2.9-1.1c0.9-0.7,1.3-1.8,1.3-3.1v-4.5v-7.1
				c0-1.1,0.3-1.9,0.9-2.6c0.6-0.7,1.4-1,2.3-1c1,0,1.7,0.3,2.3,1c0.6,0.7,0.9,1.5,0.9,2.6V162.9z"/>
			<path class="st1" d="M133.6,162.7c0,1.1-0.3,2-0.9,2.6c-0.6,0.7-1.4,1-2.3,1c-0.9,0-1.6-0.2-2.1-0.7c-0.5-0.5-0.9-1.1-1.1-2
				c-0.6,1-1.5,1.7-2.6,2.2s-2.2,0.7-3.4,0.7c-1.6,0-3.1-0.3-4.4-1c-1.3-0.7-2.4-1.6-3.4-2.8c-0.9-1.2-1.6-2.5-2.1-3.9
				c-0.5-1.5-0.7-2.9-0.7-4.5c0-1.6,0.2-3.1,0.7-4.7c0.4-1.5,1.1-2.9,2-4.1s2-2.2,3.3-2.9c1.3-0.7,2.8-1.1,4.6-1.1
				c1.1,0,2.2,0.2,3.3,0.6c1,0.4,2,0.9,2.9,1.7V135c0-1.1,0.3-2,0.9-2.6c0.6-0.7,1.4-1,2.3-1c1,0,1.7,0.3,2.3,1
				c0.6,0.7,0.9,1.5,0.9,2.6V162.7z M127.2,153.8c0-0.8-0.1-1.6-0.3-2.3c-0.2-0.8-0.5-1.4-0.9-2c-0.4-0.6-0.9-1.1-1.6-1.5
				c-0.6-0.4-1.4-0.6-2.2-0.6c-0.8,0-1.6,0.2-2.2,0.6c-0.6,0.4-1.2,0.9-1.6,1.6c-0.4,0.6-0.7,1.3-0.9,2.1c-0.2,0.8-0.3,1.6-0.3,2.3
				s0.1,1.5,0.3,2.3c0.2,0.8,0.5,1.5,0.9,2.1c0.4,0.6,0.9,1.1,1.6,1.5c0.6,0.4,1.4,0.6,2.2,0.6c0.9,0,1.7-0.2,2.3-0.6
				c0.6-0.4,1.2-0.9,1.6-1.6c0.4-0.6,0.7-1.4,0.9-2.2C127.1,155.4,127.2,154.6,127.2,153.8z"/>
			<path class="st1" d="M142.5,156.2c0.2,1.6,0.9,2.8,2.1,3.6c1.2,0.8,2.5,1.1,4,1.1c0.8,0,1.6-0.1,2.3-0.4c0.7-0.3,1.4-0.6,2-0.9
				s1.2-0.6,1.7-0.9c0.5-0.3,1-0.4,1.4-0.4c0.7,0,1.3,0.3,1.8,0.9c0.5,0.6,0.8,1.2,0.8,1.9c0,0.7-0.3,1.4-1,2
				c-0.6,0.7-1.5,1.2-2.5,1.8c-1,0.5-2.2,0.9-3.4,1.2c-1.3,0.3-2.5,0.5-3.7,0.5c-1.8,0-3.5-0.3-5-0.9s-2.8-1.5-3.8-2.6
				c-1.1-1.1-1.9-2.4-2.5-3.9s-0.9-3.2-0.9-5c0-1.6,0.3-3.2,0.9-4.7c0.6-1.5,1.4-2.8,2.4-4c1-1.2,2.2-2.1,3.7-2.8c1.4-0.7,3-1,4.7-1
				c1.7,0,3.3,0.4,4.8,1.1c1.4,0.7,2.7,1.7,3.7,2.8c1,1.1,1.8,2.4,2.4,3.8c0.6,1.4,0.8,2.8,0.8,4.1c0,1-0.2,1.7-0.7,2.2
				c-0.4,0.5-1.2,0.7-2.2,0.7H142.5z M152.7,151.9c-0.2-1.4-0.7-2.6-1.6-3.6c-0.9-0.9-2.1-1.4-3.6-1.4c-1.4,0-2.6,0.5-3.5,1.4
				c-0.9,1-1.4,2.1-1.6,3.5H152.7z"/>
			<path class="st1" d="M161.5,145.4c0-1.1,0.3-1.9,0.9-2.6c0.6-0.7,1.4-1,2.3-1c0.8,0,1.5,0.2,2,0.6c0.5,0.4,0.8,1,0.9,1.8
				c0.6-0.9,1.4-1.5,2.5-2c1-0.5,2.3-0.7,3.8-0.7c1.3,0,2.4,0.2,3.5,0.6c1.1,0.4,2,1,2.8,1.7c0.8,0.8,1.4,1.7,1.8,2.7
				c0.5,1.1,0.7,2.3,0.7,3.7v12.4c0,1.1-0.3,2-0.9,2.6c-0.6,0.7-1.4,1-2.3,1c-1,0-1.7-0.3-2.3-1c-0.6-0.7-0.9-1.5-0.9-2.6v-11.3
				c0-1.5-0.4-2.7-1.2-3.4s-1.8-1.1-3-1.1c-1.3,0-2.4,0.4-3.1,1.3c-0.7,0.9-1.1,1.9-1.1,3.2v11.3c0,1.1-0.3,2-0.9,2.6s-1.4,1-2.3,1
				s-1.7-0.3-2.3-1c-0.6-0.7-0.9-1.5-0.9-2.6V145.4z"/>
			<path class="st1" d="M196.4,160.2c1-0.1,1.9,0.2,2.4,0.9c0.6,0.6,0.8,1.4,0.8,2.3c0,0.7-0.2,1.2-0.5,1.6c-0.3,0.4-0.7,0.7-1.1,1
				c-0.4,0.2-0.8,0.4-1.3,0.5c-0.5,0.1-0.9,0.1-1.2,0.1h-0.9c-1.1,0-2-0.2-2.9-0.7c-0.8-0.5-1.5-1.1-2-1.8c-0.5-0.8-0.9-1.6-1.2-2.7
				c-0.3-1-0.4-2-0.4-3.1v-10.4h-1.4c-0.9,0-1.6-0.3-2.1-0.8c-0.5-0.5-0.8-1.2-0.8-2.1c0-0.8,0.3-1.5,0.8-2c0.5-0.5,1.2-0.8,2-0.8
				h1.4V139v0v-0.8c0-1.1,0.3-2,0.9-2.6c0.6-0.7,1.4-1,2.3-1s1.7,0.3,2.3,1c0.6,0.7,0.9,1.5,0.9,2.6v3.9h1.8c0.8,0,1.6,0.2,2.2,0.6
				s0.9,1.2,0.9,2.2c0,1-0.3,1.7-0.9,2.2c-0.6,0.4-1.3,0.7-2.2,0.7h-1.8v9.6c0,0.5,0.1,1,0.2,1.4c0.1,0.4,0.3,0.7,0.5,1
				C195.6,160,195.9,160.2,196.4,160.2z"/>
			<path class="st1" d="M216.1,146.2c0,0.8-0.2,1.4-0.7,2c-0.5,0.6-1.1,0.9-1.9,0.9c-0.3,0-0.7-0.1-1.1-0.3
				c-0.5-0.2-0.9-0.4-1.4-0.7c-0.5-0.2-1-0.5-1.6-0.7c-0.6-0.2-1.1-0.3-1.6-0.3c-0.6,0-1.1,0.1-1.6,0.4c-0.4,0.3-0.7,0.7-0.7,1.4
				c0,0.5,0.3,0.9,0.8,1.3c0.6,0.3,1.3,0.7,2.1,1s1.7,0.7,2.7,1.1s1.9,0.8,2.7,1.4c0.8,0.6,1.5,1.3,2.1,2.1s0.8,1.9,0.8,3.1
				c0,1.1-0.2,2.1-0.7,3c-0.4,0.9-1.1,1.7-1.9,2.4c-0.8,0.7-1.8,1.2-2.9,1.6s-2.4,0.6-3.8,0.6c-0.9,0-1.9-0.1-2.9-0.4
				c-1.1-0.2-2-0.6-2.9-1c-0.9-0.4-1.7-1-2.2-1.6c-0.6-0.6-0.9-1.3-0.9-2c0-0.2,0.1-0.5,0.2-0.9c0.1-0.3,0.3-0.6,0.5-0.9
				c0.2-0.3,0.5-0.6,0.9-0.8c0.3-0.2,0.7-0.3,1.2-0.3c0.6,0,1.2,0.1,1.7,0.3c0.5,0.2,1,0.5,1.5,0.8c0.5,0.3,1,0.5,1.6,0.8
				c0.6,0.2,1.2,0.3,2,0.3c1,0,1.7-0.2,2-0.5s0.5-0.8,0.5-1.4c0-0.5-0.3-0.9-0.8-1.2c-0.6-0.3-1.3-0.7-2.1-1s-1.7-0.7-2.7-1.1
				c-1-0.4-1.9-0.8-2.7-1.4c-0.8-0.6-1.5-1.3-2.1-2.1c-0.6-0.8-0.8-1.9-0.8-3.1c0-1.1,0.2-2.1,0.7-3.1c0.4-0.9,1-1.7,1.8-2.4
				c0.8-0.7,1.7-1.2,2.8-1.6c1.1-0.4,2.2-0.5,3.5-0.5c0.8,0,1.7,0.1,2.6,0.3c0.9,0.2,1.8,0.5,2.6,0.9c0.8,0.4,1.5,0.9,2,1.4
				C215.8,144.7,216.1,145.4,216.1,146.2z"/>
		</g>
	</g>
</g>
</svg>
