<?xml version="1.0" encoding="UTF-8"?>
<svg width="50px" height="54px" viewBox="0 0 50 54" version="1.1" xmlns="http://www.w3.org/2000/svg" xmlns:xlink="http://www.w3.org/1999/xlink">
    <!-- Generator: Sketch 53.2 (72643) - https://sketchapp.com -->
    <title>icon / activites copy</title>
    <desc>Created with Sketch.</desc>
    <defs>
        <polygon id="path-1" points="0.0003 0.0003 50 0.0003 50 50 0.0003 50"></polygon>
    </defs>
    <g id="icon-/-activites-copy" stroke="none" stroke-width="1" fill="none" fill-rule="evenodd">
        <g id="Group-22" transform="translate(0.000000, 2.000000)">
            <g id="Group-3">
                <mask id="mask-2" fill="white">
                    <use xlink:href="#path-1"></use>
                </mask>
                <g id="Clip-2"></g>
                <path d="M25.0003,47.0003 C12.8703,47.0003 3.0003,37.1313 3.0003,25.0003 C3.0003,12.8693 12.8703,3.0003 25.0003,3.0003 C37.1313,3.0003 47.0003,12.8693 47.0003,25.0003 C47.0003,37.1313 37.1313,47.0003 25.0003,47.0003 M25.0003,0.0003 C11.1923,0.0003 0.0003,11.1913 0.0003,25.0003 C0.0003,38.8063 11.1923,50.0003 25.0003,50.0003 C38.8083,50.0003 50.0003,38.8063 50.0003,25.0003 C50.0003,11.1913 38.8083,0.0003 25.0003,0.0003" id="Fill-1" fill="#2A7FE1" mask="url(#mask-2)"></path>
            </g>
            <path d="M29.3997,25.7015 C29.3997,28.4625 27.1617,30.7015 24.3997,30.7015 C21.6387,30.7015 19.3997,28.4625 19.3997,25.7015 C19.3997,22.9395 21.6387,20.7015 24.3997,20.7015 C27.1617,20.7015 29.3997,22.9395 29.3997,25.7015 Z" id="Stroke-4" stroke="#2A7FE1" stroke-width="2"></path>
            <path d="M21.3997,12.7015 C21.3997,14.3575 20.0567,15.7015 18.3997,15.7015 C16.7437,15.7015 15.3997,14.3575 15.3997,12.7015 C15.3997,11.0445 16.7437,9.7015 18.3997,9.7015 C20.0567,9.7015 21.3997,11.0445 21.3997,12.7015 Z" id="Stroke-6" stroke="#2A7FE1" stroke-width="2"></path>
            <path d="M13.3997,25.7015 C13.3997,27.3575 12.0567,28.7015 10.3997,28.7015 C8.7437,28.7015 7.3997,27.3575 7.3997,25.7015 C7.3997,24.0445 8.7437,22.7015 10.3997,22.7015 C12.0567,22.7015 13.3997,24.0445 13.3997,25.7015 Z" id="Stroke-8" stroke="#2A7FE1" stroke-width="2"></path>
            <path d="M40.3997,16.7015 C40.3997,18.3575 39.0567,19.7015 37.3997,19.7015 C35.7437,19.7015 34.3997,18.3575 34.3997,16.7015 C34.3997,15.0445 35.7437,13.7015 37.3997,13.7015 C39.0567,13.7015 40.3997,15.0445 40.3997,16.7015 Z" id="Stroke-10" stroke="#2A7FE1" stroke-width="2"></path>
            <path d="M40.3997,33.7015 C40.3997,35.3575 39.0567,36.7015 37.3997,36.7015 C35.7437,36.7015 34.3997,35.3575 34.3997,33.7015 C34.3997,32.0445 35.7437,30.7015 37.3997,30.7015 C39.0567,30.7015 40.3997,32.0445 40.3997,33.7015 Z" id="Stroke-12" stroke="#2A7FE1" stroke-width="2"></path>
            <path d="M22.3235,21.2015 L19.6565,15.4225" id="Stroke-14" stroke="#2A7FE1" stroke-width="2"></path>
            <path d="M28.6575,28.3206 L34.8485,32.1316" id="Stroke-16" stroke="#2A7FE1" stroke-width="2"></path>
            <path d="M17.6497,25.7015 L15.2117,25.7015" id="Stroke-18" stroke="#2A7FE1" stroke-width="2"></path>
            <path d="M29.9241,21.8763 L33.6671,19.2853" id="Stroke-20" stroke="#2A7FE1" stroke-width="2"></path>
        </g>
    </g>
</svg>