<?xml version="1.0" encoding="UTF-8"?>
<svg width="50px" height="57px" viewBox="0 0 50 57" version="1.1" xmlns="http://www.w3.org/2000/svg" xmlns:xlink="http://www.w3.org/1999/xlink">
    <!-- Generator: Sketch 52.4 (67378) - http://www.bohemiancoding.com/sketch -->
    <title>icon / timer copy 2</title>
    <desc>Created with Sketch.</desc>
    <g id="Page-2" stroke="none" stroke-width="1" fill="none" fill-rule="evenodd">
        <g id="icon-/-timer" fill="#4A4A4A">
            <path d="M26.5001,30.4221 L26.5001,12.4871 L23.5001,12.4871 L23.5001,32.1541 L40.5321,41.9871 L42.0321,39.3901 L26.5001,30.4221 Z M25.0001,53.2881 C12.8691,53.2881 3.0001,43.4191 3.0001,31.2881 C3.0001,19.1571 12.8691,9.2881 25.0001,9.2881 C37.1311,9.2881 47.0001,19.1571 47.0001,31.2881 C47.0001,43.4191 37.1311,53.2881 25.0001,53.2881 Z M26.5001,6.3371 L26.5001,3.0001 L31.0541,3.0001 C31.8831,3.0001 32.5541,2.3281 32.5541,1.5001 C32.5541,0.6721 31.8831,0.0001 31.0541,0.0001 L18.9461,0.0001 C18.1171,0.0001 17.4461,0.6721 17.4461,1.5001 C17.4461,2.3281 18.1171,3.0001 18.9461,3.0001 L23.5001,3.0001 L23.5001,6.3371 C10.3921,7.1131 0.0001,17.9851 0.0001,31.2881 C0.0001,45.0961 11.1931,56.2881 25.0001,56.2881 C38.8071,56.2881 50.0001,45.0961 50.0001,31.2881 C50.0001,17.9851 39.6081,7.1131 26.5001,6.3371 Z M7.9681,23.1871 L14.9281,27.2051 L16.4281,24.6081 L9.4681,20.5891 L7.9681,23.1871 Z M23.5001,50.0891 L26.5001,50.0891 L26.5001,42.0521 L23.5001,42.0521 L23.5001,50.0891 Z M7.9681,39.3901 L9.4681,41.9871 L16.4281,37.9691 L14.9281,35.3711 L7.9681,39.3901 Z" id="Fill-1"></path>
        </g>
    </g>
</svg>