<?xml version="1.0" encoding="UTF-8"?>
<svg width="104px" height="104px" viewBox="0 0 104 104" version="1.1" xmlns="http://www.w3.org/2000/svg" xmlns:xlink="http://www.w3.org/1999/xlink">
    <!-- Generator: Sketch 52.4 (67378) - http://www.bohemiancoding.com/sketch -->
    <title>star btn grey</title>
    <desc>Created with Sketch.</desc>
    <defs>
        <polygon id="path-1" points="0.0001 0.2 103.8 0.2 103.8 103.9998 0.0001 103.9998"></polygon>
    </defs>
    <g id="Page-2" stroke="none" stroke-width="1" fill="none" fill-rule="evenodd">
        <g id="Student-page-spinner" transform="translate(-1251.000000, -890.000000)">
            <g id="star-btn-grey" transform="translate(1251.000000, 889.000000)">
                <g id="Group-3" transform="translate(0.000000, 0.800000)">
                    <mask id="mask-2" fill="white">
                        <use xlink:href="#path-1"></use>
                    </mask>
                    <g id="Clip-2"></g>
                    <path d="M51.9001,0.1998 C80.5641,0.1998 103.8001,23.4358 103.8001,52.0998 C103.8001,80.7638 80.5641,103.9998 51.9001,103.9998 C23.2351,103.9998 0.0001,80.7638 0.0001,52.0998 C0.0001,23.4358 23.2351,0.1998 51.9001,0.1998" id="Fill-1" fill="#A6A8AB" mask="url(#mask-2)"></path>
                </g>
                <path d="M82.3469,40.7098 L80.5019,40.6858 L63.2269,40.5358 L57.3699,24.3368 L56.7149,22.5318 C53.8399,14.5358 49.2549,14.5988 46.5759,22.6478 L45.4049,26.1468 L40.4959,40.8018 L25.0549,41.2938 L25.0479,41.2818 L23.1889,41.3638 L21.3459,41.4088 C12.8509,41.6928 11.5099,46.0638 18.3359,51.1058 L21.2879,53.2998 L33.7239,62.4868 L29.4379,77.3348 L29.4249,77.3418 L28.3999,80.8758 C26.0359,89.0278 29.7459,91.6648 36.6589,86.7618 L38.1799,85.6868 L39.6819,84.6088 L52.2669,75.6168 L65.0399,84.3088 L68.0919,86.3718 C75.1379,91.1508 78.8059,88.4198 76.2319,80.3068 L75.6569,78.4738 L70.4839,62.0568 L84.1459,51.4448 L85.6089,50.3298 C92.3099,45.1068 90.8589,40.7708 82.3469,40.7098" id="Fill-4" fill="#FFCF01"></path>
            </g>
        </g>
    </g>
</svg>