<?xml version="1.0" encoding="UTF-8"?>
<svg width="76px" height="73px" viewBox="0 0 76 73" version="1.1" xmlns="http://www.w3.org/2000/svg" xmlns:xlink="http://www.w3.org/1999/xlink">
    <!-- Generator: Sketch 52.4 (67378) - http://www.bohemiancoding.com/sketch -->
    <title>Fill 4</title>
    <desc>Created with Sketch.</desc>
    <g id="Page-2" stroke="none" stroke-width="1" fill="none" fill-rule="evenodd">
        <path d="M68.366856,24.1370622 L66.521856,24.1130622 L49.246856,23.9630622 L43.389856,7.76406221 L42.734856,5.95906221 C39.859856,-2.03693779 35.274856,-1.97393779 32.595856,6.07506221 L31.424856,9.57406221 L26.515856,24.2290622 L11.074856,24.7210622 L11.067856,24.7090622 L9.20885601,24.7910622 L7.36585601,24.8360622 C-1.12914399,25.1200622 -2.47014399,29.4910622 4.35585601,34.5330622 L7.30785601,36.7270622 L19.743856,45.9140622 L15.457856,60.7620622 L15.444856,60.7690622 L14.419856,64.3030622 C12.055856,72.4550622 15.765856,75.0920622 22.678856,70.1890622 L24.199856,69.1140622 L25.701856,68.0360622 L38.286856,59.0440622 L51.059856,67.7360622 L54.111856,69.7990622 C61.157856,74.5780622 64.825856,71.8470622 62.251856,63.7340622 L61.676856,61.9010622 L56.503856,45.4840622 L70.165856,34.8720622 L71.628856,33.7570622 C78.329856,28.5340622 76.878856,24.1980622 68.366856,24.1370622" id="Fill-4" fill="#FFCF01"></path>
    </g>
</svg>