<?xml version="1.0" encoding="UTF-8"?>
<svg width="50px" height="54px" viewBox="0 0 50 54" version="1.1" xmlns="http://www.w3.org/2000/svg" xmlns:xlink="http://www.w3.org/1999/xlink">
    <!-- Generator: Sketch 52.4 (67378) - http://www.bohemiancoding.com/sketch -->
    <title>icon / spinner copy 2</title>
    <desc>Created with Sketch.</desc>
    <g id="Page-2" stroke="none" stroke-width="1" fill="none" fill-rule="evenodd">
        <g id="icon-/-spinner" fill="#4A4A4A">
            <path d="M30.2242,0.0003 L19.7762,0.0003 L25.0002,10.4483 L30.2242,0.0003 Z M27.5152,28.1093 L39.0792,12.1923 C43.8522,16.2063 46.8912,22.2143 46.8912,28.9273 C46.8912,30.7433 46.6442,32.5003 46.2252,34.1883 L27.5152,28.1093 Z M26.5542,50.7393 L26.5542,31.0663 L45.2752,37.1483 C42.2032,44.6963 35.0422,50.1393 26.5542,50.7393 Z M23.4462,50.7393 C14.9582,50.1393 7.7962,44.6963 4.7242,37.1483 L23.4462,31.0663 L23.4462,50.7393 Z M3.1082,28.9273 C3.1082,22.2143 6.1472,16.2063 10.9212,12.1923 L22.4852,28.1093 L3.7742,34.1883 C3.3552,32.5003 3.1082,30.7433 3.1082,28.9273 Z M30.3782,4.5133 L28.9312,7.4073 C31.6892,7.9103 34.2592,8.9453 36.5552,10.3783 L25.0002,26.2833 L13.4452,10.3783 C15.7412,8.9453 18.3102,7.9103 21.0692,7.4073 L19.6212,4.5133 C8.4002,6.9753 0.0002,16.9673 0.0002,28.9273 C0.0002,42.7333 11.1932,53.9273 25.0002,53.9273 C38.8072,53.9273 50.0002,42.7333 50.0002,28.9273 C50.0002,16.9673 41.5992,6.9753 30.3782,4.5133 Z" id="Fill-1"></path>
        </g>
    </g>
</svg>