<?xml version="1.0" encoding="UTF-8"?>
<svg width="49px" height="61px" viewBox="0 0 49 61" version="1.1" xmlns="http://www.w3.org/2000/svg" xmlns:xlink="http://www.w3.org/1999/xlink">
    <!-- Generator: Sketch 52.4 (67378) - http://www.bohemiancoding.com/sketch -->
    <title>Group 15</title>
    <desc>Created with Sketch.</desc>
    <defs>
        <filter x="-28.6%" y="-21.8%" width="157.1%" height="143.6%" filterUnits="objectBoundingBox" id="filter-1">
            <feOffset dx="0" dy="2" in="SourceAlpha" result="shadowOffsetOuter1"></feOffset>
            <feGaussianBlur stdDeviation="2" in="shadowOffsetOuter1" result="shadowBlurOuter1"></feGaussianBlur>
            <feColorMatrix values="0 0 0 0 0.219607843   0 0 0 0 0.776470588   0 0 0 0 0.956862745  0 0 0 0.5 0" type="matrix" in="shadowBlurOuter1" result="shadowMatrixOuter1"></feColorMatrix>
            <feMerge>
                <feMergeNode in="shadowMatrixOuter1"></feMergeNode>
                <feMergeNode in="SourceGraphic"></feMergeNode>
            </feMerge>
        </filter>
        <polygon id="path-2" points="0 0.167 41.099 0.167 41.099 54 0 54"></polygon>
    </defs>
    <g id="Page-2" stroke="none" stroke-width="1" fill="none" fill-rule="evenodd">
        <g id="Group-15" filter="url(#filter-1)" transform="translate(4.000000, 1.000000)">
            <g id="Group-3" transform="translate(0.000000, 0.833300)">
                <mask id="mask-3" fill="white">
                    <use xlink:href="#path-2"></use>
                </mask>
                <g id="Clip-2"></g>
                <path d="M-0.0002,6.509 C-0.0002,5.608 0.7308,4.877 1.6318,4.877 L4.4558,4.877 C5.0428,4.877 5.5828,4.558 5.8698,4.046 C7.1688,1.728 9.6528,0.167 12.4538,0.167 C15.2528,0.167 17.7368,1.728 19.0368,4.046 C19.3238,4.558 19.8628,4.877 20.4508,4.877 L20.6478,4.877 C21.2368,4.877 21.7758,4.558 22.0628,4.046 C23.3618,1.728 25.8458,0.167 28.6458,0.167 C31.4468,0.167 33.9308,1.728 35.2288,4.046 C35.5168,4.558 36.0558,4.877 36.6438,4.877 L39.4678,4.877 C40.3688,4.877 41.0998,5.608 41.0998,6.509 L41.0998,51.4883133 C41.0998,52.3893133 40.3688,53.1203133 39.4678,53.1203133 L1.6318,53.1203133 C0.7308,53.1203133 -0.0002,52.3893133 -0.0002,51.4883133 L-0.0002,6.509 Z" id="Fill-1" fill="#FEFEFE" mask="url(#mask-3)"></path>
            </g>
            <polygon id="Fill-4" fill="#B56127" points="2.02392578 52 38.895752 52 38.895752 8.1583 2.02392578 8.1583"></polygon>
            <path d="M33.742,8.543 C33.742,11.357 31.461,13.639 28.646,13.639 C25.832,13.639 23.55,11.357 23.55,8.543 C23.55,5.729 25.832,3.447 28.646,3.447 C31.461,3.447 33.742,5.729 33.742,8.543" id="Fill-6" fill="#B56127"></path>
            <path d="M17.5491,8.543 C17.5491,11.357 15.2671,13.639 12.4531,13.639 C9.6391,13.639 7.3571,11.357 7.3571,8.543 C7.3571,5.729 9.6391,3.447 12.4531,3.447 C15.2671,3.447 17.5491,5.729 17.5491,8.543" id="Fill-7" fill="#B56127"></path>
            <path d="M21.9666,13.5821 C21.9666,15.3811 23.4246,16.8381 25.2226,16.8381 C27.0206,16.8381 28.4786,15.3811 28.4786,13.5821 C28.4786,11.7841 27.0206,10.3261 25.2226,10.3261 C23.4246,10.3261 21.9666,11.7841 21.9666,13.5821" id="Fill-8" fill="#FEFEFE"></path>
            <path d="M23.0897,13.5821 C23.0897,14.3751 23.7327,15.0191 24.5257,15.0191 C25.3187,15.0191 25.9617,14.3751 25.9617,13.5821 C25.9617,12.7891 25.3187,12.1461 24.5257,12.1461 C23.7327,12.1461 23.0897,12.7891 23.0897,13.5821" id="Fill-9" fill="#59595B"></path>
            <path d="M19.1326,13.5821 C19.1326,15.3811 17.6746,16.8381 15.8766,16.8381 C14.0786,16.8381 12.6206,15.3811 12.6206,13.5821 C12.6206,11.7841 14.0786,10.3261 15.8766,10.3261 C17.6746,10.3261 19.1326,11.7841 19.1326,13.5821" id="Fill-10" fill="#FEFEFE"></path>
            <path d="M18.0096,13.5821 C18.0096,14.3751 17.3666,15.0191 16.5736,15.0191 C15.7806,15.0191 15.1376,14.3751 15.1376,13.5821 C15.1376,12.7891 15.7806,12.1461 16.5736,12.1461 C17.3666,12.1461 18.0096,12.7891 18.0096,13.5821" id="Fill-11" fill="#59595B"></path>
            <path d="M23.6619,24.1495 L17.4369,24.1495 C16.2099,24.1495 15.2049,23.1445 15.2049,21.9175 L15.2049,20.2735 C15.2049,19.0455 16.2099,18.0425 17.4369,18.0425 L23.6619,18.0425 C24.8899,18.0425 25.8939,19.0455 25.8939,20.2735 L25.8939,21.9175 C25.8939,23.1445 24.8899,24.1495 23.6619,24.1495" id="Fill-12" fill="#EECD74"></path>
            <path d="M22.9491,18.9561 C22.9491,19.6551 21.8751,20.2231 20.5501,20.2231 C19.2241,20.2231 18.1501,19.6551 18.1501,18.9561 C18.1501,18.2561 19.2241,17.6891 20.5501,17.6891 C21.8751,17.6891 22.9491,18.2561 22.9491,18.9561" id="Fill-13" fill="#623A30"></path>
            <path d="M21.2293,22.6358 C20.5573,22.6358 20.0913,22.2498 19.9183,21.5498 C19.8783,21.3888 19.9773,21.2248 20.1393,21.1848 C20.3003,21.1448 20.4643,21.2428 20.5043,21.4058 C20.6113,21.8388 20.8353,22.0318 21.2293,22.0318 C21.5913,22.0318 21.8233,21.7328 21.8643,21.4368 C21.8873,21.2718 22.0403,21.1568 22.2053,21.1788 C22.3703,21.2018 22.4853,21.3548 22.4623,21.5198 C22.3723,22.1658 21.8543,22.6358 21.2293,22.6358" id="Fill-14" fill="#623A30"></path>
        </g>
    </g>
</svg>