<?xml version="1.0" encoding="utf-8"?>
<!-- Generator: Adobe Illustrator 22.0.1, SVG Export Plug-In . SVG Version: 6.00 Build 0)  -->
<svg version="1.1" id="Layer_1" xmlns="http://www.w3.org/2000/svg" xmlns:xlink="http://www.w3.org/1999/xlink" x="0px" y="0px"
	 viewBox="0 0 358 358" style="enable-background:new 0 0 358 358;" xml:space="preserve">
<style type="text/css">
	.st0{fill:#F0F0F0;stroke:#BBBDBF;stroke-width:15;}
	.st1{enable-background:new    ;}
	.st2{fill:#BBBDBF;}
</style>
<title>Group 2</title>
<desc>Created with Sketch.</desc>
<g id="Open-Lesson-2.0">
	<g id="book-1-copy-6" transform="translate(-781.000000, -442.000000)">
		<g id="Group-2" transform="translate(781.000000, 442.000000)">
			<path id="Rectangle" class="st0" d="M42.5,7.5h273c19.3,0,35,15.7,35,35v273c0,19.3-15.7,35-35,35h-273c-19.3,0-35-15.7-35-35
				v-273C7.5,23.2,23.2,7.5,42.5,7.5z"/>
			<g id="girl-copy-4" transform="translate(44.000000, 65.500000)">
				<g class="st1">
					<path class="st2" d="M146,32c30.1,0,50.9,18.1,50.9,47c0,23.4-13.5,39.8-32.3,45.5c-7,1.9-11.3,5.1-11.8,11.3
						c-0.7,8.4-8,15.2-17.4,15.2c-8.9,0-16.4-5.1-16.4-18.8c0-11.8,5.3-28.2,25.5-36.1l8-3.4c8.4-3.9,10.6-8.7,10.6-14
						c0-7.2-7-14.2-17.1-14.2c-7.2,0-13.5,3.4-16.4,11.6c-2.7,7.7-14.9,11.6-23.4,8c-8.4-3.6-10.6-14.5-7.5-22.2
						C106,43.1,123.1,32,146,32z M135.7,161.9c11.3,0,21,8.4,21,20c0,11.8-9.6,20.2-21,20.2s-20.7-8.4-20.7-20.2
						C114.9,170.4,124.3,161.9,135.7,161.9z"/>
				</g>
			</g>
		</g>
	</g>
</g>
</svg>
