<?xml version="1.0" encoding="UTF-8"?>
<svg width="55px" height="41px" viewBox="0 0 55 41" version="1.1" xmlns="http://www.w3.org/2000/svg" xmlns:xlink="http://www.w3.org/1999/xlink">
    <!-- Generator: Sketch 52.4 (67378) - http://www.bohemiancoding.com/sketch -->
    <title>icon / sticker co copy 2</title>
    <desc>Created with Sketch.</desc>
    <g id="Page-2" stroke="none" stroke-width="1" fill="none" fill-rule="evenodd">
        <g id="icon-/-sticker-co-copy-2" fill="#2A7FE1">
            <path d="M30.9062187,21.7807375 C29.948875,21.7807375 29.172,22.55205 29.172,23.5044458 C29.172,24.4559875 29.948875,25.2281542 30.9062187,25.2281542 C31.8635625,25.2281542 32.6404375,24.4559875 32.6404375,23.5044458 C32.6404375,22.55205 31.8635625,21.7807375 30.9062187,21.7807375 M31.8618437,27.5344042 C31.2112969,27.2448417 30.4498906,27.5378208 30.1602812,28.1835708 C29.343875,30.0072167 27.522,31.1859667 25.5179375,31.1859667 C23.5155937,31.1859667 21.6937187,30.0072167 20.8764531,28.1835708 C20.5868437,27.5369667 19.8254375,27.2439875 19.1740312,27.5344042 C18.5234844,27.8222583 18.2312969,28.5799042 18.5209062,29.2265083 C19.7523906,31.9735083 22.4989531,33.7484667 25.5179375,33.7484667 C28.5386406,33.7484667 31.2852031,31.9735083 32.5158281,29.2265083 C32.8045781,28.5799042 32.5123906,27.8222583 31.8618437,27.5344042 M50.5549687,16.7667792 L42.6306719,19.5300083 L42.4880156,27.8641125 C42.4725469,28.8344458 42.30325,29.2828833 42.2087187,29.4588417 C42.0265312,29.3742792 41.6217656,29.1137583 41.0270781,28.3407375 L40.0860625,27.1141542 C40.1367656,26.6255708 40.1625469,26.1293 40.1625469,25.62705 C40.1625469,18.6023833 35.1291875,12.7240083 28.4587187,11.3684458 L26.9599687,9.24413333 C26.3970781,8.44975833 26.27075,7.98765417 26.2449687,7.79034167 C26.4400469,7.75190417 26.9178594,7.725425 27.8434062,7.99790417 L35.8974687,10.390425 L40.9437187,3.72707083 C41.5272344,2.95319583 41.9294219,2.69182083 42.1090312,2.60640417 C42.2044219,2.7798 42.378875,3.22652917 42.4012187,4.19857083 L42.6109062,12.5318208 L50.5283281,15.238675 L50.5352031,15.2412375 C51.46075,15.5547167 51.8362969,15.8545292 51.9746562,15.997175 C51.838875,16.1423833 51.4684844,16.4456125 50.5549687,16.7667792 M25.5179375,37.61955 C18.8655156,37.61955 13.4531719,32.2400083 13.4531719,25.62705 C13.4531719,19.0149458 18.8655156,13.6354042 25.5179375,13.6354042 C32.1712187,13.6354042 37.5844219,19.0149458 37.5844219,25.62705 C37.5844219,32.2400083 32.1712187,37.61955 25.5179375,37.61955 M11.5737187,30.0567583 L3.60215625,30.0567583 C3.08825,30.0567583 2.8235625,29.7210708 2.7341875,29.5758625 C2.64395312,29.4315083 2.4591875,29.045425 2.6895,28.5893 L11.2505937,11.5683208 C11.5058281,11.0618 11.9741875,11.0079875 12.1641094,11.0079875 C12.3540312,11.0079875 12.8223906,11.0618 13.0767656,11.5683208 L15.043875,15.4778417 C12.4683281,18.1018417 10.8750469,21.6808 10.8750469,25.62705 C10.8750469,27.1722375 11.1225469,28.6593417 11.5737187,30.0567583 M51.3739531,12.8179667 L45.1434844,10.6868208 L44.9784844,4.13621667 C44.9140312,1.33455 43.8200469,0.4018 42.9134063,0.113091667 C42.0050469,-0.176470833 40.5698906,-0.0492 38.8820781,2.18871667 L34.9160625,7.4256125 L28.5902031,5.54559167 C25.892625,4.7503625 24.6611406,5.49605 24.1068437,6.2622375 C23.5516875,7.02927917 23.2294219,8.4249875 24.847625,10.7141542 L25.1148906,11.09255 C22.1208281,11.17455 19.3519219,12.1491542 17.0642656,13.7643833 L15.3824687,10.4220292 C14.768875,9.20227917 13.5356719,8.4454875 12.1641094,8.4454875 C10.7925469,8.4454875 9.55934375,9.20227917 8.94489062,10.4220292 L0.3829375,27.4430083 C-0.178234375,28.5602583 -0.119796875,29.8611542 0.5410625,30.9237375 C1.20192188,31.9854667 2.34575,32.6192583 3.60215625,32.6192583 L12.6823125,32.6192583 C15.1745,37.122425 19.9930156,40.18205 25.5179375,40.18205 C31.9280156,40.18205 37.3755937,36.06155 39.3547344,30.3505917 C40.5011406,31.669425 41.5091875,32.0649042 42.2937969,32.0649042 C42.5687969,32.0649042 42.8171562,32.0170708 43.0345781,31.946175 C43.9377813,31.6497792 45.0231719,30.7076333 45.0661406,27.9059667 L45.1778594,21.3553625 L50.7062187,19.4232375 L51.4005937,19.1874875 C54.0612187,18.252175 54.6129375,16.9282167 54.6086406,15.9835083 C54.602625,15.0388 54.0380156,13.7225292 51.3739531,12.8179667 M20.1305156,25.2281542 C21.0887187,25.2281542 21.8647344,24.4559875 21.8647344,23.5044458 C21.8647344,22.55205 21.0887187,21.7807375 20.1305156,21.7807375 C19.1731719,21.7807375 18.3962969,22.55205 18.3962969,23.5044458 C18.3962969,24.4559875 19.1731719,25.2281542 20.1305156,25.2281542" id="Fill-1"></path>
        </g>
    </g>
</svg>