<?xml version="1.0" encoding="UTF-8"?>
<svg width="42px" height="54px" viewBox="0 0 42 54" version="1.1" xmlns="http://www.w3.org/2000/svg" xmlns:xlink="http://www.w3.org/1999/xlink">
    <!-- Generator: Sketch 52.4 (67378) - http://www.bohemiancoding.com/sketch -->
    <title>Group 30</title>
    <desc>Created with Sketch.</desc>
    <defs>
        <filter x="-35.3%" y="-25.0%" width="170.6%" height="150.0%" filterUnits="objectBoundingBox" id="filter-1">
            <feOffset dx="0" dy="2" in="SourceAlpha" result="shadowOffsetOuter1"></feOffset>
            <feGaussianBlur stdDeviation="2" in="shadowOffsetOuter1" result="shadowBlurOuter1"></feGaussianBlur>
            <feColorMatrix values="0 0 0 0 0.219607843   0 0 0 0 0.776470588   0 0 0 0 0.956862745  0 0 0 0.5 0" type="matrix" in="shadowBlurOuter1" result="shadowMatrixOuter1"></feColorMatrix>
            <feMerge>
                <feMergeNode in="shadowMatrixOuter1"></feMergeNode>
                <feMergeNode in="SourceGraphic"></feMergeNode>
            </feMerge>
        </filter>
        <polygon id="path-2" points="0 0.526 33.3898 0.526 33.3898 46 0 46"></polygon>
    </defs>
    <g id="Page-2" stroke="none" stroke-width="1" fill="none" fill-rule="evenodd">
        <g id="Group-30" filter="url(#filter-1)" transform="translate(4.000000, 1.000000)">
            <g id="Group-3" transform="translate(0.000000, 0.473600)">
                <mask id="mask-3" fill="white">
                    <use xlink:href="#path-2"></use>
                </mask>
                <g id="Clip-2"></g>
                <path d="M16.6948,46 C13.3168,46 10.0628,44.989 7.2728,43.077 C7.2228,43.047 7.1738,43.016 7.1268,42.982 C6.8038,42.757 6.4908,42.519 6.1858,42.271 C6.0788,42.184 5.9788,42.096 5.8788,42.008 L5.7868,41.928 C5.5658,41.737 5.3448,41.537 5.1308,41.331 C4.9928,41.198 4.8538,41.063 4.7178,40.924 C4.4768,40.675 4.2428,40.416 4.0178,40.152 C3.8738,39.984 3.7388,39.818 3.6058,39.65 C3.4028,39.395 3.2038,39.13 3.0148,38.86 C2.8978,38.692 2.7888,38.528 2.6828,38.363 C2.5248,38.119 2.3718,37.866 2.2238,37.61 L2.1628,37.507 C2.0918,37.386 2.0228,37.266 1.9568,37.142 C1.7778,36.807 1.6068,36.458 1.4478,36.104 C1.4268,36.056 1.3888,35.96 1.3888,35.96 C1.2308,35.594 1.0878,35.212 0.9518,34.826 L0.9208,34.742 C0.8818,34.641 0.8438,34.539 0.8108,34.436 C0.6788,34.024 0.5708,33.607 0.4698,33.187 C0.4198,33.001 0.3918,32.893 0.3678,32.782 C0.2758,32.345 0.2108,31.907 0.1538,31.468 C0.1248,31.294 0.1068,31.18 0.0938,31.063 C0.0318,30.467 -0.0002,29.876 -0.0002,29.305 C-0.0002,29.271 0.0028,29.177 0.0038,29.167 C0.0038,29.117 0.0078,29.022 0.0168,28.929 C0.0248,28.43 0.0548,27.933 0.1058,27.47 C0.1188,27.345 0.1378,27.222 0.1588,27.099 L0.1738,27.004 C0.2338,26.579 0.2988,26.159 0.3888,25.748 C0.4178,25.613 0.4518,25.484 0.4868,25.355 L0.5178,25.237 C0.6138,24.852 0.7178,24.466 0.8428,24.086 C0.8868,23.953 0.9338,23.825 0.9828,23.696 L1.0278,23.579 C1.1528,23.233 1.2868,22.888 1.4358,22.55 C1.4668,22.469 1.4978,22.394 1.5318,22.319 C1.5378,22.307 1.5438,22.295 1.5498,22.282 C1.6348,22.1 1.7278,21.92 1.8208,21.74 L1.8648,21.657 C1.9638,21.465 2.0638,21.276 2.1698,21.09 C2.3418,20.784 2.5258,20.481 2.7188,20.186 C2.8248,20.024 2.9328,19.868 3.0418,19.712 C3.2198,19.46 3.4028,19.218 3.5908,18.979 L3.6678,18.879 C3.7428,18.782 3.8188,18.685 3.8988,18.59 C4.1718,18.264 4.4618,17.946 4.7618,17.639 C4.8598,17.538 4.9588,17.442 5.0588,17.348 L5.1368,17.273 C5.3628,17.057 5.5898,16.85 5.8228,16.648 L5.8918,16.59 C5.9978,16.499 6.1028,16.408 6.2118,16.32 C6.2148,16.317 6.2178,16.313 6.2218,16.312 L6.1548,12.566 C6.1398,11.692 6.5908,10.876 7.3408,10.426 C7.7288,10.192 8.1658,10.075 8.6028,10.075 C9.0098,10.075 9.4188,10.177 9.7878,10.381 L12.2188,11.727 L14.8098,2.324 C15.1038,1.26 16.0718,0.526 17.1688,0.526 C17.1988,0.526 17.2288,0.527 17.2588,0.528 C18.3918,0.569 19.3488,1.384 19.5698,2.496 L21.3828,11.605 L23.5948,10.381 C23.9648,10.177 24.3728,10.075 24.7808,10.075 C25.2178,10.075 25.6548,10.192 26.0428,10.426 C26.7918,10.876 27.2438,11.692 27.2278,12.566 L27.1608,16.299 C31.0848,19.457 33.3898,24.225 33.3898,29.305 C33.3898,38.511 25.9008,46 16.6948,46" id="Fill-1" fill="#FEFEFE" mask="url(#mask-3)"></path>
            </g>
            <path d="M30.9423,29.7783 C30.9423,37.6473 24.5633,44.0253 16.6943,44.0253 C8.8263,44.0253 2.4473,37.6473 2.4473,29.7783 C2.4473,21.9103 8.8263,15.5313 16.6943,15.5313 C24.5633,15.5313 30.9423,21.9103 30.9423,29.7783" id="Fill-4" fill="#EDE7DA"></path>
            <path d="M14.4135,24.8017 C14.4135,25.8487 13.8935,26.6977 13.2525,26.6977 C12.6115,26.6977 12.0915,25.8487 12.0915,24.8017 C12.0915,23.7547 12.6115,22.9067 13.2525,22.9067 C13.8935,22.9067 14.4135,23.7547 14.4135,24.8017" id="Fill-6" fill="#040505"></path>
            <path d="M21.2988,24.8017 C21.2988,25.8487 20.7788,26.6977 20.1378,26.6977 C19.4968,26.6977 18.9768,25.8487 18.9768,24.8017 C18.9768,23.7547 19.4968,22.9067 20.1378,22.9067 C20.7788,22.9067 21.2988,23.7547 21.2988,24.8017" id="Fill-8" fill="#040505"></path>
            <polygon id="Fill-10" fill="#EDE7DA" points="11.2294 17.3642 8.7074 18.8822 8.6554 15.9382 8.6024 12.9962 11.1774 14.4222 13.7514 15.8472"></polygon>
            <polygon id="Fill-12" fill="#EDE7DA" points="22.1528 17.3642 24.6748 18.8822 24.7278 15.9382 24.7798 12.9962 22.2058 14.4222 19.6308 15.8472"></polygon>
            <polygon id="Fill-14" fill="#F29123" points="16.6953 15.8486 13.7523 15.8486 17.1703 3.4486 19.6383 15.8496"></polygon>
            <path d="M3.7509,23.8271 L8.6029,23.8271 L8.6029,18.0551 C6.5099,19.5021 4.8259,21.4941 3.7509,23.8271" id="Fill-16" fill="#E72729"></path>
            <path d="M2.4501,29.7021 L8.6021,29.7021 L8.6021,23.8271 L3.7511,23.8271 C2.9271,25.6161 2.4611,27.6041 2.4501,29.7021" id="Fill-18" fill="#F5EB21"></path>
            <path d="M3.7509,23.8271 L8.6029,23.8271 L3.7509,23.8271 Z" id="Fill-20" fill="#F5EB21"></path>
            <path d="M2.4477,29.7783 C2.4477,31.8433 2.8907,33.8043 3.6817,35.5763 L8.6027,35.5763 L8.6027,29.7023 L2.4497,29.7023 C2.4497,29.7273 2.4477,29.7533 2.4477,29.7783" id="Fill-22" fill="#8CC240"></path>
            <path d="M2.4501,29.7021 L8.6021,29.7021 L2.4501,29.7021 Z" id="Fill-24" fill="#8CC240"></path>
            <path d="M8.6025,35.5771 L3.6815,35.5771 C4.7405,37.9481 6.4265,39.9761 8.5305,41.4511 L8.6025,41.4511 L8.6025,35.5771 Z" id="Fill-26" fill="#1273B7"></path>
            <path d="M3.6821,35.5771 L8.6021,35.5771 L3.6821,35.5771 Z" id="Fill-28" fill="#1273B7"></path>
        </g>
    </g>
</svg>