<?xml version="1.0" encoding="UTF-8"?>
<svg width="34px" height="34px" viewBox="0 0 34 34" version="1.1" xmlns="http://www.w3.org/2000/svg" xmlns:xlink="http://www.w3.org/1999/xlink">
    <!-- Generator: Sketch 52.6 (67491) - http://www.bohemiancoding.com/sketch -->
    <title>Icon/close</title>
    <desc>Created with Sketch.</desc>
    <g id="Page-2" stroke="none" stroke-width="1" fill="none" fill-rule="evenodd">
        <g id="Student-page-create-new" transform="translate(-1282.000000, -315.000000)" fill="#4A4A4A">
            <g id="Icon/close" transform="translate(1280.000000, 313.000000)">
                <g id="Group-5" transform="translate(2.780488, 2.780488)">
                    <path d="M27.1144859,32.4390244 C25.7514041,32.4390244 24.3892904,31.9191442 23.3495532,30.8793838 L1.55960571,9.08894853 C-0.519868572,7.0094277 -0.519868572,3.63843537 1.55960571,1.55891453 C3.6381119,-0.519638178 7.00902879,-0.519638178 9.08947117,1.55891453 L30.8794187,23.3493498 C32.958893,25.4288706 32.958893,28.7998629 30.8794187,30.8793838 C29.8396815,31.9191442 28.4775678,32.4390244 27.1144859,32.4390244" id="Fill-1"></path>
                    <path d="M5.32453844,32.4390244 C3.9614566,32.4390244 2.59934286,31.91915 1.55960571,30.8794012 C-0.519868572,28.7999037 -0.519868572,25.4289491 1.55960571,23.3494515 L23.3495532,1.55926015 C25.4290275,-0.520237409 28.8009125,-0.5192693 30.8794187,1.55926015 C32.958893,3.63875771 32.958893,7.00971231 30.8794187,9.08920987 L9.08947117,30.8794012 C8.04973403,31.91915 6.68665219,32.4390244 5.32453844,32.4390244" id="Fill-3"></path>
                </g>
            </g>
        </g>
    </g>
</svg>