<?xml version="1.0" encoding="utf-8"?>
<!-- Generator: Adobe Illustrator 22.0.1, SVG Export Plug-In . SVG Version: 6.00 Build 0)  -->
<svg version="1.1" id="Layer_1" xmlns="http://www.w3.org/2000/svg" xmlns:xlink="http://www.w3.org/1999/xlink" x="0px" y="0px"
	 viewBox="0 0 183 49" style="enable-background:new 0 0 183 49;" xml:space="preserve">
<style type="text/css">
	.st0{enable-background:new    ;}
	.st1{fill:#4A4A4A;}
</style>
<title>Students</title>
<desc>Created with Sketch.</desc>
<g id="Page-2">
	<g id="Groups-page-select-group" transform="translate(-50.000000, -133.000000)">
		<g class="st0">
			<path class="st1" d="M52.3,158.1c1.8-0.7,3.4,0.3,4,1.6c0.7,1.4,2.2,2.9,5,2.9c2.7,0,4.5-1.3,4.5-3.3c0-1.4-0.6-2.6-3.7-3.5
				l-3.7-1c-6.8-2.1-8-6-8-8.8c0-5.5,4.7-9.3,10.7-9.3c4.5,0,7.8,1.9,9.4,5.2c0.8,1.5,0.1,2.9-1,3.6c-1.6,1-3.1,0.6-4.1-0.8
				c-1.3-1.7-3-2.2-4.4-2.2c-2.3,0-4,1.3-4,3.2c0,0.8,0.3,2.3,3.3,3.2L64,150c7.5,2.2,8.6,6.4,8.5,9.4c-0.1,6.2-5.7,9.1-11.2,9.1
				s-9.4-2.7-10.8-6.7C50.1,160.2,50.8,158.6,52.3,158.1z"/>
			<path class="st1" d="M86.7,147c1.3,0,2.2,1.1,2.2,2.5c0,1.3-1,2.4-2.2,2.5h-2.3v7.5c0,1.4,0.4,2.9,2.3,2.9c2.1,0,2.9,1.3,2.9,2.8
				s-1.1,2.8-3.1,2.8H86c-5.9,0-8-3.1-8-8.7v-7.4h-1.7c-1.3,0-2.2-1.2-2.2-2.5c0-1.4,1-2.5,2.2-2.5h1.8v-3.1c0-1.3,0.4-2.5,2.3-3
				l1.3-0.4c0.7-0.2,2.7-0.6,2.7,2.2v4.3L86.7,147L86.7,147z"/>
			<path class="st1" d="M101.1,168.4c-4.7,0-7.7-2.3-7.7-8.3v-10.5c0-1.6,1.4-2.8,3.1-2.8s3.1,1.3,3.1,2.8v8.6c0,2.8,1,4.1,3.6,4.1
				c2.2,0,3.9-1,3.9-4.2v-8.6c0-1.6,1.4-2.8,3.1-2.8s3.1,1.3,3.1,2.8v15.9c0,1.5-1.5,2.8-3.1,2.8c-1.7,0-3.1-1.2-3.1-2.8v-0.5
				C106,167.1,103.6,168.4,101.1,168.4z"/>
			<path class="st1" d="M134.3,138.1c0-1.5,1.5-2.8,3.1-2.8c1.7,0,3.1,1.2,3.1,2.8v27.3c0,1.6-1.4,2.8-3.1,2.8
				c-1.7,0-3.1-1.3-3.1-2.8V165c-1.4,2.2-3.9,3.4-6.3,3.4c-5.4,0-10.2-4-10.2-10.9c0-7,4.9-10.9,10.2-10.9c1.4,0,4.5,0.6,6.3,3.4
				V138.1z M129.2,162.8c2.8,0,5.1-2.5,5.1-5.3s-2.3-5.3-5.1-5.3c-3.1,0-4.9,2.5-4.9,5.3S126.1,162.8,129.2,162.8z"/>
			<path class="st1" d="M163.2,166.5c-2.1,1.4-4.8,1.9-7.2,1.9c-6,0-11-4.4-11-11s4.9-10.8,11-10.8c6,0,10.8,4.4,10.8,11
				c0,1.1-0.9,1.9-1.9,1.9h-13.5c0.3,2.4,3,3.5,5.2,3.5c1.3,0,2.3-0.1,3.6-1c1.4-1,3.1-0.7,4,0.3
				C165.2,163.7,164.7,165.6,163.2,166.5z M156,151.8c-2.3,0-4.1,1.2-4.7,3.8h9.1C160.1,153.1,158.3,151.8,156,151.8z"/>
			<path class="st1" d="M182.8,146.5c4.7,0,7.7,2.9,7.7,8.9v10c0,1.6-1.4,2.8-3.2,2.8c-1.7,0-3.1-1.3-3.2-2.8v-8.6
				c0-2.8-1.5-4.2-3.6-4.2c-2.2,0-3.9,1.1-3.9,4.3v8.5c0,1.6-1.4,2.8-3.2,2.8c-1.7,0-3.1-1.3-3.2-2.8v-15.9c0-1.5,1.5-2.8,3.2-2.8
				s3.2,1.2,3.2,2.8v0.5C177.9,147.9,180.4,146.5,182.8,146.5z"/>
			<path class="st1" d="M206.2,147c1.3,0,2.2,1.1,2.2,2.5c0,1.3-1,2.4-2.2,2.5h-2.3v7.5c0,1.4,0.4,2.9,2.3,2.9
				c2.1,0,2.9,1.3,2.9,2.8S208,168,206,168h-0.5c-5.9,0-8-3.1-8-8.7v-7.4h-1.8c-1.3,0-2.2-1.2-2.2-2.5c0-1.4,1-2.5,2.2-2.5h1.8v-3.1
				c0-1.3,0.4-2.5,2.3-3l1.3-0.4c0.7-0.2,2.7-0.6,2.7,2.2v4.3L206.2,147L206.2,147z"/>
			<path class="st1" d="M213.2,160.8c1.4-0.6,2.7,0,3.4,0.8c1.1,1.2,2.5,1.8,4,1.8c1.4,0,2.7-0.2,2.7-1.3c0-0.9-0.5-1.2-2.1-1.7
				l-2.4-0.9c-6.3-2.1-6.3-5.1-6.3-7c0-3.1,3.7-6,8.1-6c3,0,6.1,0.9,7.6,3.5c0.8,1.3,0.4,2.7-0.5,3.2c-1.4,0.8-2.7,0.5-4-0.5
				c-0.9-0.7-1.7-0.9-2.5-0.9c-1.3,0-2.3,0.5-2.3,1.3c0,0.7,0.5,1.1,1.8,1.5l3.2,1.1c5.1,1.7,5.7,5,5.7,6.3c0,4.5-4.7,6.6-9.1,6.6
				c-3.4,0-7.3-1.4-8.4-4.5C211.6,162.6,212.1,161.3,213.2,160.8z"/>
		</g>
	</g>
</g>
</svg>
