<?xml version="1.0" encoding="UTF-8"?>
<svg width="48px" height="48px" viewBox="0 0 48 48" version="1.1" xmlns="http://www.w3.org/2000/svg" xmlns:xlink="http://www.w3.org/1999/xlink">
    <!-- Generator: Sketch 55.1 (78136) - https://sketchapp.com -->
    <title>pause</title>
    <desc>Created with Sketch.</desc>
    <defs>
        <polygon id="path-1" points="0 0.0002 48 0.0002 48 48 0 48"></polygon>
    </defs>
    <g id="Page-2" stroke="none" stroke-width="1" fill="none" fill-rule="evenodd">
        <g id="Student-page-timer-Copy" transform="translate(-999.000000, -812.000000)">
            <g id="pause" transform="translate(999.000000, 812.000000)">
                <g id="Group-3">
                    <g id="Fill-1-Clipped">
                        <mask id="mask-2" fill="white">
                            <use xlink:href="#path-1"></use>
                        </mask>
                        <g id="path-1"></g>
                        <path d="M24,0.0002 C37.255,0.0002 48,10.7452 48,24.0002 C48,37.2552 37.255,48.0002 24,48.0002 C10.745,48.0002 0,37.2552 0,24.0002 C0,10.7452 10.745,0.0002 24,0.0002" id="Fill-1" fill="#C1D357" fill-rule="nonzero" mask="url(#mask-2)"></path>
                    </g>
                </g>
                <path d="M19.2002,14.4001 C17.2202,14.4001 15.6002,16.0201 15.6002,18.0001 L15.6002,30.0001 C15.6002,31.9801 17.2202,33.6001 19.2002,33.6001 C21.1802,33.6001 22.8002,31.9801 22.8002,30.0001 L22.8002,18.0001 C22.8002,16.0201 21.1802,14.4001 19.2002,14.4001" id="Fill-4" fill="#67752B" fill-rule="nonzero"></path>
                <path d="M28.7998,14.4001 C26.8198,14.4001 25.1998,16.0201 25.1998,18.0001 L25.1998,30.0001 C25.1998,31.9801 26.8198,33.6001 28.7998,33.6001 C30.7798,33.6001 32.3998,31.9801 32.3998,30.0001 L32.3998,18.0001 C32.3998,16.0201 30.7798,14.4001 28.7998,14.4001" id="Fill-6" fill="#67752B" fill-rule="nonzero"></path>
            </g>
        </g>
    </g>
</svg>