<?xml version="1.0" encoding="UTF-8"?>
<svg width="48px" height="48px" viewBox="0 0 48 48" version="1.1" xmlns="http://www.w3.org/2000/svg" xmlns:xlink="http://www.w3.org/1999/xlink">
    <!-- Generator: Sketch 55.1 (78136) - https://sketchapp.com -->
    <title>reset</title>
    <desc>Created with Sketch.</desc>
    <defs>
        <polygon id="path-1" points="0.0002 0.0001 48 0.0001 48 48 0.0002 48"></polygon>
    </defs>
    <g id="Page-2" stroke="none" stroke-width="1" fill="none" fill-rule="evenodd">
        <g id="Student-page-timer-Copy" transform="translate(-999.000000, -735.000000)">
            <g id="reset" transform="translate(999.000000, 735.000000)">
                <g id="Group-3">
                    <mask id="mask-2" fill="white">
                        <use xlink:href="#path-1"></use>
                    </mask>
                    <g id="Clip-2"></g>
                    <path d="M24.0002,0.0001 C37.2552,0.0001 48.0002,10.7451 48.0002,24.0001 C48.0002,37.2551 37.2552,48.0001 24.0002,48.0001 C10.7442,48.0001 0.0002,37.2551 0.0002,24.0001 C0.0002,10.7451 10.7442,0.0001 24.0002,0.0001" id="Fill-1" fill="#C1D357" mask="url(#mask-2)"></path>
                </g>
                <g id="Group-8" transform="translate(13.000000, 9.000000)" fill="#67752B">
                    <path d="M11.0002,25.0719 C5.4462,25.0719 0.9282,20.5539 0.9282,14.9999 C0.9282,14.1109 1.6482,13.3909 2.5372,13.3909 C3.4262,13.3909 4.1462,14.1109 4.1462,14.9999 C4.1462,18.7789 7.2212,21.8529 11.0002,21.8529 C14.7782,21.8529 17.8532,18.7789 17.8532,14.9999 C17.8532,11.2209 14.7782,8.1469 11.0002,8.1469 C10.1112,8.1469 9.3912,7.4269 9.3912,6.5379 C9.3912,5.6489 10.1112,4.9279 11.0002,4.9279 C16.5542,4.9279 21.0712,9.4469 21.0712,14.9999 C21.0712,20.5539 16.5542,25.0719 11.0002,25.0719" id="Fill-4"></path>
                    <path d="M5.428,7.1246 L10.321,11.9126 C10.954,12.5336 12.023,12.0836 12.023,11.1966 L12.023,1.6206 C12.023,0.7336 10.954,0.2846 10.321,0.9046 L5.428,5.6926 C5.027,6.0856 5.027,6.7316 5.428,7.1246" id="Fill-6"></path>
                </g>
            </g>
        </g>
    </g>
</svg>