<?xml version="1.0" encoding="utf-8"?>
<!-- Generator: Adobe Illustrator 22.0.1, SVG Export Plug-In . SVG Version: 6.00 Build 0)  -->
<svg version="1.1" id="Layer_1" xmlns="http://www.w3.org/2000/svg" xmlns:xlink="http://www.w3.org/1999/xlink" x="0px" y="0px"
	 viewBox="0 0 141 43" style="enable-background:new 0 0 141 43;" xml:space="preserve">
<style type="text/css">
	.st0{enable-background:new    ;}
	.st1{fill:#4A4A4A;}
</style>
<title>Groups</title>
<desc>Created with Sketch.</desc>
<g id="Page-2">
	<g id="Groups-page-2-groups" transform="translate(-48.000000, -133.000000)">
		<g class="st0">
			<path class="st1" d="M74.1,147c1.4,0,2.5,0.4,3.1,1.1c0.6,0.7,0.9,1.8,0.9,3.2c0,2.2-0.3,4.2-1,6c-0.7,1.9-1.7,3.5-2.9,4.8
				c-1.3,1.4-2.8,2.4-4.6,3.2c-1.8,0.8-3.8,1.1-6.1,1.1c-2.3,0-4.4-0.4-6.3-1.3c-1.9-0.9-3.5-2-4.9-3.5s-2.4-3.2-3.2-5.2
				s-1.1-4.2-1.1-6.5s0.4-4.5,1.1-6.5c0.7-2,1.8-3.8,3.2-5.2c1.4-1.5,3-2.7,4.9-3.5c1.9-0.9,4-1.3,6.3-1.3c1.7,0,3.3,0.2,4.8,0.5
				c1.5,0.4,2.8,0.8,3.9,1.4c1.1,0.6,2,1.3,2.7,2c0.6,0.8,1,1.5,1,2.3c0,1-0.3,1.7-0.8,2.3s-1.2,0.9-2,0.9s-1.4-0.2-2-0.5
				c-0.5-0.3-1.1-0.7-1.8-1.1c-0.6-0.4-1.4-0.8-2.3-1.1s-2.1-0.5-3.6-0.5c-1.4,0-2.6,0.3-3.7,0.9c-1.1,0.6-1.9,1.3-2.6,2.3
				c-0.7,0.9-1.2,2-1.6,3.3c-0.4,1.3-0.5,2.6-0.5,3.9c0,1.4,0.2,2.7,0.5,3.9s0.9,2.3,1.6,3.3c0.7,0.9,1.6,1.7,2.6,2.3
				s2.3,0.9,3.7,0.9c0.9,0,1.8-0.1,2.7-0.4c0.9-0.3,1.7-0.7,2.5-1.2c0.7-0.6,1.3-1.3,1.8-2.2s0.7-2,0.7-3.3h-4.6
				c-0.9,0-1.7-0.3-2.3-0.9c-0.6-0.6-0.9-1.3-0.9-2.3s0.3-1.7,0.9-2.2s1.4-0.8,2.2-0.8L74.1,147L74.1,147z"/>
			<path class="st1" d="M80.5,145c0-1.1,0.4-1.9,1.1-2.4s1.5-0.8,2.3-0.8c0.9,0,1.6,0.2,2.2,0.6c0.6,0.4,0.9,1.1,0.9,2.1h0.1
				c0.6-0.9,1.3-1.6,2-2c0.7-0.5,1.6-0.7,2.6-0.7c0.8,0,1.5,0.3,2.2,0.9c0.7,0.6,1,1.4,1,2.6c0,0.5-0.1,1-0.3,1.3
				c-0.2,0.3-0.5,0.6-0.9,0.8s-0.8,0.4-1.2,0.6c-0.5,0.2-0.9,0.4-1.4,0.6c-0.5,0.2-1,0.5-1.4,0.7c-0.5,0.2-0.9,0.5-1.3,0.8
				s-0.7,0.7-0.9,1.2c-0.2,0.4-0.3,1-0.3,1.6v9.9c0,1.1-0.3,2-0.9,2.6c-0.6,0.7-1.4,1-2.3,1c-1,0-1.7-0.3-2.3-1s-0.9-1.5-0.9-2.6
				V145H80.5z"/>
			<path class="st1" d="M106.3,141.5c1.7,0,3.3,0.3,4.7,1c1.4,0.7,2.6,1.6,3.7,2.8c1,1.2,1.8,2.5,2.4,4s0.9,3.1,0.9,4.7
				c0,1.7-0.3,3.3-0.8,4.8c-0.6,1.5-1.3,2.8-2.4,4c-1,1.1-2.2,2-3.7,2.7c-1.4,0.7-3,1-4.7,1s-3.3-0.3-4.7-1
				c-1.4-0.7-2.6-1.6-3.7-2.7c-1-1.1-1.8-2.5-2.4-4s-0.8-3.1-0.8-4.8c0-1.6,0.3-3.2,0.9-4.7s1.4-2.8,2.4-4s2.2-2.1,3.7-2.8
				C103,141.9,104.6,141.5,106.3,141.5z M106.3,147.5c-0.9,0-1.7,0.2-2.3,0.6c-0.6,0.4-1.2,0.9-1.6,1.6c-0.4,0.6-0.7,1.3-0.9,2.1
				c-0.2,0.8-0.3,1.6-0.3,2.3s0.1,1.6,0.3,2.3c0.2,0.8,0.5,1.5,0.9,2.1s1,1.1,1.6,1.5s1.4,0.6,2.3,0.6s1.6-0.2,2.3-0.6
				c0.6-0.4,1.2-0.9,1.6-1.5s0.7-1.3,0.9-2.1c0.2-0.8,0.3-1.6,0.3-2.3s-0.1-1.6-0.3-2.3c-0.2-0.8-0.5-1.5-0.9-2.1s-1-1.1-1.6-1.6
				C107.9,147.7,107.2,147.5,106.3,147.5z"/>
			<path class="st1" d="M142,162.9c0,1.1-0.3,2-0.9,2.6c-0.6,0.7-1.4,1-2.3,1c-1.1,0-2-0.5-2.7-1.4c-1.4,1-3,1.4-4.8,1.4
				c-3.5,0-6.1-0.8-7.9-2.5s-2.7-4-2.7-6.9v-11.7c0-1.1,0.3-1.9,0.9-2.6c0.6-0.7,1.4-1,2.3-1c1,0,1.7,0.3,2.3,1s0.9,1.5,0.9,2.6V157
				c0,1.3,0.4,2.4,1.3,3.1c0.9,0.7,1.8,1.1,2.9,1.1c1.1,0,2-0.4,2.9-1.1c0.9-0.7,1.3-1.8,1.3-3.1v-4.5v-7.1c0-1.1,0.3-1.9,0.9-2.6
				c0.6-0.7,1.4-1,2.3-1c0.9,0,1.7,0.3,2.3,1s0.9,1.5,0.9,2.6v17.5H142z"/>
			<path class="st1" d="M145.6,145.4c0-1.1,0.3-1.9,0.9-2.6c0.6-0.7,1.4-1,2.3-1s1.6,0.2,2.1,0.7s0.9,1.1,1.1,2
				c0.6-1,1.5-1.7,2.6-2.2s2.3-0.7,3.6-0.7c1.7,0,3.3,0.4,4.6,1.1c1.3,0.8,2.4,1.7,3.3,2.9c0.9,1.2,1.5,2.6,2,4.1
				c0.4,1.5,0.7,3.1,0.7,4.7c0,1.5-0.2,3-0.7,4.5s-1.2,2.8-2.1,3.9c-0.9,1.2-2.1,2.1-3.4,2.8s-2.8,1-4.4,1c-1,0-2-0.2-3.1-0.6
				s-2-0.9-2.9-1.7v7.9c0,1.1-0.3,2-0.9,2.6c-0.6,0.7-1.4,1-2.3,1c-1,0-1.7-0.3-2.3-1s-0.9-1.5-0.9-2.6v-26.8H145.6z M152.1,153.8
				c0,0.8,0.1,1.6,0.3,2.4c0.2,0.8,0.5,1.5,0.9,2.2c0.4,0.6,0.9,1.2,1.6,1.6c0.6,0.4,1.4,0.6,2.3,0.6c0.8,0,1.6-0.2,2.2-0.6
				c0.6-0.4,1.2-0.9,1.6-1.5c0.4-0.6,0.7-1.3,0.9-2.1c0.2-0.8,0.3-1.5,0.3-2.3s-0.1-1.5-0.3-2.3c-0.2-0.8-0.5-1.5-0.9-2.1
				s-0.9-1.1-1.6-1.6c-0.6-0.4-1.4-0.6-2.2-0.6c-0.9,0-1.6,0.2-2.2,0.6c-0.6,0.4-1.2,0.9-1.6,1.5c-0.4,0.6-0.7,1.3-0.9,2
				C152.2,152.3,152.1,153.1,152.1,153.8z"/>
			<path class="st1" d="M187.8,146.2c0,0.8-0.2,1.4-0.7,2s-1.1,0.9-1.9,0.9c-0.3,0-0.7-0.1-1.1-0.3s-0.9-0.4-1.4-0.7
				c-0.5-0.2-1-0.5-1.6-0.7s-1.1-0.3-1.6-0.3c-0.6,0-1.1,0.1-1.6,0.4c-0.4,0.3-0.7,0.7-0.7,1.4c0,0.5,0.3,0.9,0.8,1.3
				c0.6,0.3,1.3,0.7,2.1,1c0.8,0.3,1.7,0.7,2.7,1.1s1.9,0.8,2.7,1.4c0.8,0.6,1.5,1.3,2.1,2.1s0.8,1.9,0.8,3.1c0,1.1-0.2,2.1-0.7,3
				c-0.4,0.9-1.1,1.7-1.9,2.4c-0.8,0.7-1.8,1.2-2.9,1.6c-1.1,0.4-2.4,0.6-3.8,0.6c-0.9,0-1.9-0.1-2.9-0.4c-1.1-0.2-2-0.6-2.9-1
				s-1.7-1-2.2-1.6c-0.6-0.6-0.9-1.3-0.9-2c0-0.2,0.1-0.5,0.2-0.9c0.1-0.3,0.3-0.6,0.5-0.9c0.2-0.3,0.5-0.6,0.9-0.8
				c0.3-0.2,0.7-0.3,1.2-0.3c0.6,0,1.2,0.1,1.7,0.3s1,0.5,1.5,0.8s1,0.5,1.6,0.8c0.6,0.2,1.2,0.3,2,0.3c1,0,1.7-0.2,2-0.5
				c0.4-0.3,0.5-0.8,0.5-1.4c0-0.5-0.3-0.9-0.8-1.2c-0.6-0.3-1.3-0.7-2.1-1c-0.8-0.3-1.7-0.7-2.7-1.1s-1.9-0.8-2.7-1.4
				c-0.8-0.6-1.5-1.3-2.1-2.1s-0.8-1.9-0.8-3.1c0-1.1,0.2-2.1,0.7-3.1c0.4-0.9,1-1.7,1.8-2.4c0.8-0.7,1.7-1.2,2.8-1.6
				c1.1-0.4,2.2-0.5,3.5-0.5c0.8,0,1.7,0.1,2.6,0.3c0.9,0.2,1.8,0.5,2.6,0.9c0.8,0.4,1.5,0.9,2,1.4S187.8,145.4,187.8,146.2z"/>
		</g>
	</g>
</g>
</svg>
