<?xml version="1.0" encoding="utf-8"?>
<!-- Generator: Adobe Illustrator 22.1.0, SVG Export Plug-In . SVG Version: 6.00 Build 0)  -->
<svg version="1.1" id="图层_1" xmlns="http://www.w3.org/2000/svg" xmlns:xlink="http://www.w3.org/1999/xlink" x="0px" y="0px"
	 viewBox="0 0 360 248" style="enable-background:new 0 0 360 248;" xml:space="preserve">
<style type="text/css">
	.st0{filter:url(#filter-2);}
	.st1{fill:#E7E7E7;}
	.st2{fill:#4A4A4A;}
</style>
<filter  filterUnits="objectBoundingBox" height="108.5%" id="filter-2" width="105.8%" x="-2.9%" y="-3.0%">
	<feOffset  dx="0" dy="3" in="SourceAlpha" result="shadowOffsetOuter1"></feOffset>
	<feGaussianBlur  in="shadowOffsetOuter1" result="shadowBlurOuter1" stdDeviation="3"></feGaussianBlur>
	<feColorMatrix  in="shadowBlurOuter1" type="matrix" values="0 0 0 0 0   0 0 0 0 0   0 0 0 0 0  0 0 0 0.3 0"></feColorMatrix>
</filter>
<title>card/create new</title>
<desc>Created with Sketch.</desc>
<g id="Page-2">
	<g id="Student-page" transform="translate(-157.000000, -200.000000)">
		<g id="card_x2F_create-new" transform="translate(163.000000, 203.000000)">
			<g id="Rectangle-2-Copy-31">
				<g class="st0">
					<path id="path-1_2_" d="M4-3h340c5.5,0,10,4.5,10,10v228c0,5.5-4.5,10-10,10H4c-5.5,0-10-4.5-10-10V7C-6,1.5-1.5-3,4-3z"/>
				</g>
				<g>
					<path id="path-1_1_" class="st1" d="M4-3h340c5.5,0,10,4.5,10,10v228c0,5.5-4.5,10-10,10H4c-5.5,0-10-4.5-10-10V7
						C-6,1.5-1.5-3,4-3z"/>
				</g>
			</g>
			
				<g transform="translate(179.500000, 124.500000) rotate(45.000000) translate(-179.500000, -124.500000) translate(164.000000, 109.000000)">
				<path id="Fill-1" class="st2" d="M19.5,33.1c-1.3,0-2.6-0.5-3.6-1.5L-4.9,10.8c-2-2-2-5.2,0-7.2c2-2,5.2-2,7.2,0l20.8,20.8
					c2,2,2,5.2,0,7.2C22.2,32.6,20.9,33.1,19.5,33.1"/>
				<path id="Fill-3" class="st2" d="M-1.3,33.1c-1.3,0-2.6-0.5-3.6-1.5c-2-2-2-5.2,0-7.2L15.9,3.6c2-2,5.2-2,7.2,0c2,2,2,5.2,0,7.2
					L2.3,31.6C1.3,32.6,0,33.1-1.3,33.1"/>
			</g>
		</g>
	</g>
</g>
</svg>
