<?xml version="1.0" encoding="UTF-8"?>
<svg width="35px" height="36px" viewBox="0 0 35 36" version="1.1" xmlns="http://www.w3.org/2000/svg" xmlns:xlink="http://www.w3.org/1999/xlink">
    <!-- Generator: Sketch 52.4 (67378) - http://www.bohemiancoding.com/sketch -->
    <title>icon / eraser copy</title>
    <desc>Created with Sketch.</desc>
    <g id="Page-2" stroke="none" stroke-width="1" fill="none" fill-rule="evenodd">
        <g id="icon-/-eraser" transform="translate(0.000000, -2.000000)" fill="#4A4A4A">
            <path d="M31.7338552,18.4842845 L21.5753757,28.6468022 L8.92981151,15.99516 L19.088291,5.83264219 C19.563428,5.35643248 20.1946934,5.09553035 20.8664679,5.09553035 C21.5382424,5.09553035 22.1703519,5.35727682 22.6454888,5.83264219 L31.7338552,14.9245325 C32.7145109,15.9056596 32.7145109,17.5031574 31.7338552,18.4842845 M12.3553551,34.3131911 L3.26698878,25.2213009 C2.28548911,24.2393294 2.28548911,22.642676 3.26614485,21.6615489 L7.13981941,17.7860124 L19.7853836,30.4376547 L15.912553,34.3131911 C15.763176,34.4626399 15.5927005,34.5800037 15.4137857,34.6830136 C15.3125132,34.7201647 15.2163043,34.7666036 15.1293787,34.8273963 C14.2103304,35.2065065 13.0786098,35.0384822 12.3553551,34.3131911 M33.5238473,13.13368 L24.4354809,4.04178973 C23.4826752,3.08768163 22.2150806,2.5625 20.8664679,2.5625 C19.5178553,2.5625 18.2511047,3.08768163 17.2982989,4.04178973 L1.47530881,19.8706964 C-0.491910236,21.8397053 -0.491910236,25.0431444 1.47615274,27.0121533 L10.565363,36.1040436 C11.5181688,37.0581517 12.7857634,37.5833333 14.1335321,37.5833333 C14.8626943,37.5833333 15.5656945,37.4254411 16.210463,37.1332983 L31.0654564,37.1332983 C31.7650809,37.1332983 32.3313631,36.5658995 32.3313631,35.8667831 C32.3313631,35.1676667 31.7650809,34.6002679 31.0654564,34.6002679 L19.2055983,34.6002679 L33.5246912,20.2751369 C35.4919102,18.306128 35.4919102,15.1026889 33.5238473,13.13368" id="Fill-1"></path>
        </g>
    </g>
</svg>