<?xml version="1.0" encoding="utf-8"?>
<!-- Generator: Adobe Illustrator 22.0.1, SVG Export Plug-In . SVG Version: 6.00 Build 0)  -->
<svg version="1.1" id="Layer_1" xmlns="http://www.w3.org/2000/svg" xmlns:xlink="http://www.w3.org/1999/xlink" x="0px" y="0px"
	 viewBox="0 0 362 330" style="enable-background:new 0 0 362 330;" xml:space="preserve">
<style type="text/css">
	.st0{filter:url(#filter-2);}
	.st1{fill:#FFFFFF;}
	.st2{fill:none;stroke:#E7E7E7;stroke-width:10;stroke-linecap:square;}
	.st3{enable-background:new    ;}
	.st4{fill:#4A4A4A;}
</style>
<filter  filterUnits="objectBoundingBox" height="108.1%" id="filter-2" width="106.0%" x="-3.0%" y="-2.9%">
	<feOffset  dx="0" dy="3" in="SourceAlpha" result="shadowOffsetOuter1"></feOffset>
	<feGaussianBlur  in="shadowOffsetOuter1" result="shadowBlurOuter1" stdDeviation="3"></feGaussianBlur>
	<feColorMatrix  in="shadowBlurOuter1" type="matrix" values="0 0 0 0 0   0 0 0 0 0   0 0 0 0 0  0 0 0 0.3 0"></feColorMatrix>
</filter>
<title>Group 4</title>
<desc>Created with Sketch.</desc>
<g id="Page-2">
	<g id="Groups-page-2-groups" transform="translate(-1245.000000, -407.000000)">
		<g id="Group-popup" transform="translate(203.000000, 241.000000)">
			<g id="Group-4" transform="translate(1048.000000, 169.000000)">
				<g id="Rectangle-2-Copy-46">
					<g class="st0">
						<path id="path-1_2_" d="M10,0h330c5.5,0,10,4.5,10,10v240c0,5.5-4.5,10-10,10H10c-5.5,0-10-4.5-10-10V10C0,4.5,4.5,0,10,0z"/>
					</g>
					<g>
						<path id="path-1_1_" class="st1" d="M10,0h330c5.5,0,10,4.5,10,10v240c0,5.5-4.5,10-10,10H10c-5.5,0-10-4.5-10-10V10
							C0,4.5,4.5,0,10,0z"/>
					</g>
				</g>
				<path id="Line-Copy-3" class="st2" d="M175,5v250"/>
				<path id="Line-Copy-3_1_" class="st2" d="M345,130H5"/>
				<g class="st3">
					<path class="st4" d="M113,294c1.9,0,3.2,1.4,3.2,3.1v11.1h1.5c1.1,0,2,1,2,2.1c0,1.1-0.9,2.1-2,2.1h-1.5v3.4
						c0,1.3-1.2,2.3-2.6,2.3c-1.3,0-2.5-1.1-2.5-2.3v-3.4h-8.4c-1,0-1.8-0.6-1.8-1.6c0-0.8,0.4-1.3,0.7-1.8l8.2-13.1
						C110.6,294.7,111.4,294,113,294z M111.2,301l-4.5,7.2h4.5V301z"/>
					<path class="st4" d="M143.8,292.9c3.1,0,5.7,0.9,7.7,2.6c0.9,0.7,0.8,2.8-0.2,3.7c-0.9,0.8-2.3,0.8-3.2,0.2
						c-1.2-0.9-2.7-1.3-4.4-1.3c-4.2,0-7.5,3.4-7.5,7.6c0,4.2,3.3,7.6,7.5,7.6c3.2,0,5.2-1.3,6.3-4H145c-1.1,0-2.1-1-2.1-2.1
						c0-1.2,1-2.2,2.1-2.2h7.8c1.2,0,2.3,1,2.3,2.2v9c0,1.2-1.1,2.2-2.3,2.2c-1.3,0-2.3-1-2.3-2.2v-1.3c-1.4,2.2-3.7,3.5-6.7,3.5
						c-7.1,0-12.7-5.7-12.7-12.7C131.1,298.6,136.6,292.9,143.8,292.9z"/>
					<path class="st4" d="M171.2,303.6c-0.2,1.3-1.4,1.8-2.5,1.8l-1.2,0c-2.8,0-3.7,2.2-3.8,6.4v4.1c0,1.3-1.2,2.2-2.5,2.2
						c-1.3,0-2.5-1-2.5-2.2v-12.7c0-1.2,1.2-2.2,2.5-2.2c1.4,0,2.5,1,2.5,2.2v1.8c0.9-3.1,2.7-4.2,4.4-4.2
						C169.8,300.9,171.6,301.3,171.2,303.6z"/>
					<path class="st4" d="M172.4,309.5c0-5.3,3.9-8.7,8.8-8.7s8.9,3.4,8.9,8.7s-4,8.8-8.9,8.8S172.4,314.8,172.4,309.5z M185,309.5
						c0-2.3-1.7-3.8-3.8-3.8c-2.1,0-3.8,1.5-3.8,3.8c0,2.3,1.7,3.9,3.8,3.9C183.3,313.5,185,311.8,185,309.5z"/>
					<path class="st4" d="M199.5,318.3c-3.8,0-6.2-1.9-6.2-6.7v-8.4c0-1.3,1.2-2.2,2.5-2.2c1.3,0,2.5,1,2.5,2.2v6.9
						c0,2.2,0.8,3.3,2.9,3.3c1.8,0,3.1-0.8,3.1-3.4v-6.8c0-1.3,1.2-2.2,2.5-2.2c1.3,0,2.5,1,2.5,2.2v12.7c0,1.2-1.2,2.2-2.5,2.2
						c-1.4,0-2.5-1-2.5-2.2v-0.4C203.5,317.2,201.5,318.3,199.5,318.3z"/>
					<path class="st4" d="M223.8,300.9c4.3,0,8.2,3.1,8.2,8.7s-3.9,8.7-8.2,8.7c-1.9,0-4-0.9-5-2.7v8.4c0,1.2-1.2,2.2-2.5,2.2
						c-1.4,0-2.5-1-2.5-2.2v-20.7c0-1.3,1.2-2.2,2.5-2.2c1.3,0,2.5,1,2.5,2.2v0.3C220.2,301.3,222.8,300.9,223.8,300.9z
						 M222.9,305.4c-2.3,0-4.1,2-4.1,4.2c0,2.2,1.8,4.2,4.1,4.2c2.5,0,4-2,4-4.2C226.8,307.4,225.4,305.4,222.9,305.4z"/>
					<path class="st4" d="M235.6,312.2c1.1-0.5,2.2,0,2.7,0.6c0.9,1,2,1.5,3.2,1.5c1.1,0,2.2-0.2,2.2-1c0-0.7-0.4-1-1.7-1.4
						l-1.9-0.7c-5-1.7-5-4.1-5-5.6c0-2.5,3-4.8,6.5-4.8c2.4,0,4.9,0.8,6,2.8c0.6,1.1,0.3,2.1-0.4,2.6c-1.1,0.6-2.2,0.4-3.2-0.4
						c-0.7-0.5-1.4-0.8-2-0.8c-1.1,0-1.8,0.4-1.8,1c0,0.5,0.4,0.9,1.4,1.2l2.6,0.9c4.1,1.3,4.6,4,4.6,5c0,3.6-3.7,5.3-7.3,5.3
						c-2.7,0-5.9-1.1-6.7-3.6C234.3,313.7,234.8,312.6,235.6,312.2z"/>
				</g>
			</g>
		</g>
	</g>
</g>
</svg>
