<?xml version="1.0" encoding="utf-8"?>
<!-- Generator: Adobe Illustrator 22.0.1, SVG Export Plug-In . SVG Version: 6.00 Build 0)  -->
<svg version="1.1" id="Layer_1" xmlns="http://www.w3.org/2000/svg" xmlns:xlink="http://www.w3.org/1999/xlink" x="0px" y="0px"
	 viewBox="0 0 183 49" style="enable-background:new 0 0 183 49;" xml:space="preserve">
<style type="text/css">
	.st0{enable-background:new    ;}
	.st1{fill:#4A4A4A;}
</style>
<title>Groups</title>
<desc>Created with Sketch.</desc>
<g id="Page-2">
	<g id="Groups-page-2-groups" transform="translate(-49.000000, -134.000000)">
		<g class="st0">
			<path class="st1" d="M64.8,137.7c3.8,0,7.1,1.2,9.7,3.2c1.2,0.9,1,3.5-0.3,4.6c-1.2,1-2.8,1-4,0.2c-1.4-1.1-3.4-1.7-5.4-1.7
				c-5.2,0-9.3,4.3-9.3,9.5c0,5.2,4.1,9.5,9.3,9.5c4,0,6.5-1.6,7.9-5h-6.3c-1.4,0-2.7-1.3-2.7-2.7c0-1.5,1.2-2.7,2.7-2.7h9.7
				c1.5,0,2.8,1.3,2.9,2.7v11.3c0,1.4-1.4,2.7-2.9,2.7c-1.6,0-2.9-1.2-2.9-2.7v-1.5c-1.8,2.7-4.7,4.4-8.3,4.4
				c-8.9,0-15.9-7.1-15.9-15.8C48.9,144.8,55.9,137.7,64.8,137.7z"/>
			<path class="st1" d="M99.2,151.1c-0.2,1.6-1.7,2.3-3.1,2.3h-1.5c-3.5,0-4.7,2.7-4.8,8v5.2c0,1.6-1.4,2.8-3.1,2.8
				s-3.1-1.3-3.1-2.8v-15.9c0-1.5,1.5-2.8,3.1-2.8c1.7,0,3.1,1.2,3.1,2.8v2.3c1.2-3.9,3.4-5.3,5.5-5.3
				C97.4,147.7,99.6,148.2,99.2,151.1z"/>
			<path class="st1" d="M100.6,158.5c0-6.6,4.9-10.8,11-10.8s11.1,4.2,11.1,10.8s-4.9,11-11.1,11S100.6,165.1,100.6,158.5z
				 M116.4,158.5c0-2.8-2.2-4.8-4.8-4.8c-2.6,0-4.7,1.9-4.7,4.8c0,2.9,2.2,4.9,4.7,4.9C114.2,163.4,116.4,161.4,116.4,158.5z"/>
			<path class="st1" d="M134.5,169.5c-4.7,0-7.7-2.3-7.7-8.3v-10.5c0-1.6,1.4-2.8,3.1-2.8c1.7,0,3.1,1.3,3.2,2.8v8.6
				c0,2.8,1,4.1,3.6,4.1c2.2,0,3.9-1,3.9-4.2v-8.5c0-1.6,1.4-2.8,3.1-2.8c1.7,0,3.1,1.3,3.2,2.8v15.9c0,1.5-1.5,2.8-3.2,2.8
				s-3.1-1.2-3.1-2.8v-0.5C139.5,168.2,137,169.5,134.5,169.5z"/>
			<path class="st1" d="M164.9,147.7c5.4,0,10.2,3.9,10.2,10.9s-4.9,10.9-10.2,10.9c-2.4,0-5-1.2-6.3-3.4v10.4
				c0,1.5-1.5,2.8-3.1,2.8c-1.7,0-3.1-1.2-3.1-2.8v-25.9c0-1.6,1.4-2.8,3.1-2.8c1.7,0,3.1,1.3,3.1,2.8v0.4
				C160.4,148.3,163.6,147.7,164.9,147.7z M163.7,153.3c-2.8,0-5.1,2.5-5.1,5.3c0,2.8,2.3,5.3,5.1,5.3c3.1,0,4.9-2.5,4.9-5.3
				C168.6,155.8,166.8,153.3,163.7,153.3z"/>
			<path class="st1" d="M179.6,161.9c1.4-0.6,2.7,0,3.4,0.8c1.1,1.2,2.5,1.8,4,1.8c1.4,0,2.7-0.2,2.7-1.3c0-0.9-0.5-1.2-2.1-1.7
				l-2.4-0.9c-6.3-2.1-6.3-5.1-6.3-7c0-3.1,3.7-6,8.1-6c3,0,6.1,0.9,7.6,3.5c0.8,1.3,0.4,2.7-0.5,3.2c-1.4,0.8-2.7,0.5-4-0.5
				c-0.9-0.7-1.7-0.9-2.5-0.9c-1.3,0-2.3,0.5-2.3,1.3c0,0.7,0.5,1.1,1.8,1.5l3.2,1.1c5.1,1.7,5.7,5,5.7,6.3c0,4.5-4.7,6.6-9.1,6.6
				c-3.4,0-7.3-1.4-8.4-4.5C178,163.7,178.6,162.4,179.6,161.9z"/>
		</g>
	</g>
</g>
</svg>
