<?xml version="1.0" encoding="UTF-8"?>
<svg width="42px" height="56px" viewBox="0 0 42 56" version="1.1" xmlns="http://www.w3.org/2000/svg" xmlns:xlink="http://www.w3.org/1999/xlink">
    <!-- Generator: Sketch 52.4 (67378) - http://www.bohemiancoding.com/sketch -->
    <title>Group 18</title>
    <desc>Created with Sketch.</desc>
    <defs>
        <filter x="-34.3%" y="-24.0%" width="168.6%" height="148.0%" filterUnits="objectBoundingBox" id="filter-1">
            <feOffset dx="0" dy="2" in="SourceAlpha" result="shadowOffsetOuter1"></feOffset>
            <feGaussianBlur stdDeviation="2" in="shadowOffsetOuter1" result="shadowBlurOuter1"></feGaussianBlur>
            <feColorMatrix values="0 0 0 0 0.219607843   0 0 0 0 0.776470588   0 0 0 0 0.956862745  0 0 0 0.5 0" type="matrix" in="shadowBlurOuter1" result="shadowMatrixOuter1"></feColorMatrix>
            <feMerge>
                <feMergeNode in="shadowMatrixOuter1"></feMergeNode>
                <feMergeNode in="SourceGraphic"></feMergeNode>
            </feMerge>
        </filter>
        <polygon id="path-2" points="0 0.857 34.0698529 0.857 34.0698529 48.9998348 0 48.9998348"></polygon>
    </defs>
    <g id="Page-2" stroke="none" stroke-width="1" fill="none" fill-rule="evenodd">
        <g id="Group-18" filter="url(#filter-1)" transform="translate(4.000000, 1.000000)">
            <g id="Group-3" transform="translate(0.000000, 0.143400)">
                <mask id="mask-3" fill="white">
                    <use xlink:href="#path-2"></use>
                </mask>
                <g id="Clip-2"></g>
                <path d="M1.6336,6.8057 L2.7796,6.8057 C3.4626,6.8057 4.0506,6.3717 4.3086,5.7407 C5.4746,2.8787 8.2866,0.8567 11.5616,0.8567 C13.3556,0.8567 15.0136,1.4547 16.3376,2.4717 C16.8876,2.8937 17.6756,2.8937 18.2246,2.4717 C19.5496,1.4547 21.2066,0.8567 23.0006,0.8567 C26.2766,0.8567 29.0886,2.8787 30.2546,5.7407 C30.5116,6.3717 31.1006,6.8057 31.7826,6.8057 L32.4366,6.8057 C33.5856,6.8057 34.3756,7.9617 33.9556,9.0327 L18.7086,47.9627 C18.1696,49.3407 16.2226,49.3467 15.6746,47.9737 L0.1176,9.0427 C-0.3104,7.9707 0.4796,6.8057 1.6336,6.8057" id="Fill-1" fill="#FEFEFE" mask="url(#mask-3)"></path>
            </g>
            <path d="M2.8382,9.3964 C2.8792,9.7004 17.1762,45.3074 17.1762,45.3074 L31.2362,9.3964 L2.8382,9.3964 Z" id="Fill-4" fill="#A5D075"></path>
            <path d="M17.7255,18.397 C17.6165,18.397 17.5105,18.396 17.4035,18.395 C6.0495,18.23 3.0905,10.797 2.9705,10.48 C2.8485,10.161 3.0095,9.803 3.3285,9.682 C3.6495,9.559 4.0075,9.721 4.1285,10.04 C4.2385,10.323 6.9445,17.004 17.4215,17.156 C21.5335,17.215 27.0905,16.072 30.1385,10.28 C30.3315,9.913 30.4705,9.648 30.8545,9.633 C31.1905,9.612 31.4845,9.886 31.4975,10.227 C31.5045,10.399 31.4405,10.558 31.3315,10.675 C31.3065,10.719 31.2755,10.78 31.2345,10.857 C27.9735,17.054 22.1555,18.397 17.7255,18.397 Z" id="Fill-6" fill="#61B487"></path>
            <path d="M16.3953,8.828 C16.3953,11.497 14.2313,13.662 11.5623,13.662 C8.8923,13.662 6.7283,11.497 6.7283,8.828 C6.7283,6.158 8.8923,3.994 11.5623,3.994 C14.2313,3.994 16.3953,6.158 16.3953,8.828" id="Fill-8" fill="#FEFEFE"></path>
            <path d="M18.1668,8.828 C18.1668,11.497 20.3308,13.662 22.9998,13.662 C25.6698,13.662 27.8338,11.497 27.8338,8.828 C27.8338,6.158 25.6698,3.994 22.9998,3.994 C20.3308,3.994 18.1668,6.158 18.1668,8.828" id="Fill-10" fill="#FEFEFE"></path>
            <path d="M23.0003,13.1151 C20.6363,13.1151 18.7133,11.1911 18.7133,8.8281 C18.7133,6.4641 20.6363,4.5411 23.0003,4.5411 C25.3643,4.5411 27.2883,6.4641 27.2883,8.8281 C27.2883,11.1911 25.3643,13.1151 23.0003,13.1151 M11.5623,13.1151 C9.1983,13.1151 7.2743,11.1911 7.2743,8.8281 C7.2743,6.4641 9.1983,4.5411 11.5623,4.5411 C13.9263,4.5411 15.8493,6.4641 15.8493,8.8281 C15.8493,11.1911 13.9263,13.1151 11.5623,13.1151 M23.0003,3.4471 C20.2183,3.4471 17.9223,5.5701 17.6483,8.2811 L16.9143,8.2811 C16.6393,5.5701 14.3443,3.4471 11.5623,3.4471 C8.5953,3.4471 6.1813,5.8611 6.1813,8.8281 C6.1813,11.7951 8.5953,14.2081 11.5623,14.2081 C14.3443,14.2081 16.6393,12.0851 16.9143,9.3751 L17.6483,9.3751 C17.9223,12.0851 20.2183,14.2081 23.0003,14.2081 C25.9673,14.2081 28.3803,11.7951 28.3803,8.8281 C28.3803,5.8611 25.9673,3.4471 23.0003,3.4471" id="Fill-12" fill="#4EC0E1"></path>
            <path d="M15.3469,8.6649 C15.3469,9.7799 14.4429,10.6859 13.3269,10.6859 C12.2109,10.6859 11.3069,9.7799 11.3069,8.6649 C11.3069,7.5499 12.2109,6.6439 13.3269,6.6439 C14.4429,6.6439 15.3469,7.5499 15.3469,8.6649" id="Fill-14" fill="#59595B"></path>
            <path d="M19.2156,8.6649 C19.2156,9.7799 20.1196,10.6859 21.2356,10.6859 C22.3516,10.6859 23.2556,9.7799 23.2556,8.6649 C23.2556,7.5499 22.3516,6.6439 21.2356,6.6439 C20.1196,6.6439 19.2156,7.5499 19.2156,8.6649" id="Fill-16" fill="#59595B"></path>
        </g>
    </g>
</svg>