<?xml version="1.0" encoding="UTF-8"?>
<svg width="46px" height="46px" viewBox="0 0 46 46" version="1.1" xmlns="http://www.w3.org/2000/svg" xmlns:xlink="http://www.w3.org/1999/xlink">
    <!-- Generator: Sketch 52.4 (67378) - http://www.bohemiancoding.com/sketch -->
    <title>Group 14</title>
    <desc>Created with Sketch.</desc>
    <defs>
        <filter x="-31.6%" y="-31.6%" width="163.2%" height="163.2%" filterUnits="objectBoundingBox" id="filter-1">
            <feOffset dx="0" dy="2" in="SourceAlpha" result="shadowOffsetOuter1"></feOffset>
            <feGaussianBlur stdDeviation="2" in="shadowOffsetOuter1" result="shadowBlurOuter1"></feGaussianBlur>
            <feColorMatrix values="0 0 0 0 0.219607843   0 0 0 0 0.776470588   0 0 0 0 0.956862745  0 0 0 0.5 0" type="matrix" in="shadowBlurOuter1" result="shadowMatrixOuter1"></feColorMatrix>
            <feMerge>
                <feMergeNode in="shadowMatrixOuter1"></feMergeNode>
                <feMergeNode in="SourceGraphic"></feMergeNode>
            </feMerge>
        </filter>
        <polygon id="path-2" points="0 0 38 0 38 38 0 38"></polygon>
    </defs>
    <g id="Page-2" stroke="none" stroke-width="1" fill="none" fill-rule="evenodd">
        <g id="Group-14" filter="url(#filter-1)" transform="translate(4.000000, 2.000000)">
            <g id="Group-3">
                <mask id="mask-3" fill="white">
                    <use xlink:href="#path-2"></use>
                </mask>
                <g id="Clip-2"></g>
                <path d="M0,36.0353127 L0,1.96468733 C0,0.880179924 0.880202678,0 1.96473812,0 L36.0352619,0 C37.1207797,0 38,0.880179924 38,1.96468733 L38,36.0353127 C38,37.1198201 37.1207797,38 36.0352619,38 L1.96473812,38 C0.880202678,38 0,37.1198201 0,36.0353127" id="Fill-1" fill="#FEFEFE" mask="url(#mask-3)"></path>
            </g>
            <polygon id="Fill-4" fill="#69CBEC" points="2 36 36 36 36 2 2 2"></polygon>
            <path d="M10.9923,21.395 C6.7533,21.395 3.3053,17.947 3.3053,13.708 C3.3053,9.469 6.7533,6.02 10.9923,6.02 C15.2313,6.02 18.6793,9.469 18.6793,13.708 C18.6793,17.947 15.2313,21.395 10.9923,21.395" id="Fill-6" fill="#DAEFF0"></path>
            <path d="M10.9923,5.3579 C6.3813,5.3579 2.6423,9.0959 2.6423,13.7079 C2.6423,18.3189 6.3813,22.0569 10.9923,22.0569 C15.6033,22.0569 19.3413,18.3189 19.3413,13.7079 C19.3413,9.0959 15.6033,5.3579 10.9923,5.3579 M10.9923,6.6819 C14.8663,6.6819 18.0173,9.8339 18.0173,13.7079 C18.0173,17.5819 14.8663,20.7329 10.9923,20.7329 C7.1173,20.7329 3.9663,17.5819 3.9663,13.7079 C3.9663,9.8339 7.1173,6.6819 10.9923,6.6819" id="Fill-7" fill="#0A80C4"></path>
            <path d="M17.3062,13.769 C17.3062,15.12 16.2102,16.215 14.8592,16.215 C13.5082,16.215 12.4132,15.12 12.4132,13.769 C12.4132,12.417 13.5082,11.322 14.8592,11.322 C16.2102,11.322 17.3062,12.417 17.3062,13.769" id="Fill-8" fill="#59595B"></path>
            <path d="M27.6905,21.395 C23.4515,21.395 20.0035,17.947 20.0035,13.708 C20.0035,9.469 23.4515,6.02 27.6905,6.02 C31.9295,6.02 35.3775,9.469 35.3775,13.708 C35.3775,17.947 31.9295,21.395 27.6905,21.395" id="Fill-9" fill="#DAEFF0"></path>
            <path d="M27.6905,5.3579 C23.0795,5.3579 19.3415,9.0959 19.3415,13.7079 C19.3415,18.3189 23.0795,22.0569 27.6905,22.0569 C32.3015,22.0569 36.0395,18.3189 36.0395,13.7079 C36.0395,9.0959 32.3015,5.3579 27.6905,5.3579 M27.6905,6.6819 C31.5645,6.6819 34.7155,9.8339 34.7155,13.7079 C34.7155,17.5819 31.5645,20.7329 27.6905,20.7329 C23.8165,20.7329 20.6655,17.5819 20.6655,13.7079 C20.6655,9.8339 23.8165,6.6819 27.6905,6.6819" id="Fill-10" fill="#0A80C4"></path>
            <path d="M21.3766,13.769 C21.3766,15.12 22.4726,16.215 23.8226,16.215 C25.1746,16.215 26.2696,15.12 26.2696,13.769 C26.2696,12.417 25.1746,11.322 23.8226,11.322 C22.4726,11.322 21.3766,12.417 21.3766,13.769" id="Fill-11" fill="#59595B"></path>
            <path d="M19.8443,16.5767 L12.5433,16.5767 C12.5433,16.5767 19.8823,24.2677 19.8823,23.9157 C19.8823,23.5637 19.8443,16.5767 19.8443,16.5767" id="Fill-12" fill="#FACC11"></path>
            <path d="M16.8722,21.1274 C16.6882,21.1274 16.5232,20.9994 16.4842,20.8124 C16.4382,20.5984 16.5752,20.3884 16.7892,20.3424 C16.8972,20.3184 19.4092,19.7354 19.3782,16.8634 C19.3752,16.6454 19.5522,16.4654 19.7712,16.4624 L19.7752,16.4624 C19.9932,16.4624 20.1702,16.6384 20.1722,16.8564 C20.1922,18.6964 19.3162,19.7604 18.5792,20.3274 C17.7872,20.9374 16.9882,21.1114 16.9552,21.1184 C16.9272,21.1244 16.8992,21.1274 16.8722,21.1274" id="Fill-13" fill="#E79524"></path>
        </g>
    </g>
</svg>