<?xml version="1.0" encoding="UTF-8"?>
<svg width="50px" height="50px" viewBox="0 0 50 50" version="1.1" xmlns="http://www.w3.org/2000/svg" xmlns:xlink="http://www.w3.org/1999/xlink">
    <!-- Generator: Sketch 52.4 (67378) - http://www.bohemiancoding.com/sketch -->
    <title>ic_loupe copy 3</title>
    <desc>Created with Sketch.</desc>
    <g id="Page-2" stroke="none" stroke-width="1" fill="none" fill-rule="evenodd">
        <g id="icon-/-student-selected" fill="#2A7FE1">
            <path d="M25.0001,0 C11.1931,0 0.0001,11.192 0.0001,25 C0.0001,38.807 11.1931,50 25.0001,50 C38.8071,50 50.0001,38.807 50.0001,25 C50.0001,11.192 38.8071,0 25.0001,0 M25.0001,3 C37.1311,3 47.0001,12.869 47.0001,25 C47.0001,37.131 37.1311,47 25.0001,47 C12.8691,47 3.0001,37.131 3.0001,25 C3.0001,12.869 12.8691,3 25.0001,3" id="Fill-1"></path>
            <path d="M25.0001,7.9131 C20.1311,7.9131 16.1841,11.8601 16.1841,16.7291 C16.1841,21.5991 20.1311,25.5461 25.0001,25.5461 C29.8691,25.5461 33.8161,21.5991 33.8161,16.7291 C33.8161,11.8601 29.8691,7.9131 25.0001,7.9131 M25.0001,10.9131 C28.2071,10.9131 30.8161,13.5221 30.8161,16.7291 C30.8161,19.9361 28.2071,22.5461 25.0001,22.5461 C21.7921,22.5461 19.1841,19.9361 19.1841,16.7291 C19.1841,13.5221 21.7921,10.9131 25.0001,10.9131" id="Fill-4"></path>
            <path d="M38.1355,37.9409 C36.6545,31.9879 31.2715,27.6789 25.0005,27.6789 C18.7275,27.6789 13.3425,31.9899 11.8605,37.9639 C11.6465,38.8269 12.2745,39.6759 13.1575,39.7759 C13.9135,39.8629 14.5985,39.3669 14.7845,38.6299 C15.9515,34.0159 20.1315,30.6789 25.0005,30.6789 C29.8665,30.6789 34.0465,34.0129 35.2125,38.6079 C35.3995,39.3449 36.0845,39.8409 36.8395,39.7539 C37.7225,39.6519 38.3505,38.8039 38.1355,37.9409 Z" id="Fill-6"></path>
        </g>
    </g>
</svg>