<?xml version="1.0" encoding="UTF-8"?>
<svg width="778px" height="505px" viewBox="0 0 778 505" version="1.1" xmlns="http://www.w3.org/2000/svg" xmlns:xlink="http://www.w3.org/1999/xlink">
    <!-- Generator: Sketch 55.1 (78136) - https://sketchapp.com -->
    <title>characterlayer</title>
    <desc>Created with Sketch.</desc>
    <defs>
        <path d="M10.596,0 C5.074,0 0.596,4.478 0.596,10 L0.596,10 L0.596,530 C0.596,535.523 5.074,540 10.596,540 L10.596,540 L787.596,540 C793.119,540 797.597,535.523 797.597,530 L797.597,530 L797.597,10 C797.597,4.478 793.119,0 787.596,0 L787.596,0" id="path-1"></path>
        <path d="M10.596,0 C5.074,0 0.596,4.478 0.596,10 L0.596,10 L0.596,530 C0.596,535.523 5.074,540 10.596,540 L10.596,540 L787.596,540 C793.119,540 797.597,535.523 797.597,530 L797.597,530 L797.597,10 C797.597,4.478 793.119,0 787.596,0 L787.596,0" id="path-3"></path>
        <path d="M10.596,0 C5.074,0 0.596,4.478 0.596,10 L0.596,10 L0.596,530 C0.596,535.523 5.074,540 10.596,540 L10.596,540 L787.596,540 C793.119,540 797.597,535.523 797.597,530 L797.597,530 L797.597,10 C797.597,4.478 793.119,0 787.596,0 L787.596,0 L10.596,0 Z" id="path-5"></path>
        <path d="M10.596,0 C5.074,0 0.596,4.478 0.596,10 L0.596,10 L0.596,530 C0.596,535.523 5.074,540 10.596,540 L10.596,540 L787.596,540 C793.119,540 797.597,535.523 797.597,530 L797.597,530 L797.597,10 C797.597,4.478 793.119,0 787.596,0 L787.596,0 L10.596,0 Z" id="path-7"></path>
        <path d="M10.596,0 C5.074,0 0.596,4.478 0.596,10 L0.596,10 L0.596,530 C0.596,535.523 5.074,540 10.596,540 L10.596,540 L787.596,540 C793.119,540 797.597,535.523 797.597,530 L797.597,530 L797.597,10 C797.597,4.478 793.119,0 787.596,0 L787.596,0 L10.596,0 Z" id="path-9"></path>
        <path d="M10.596,0 C5.074,0 0.596,4.478 0.596,10 L0.596,10 L0.596,530 C0.596,535.523 5.074,540 10.596,540 L10.596,540 L787.596,540 C793.119,540 797.597,535.523 797.597,530 L797.597,530 L797.597,10 C797.597,4.478 793.119,0 787.596,0 L787.596,0 L10.596,0 Z" id="path-11"></path>
        <path d="M10.596,0 C5.074,0 0.596,4.478 0.596,10 L0.596,10 L0.596,530 C0.596,535.523 5.074,540 10.596,540 L10.596,540 L787.596,540 C793.119,540 797.597,535.523 797.597,530 L797.597,530 L797.597,10 C797.597,4.478 793.119,0 787.596,0 L787.596,0" id="path-13"></path>
        <path d="M10.596,0 C5.074,0 0.596,4.478 0.596,10 L0.596,10 L0.596,530 C0.596,535.523 5.074,540 10.596,540 L10.596,540 L787.596,540 C793.119,540 797.597,535.523 797.597,530 L797.597,530 L797.597,10 C797.597,4.478 793.119,0 787.596,0 L787.596,0 L10.596,0 Z" id="path-15"></path>
        <path d="M10.596,0 C5.074,0 0.596,4.478 0.596,10 L0.596,10 L0.596,530 C0.596,535.523 5.074,540 10.596,540 L10.596,540 L787.596,540 C793.119,540 797.597,535.523 797.597,530 L797.597,530 L797.597,10 C797.597,4.478 793.119,0 787.596,0 L787.596,0 L10.596,0 Z" id="path-17"></path>
        <path d="M10.596,0 C5.074,0 0.596,4.478 0.596,10 L0.596,10 L0.596,530 C0.596,535.523 5.074,540 10.596,540 L10.596,540 L787.596,540 C793.119,540 797.597,535.523 797.597,530 L797.597,530 L797.597,10 C797.597,4.478 793.119,0 787.596,0 L787.596,0 L10.596,0 Z" id="path-19"></path>
        <path d="M10.596,0 C5.074,0 0.596,4.478 0.596,10 L0.596,10 L0.596,530 C0.596,535.523 5.074,540 10.596,540 L10.596,540 L787.596,540 C793.119,540 797.597,535.523 797.597,530 L797.597,530 L797.597,10 C797.597,4.478 793.119,0 787.596,0 L787.596,0" id="path-21"></path>
        <path d="M10.596,0 C5.074,0 0.596,4.478 0.596,10 L0.596,10 L0.596,530 C0.596,535.523 5.074,540 10.596,540 L10.596,540 L787.596,540 C793.119,540 797.597,535.523 797.597,530 L797.597,530 L797.597,10 C797.597,4.478 793.119,0 787.596,0 L787.596,0 L10.596,0 Z" id="path-23"></path>
        <path d="M10.596,0 C5.074,0 0.596,4.478 0.596,10 L0.596,10 L0.596,530 C0.596,535.523 5.074,540 10.596,540 L10.596,540 L787.596,540 C793.119,540 797.597,535.523 797.597,530 L797.597,530 L797.597,10 C797.597,4.478 793.119,0 787.596,0 L787.596,0" id="path-25"></path>
        <path d="M10.596,0 C5.074,0 0.596,4.478 0.596,10 L0.596,10 L0.596,530 C0.596,535.523 5.074,540 10.596,540 L10.596,540 L787.596,540 C793.119,540 797.597,535.523 797.597,530 L797.597,530 L797.597,10 C797.597,4.478 793.119,0 787.596,0 L787.596,0" id="path-27"></path>
        <path d="M10.596,0 C5.074,0 0.596,4.478 0.596,10 L0.596,10 L0.596,530 C0.596,535.523 5.074,540 10.596,540 L10.596,540 L787.596,540 C793.119,540 797.597,535.523 797.597,530 L797.597,530 L797.597,10 C797.597,4.478 793.119,0 787.596,0 L787.596,0" id="path-29"></path>
        <path d="M10.596,0 C5.074,0 0.596,4.478 0.596,10 L0.596,10 L0.596,530 C0.596,535.523 5.074,540 10.596,540 L10.596,540 L787.596,540 C793.119,540 797.597,535.523 797.597,530 L797.597,530 L797.597,10 C797.597,4.478 793.119,0 787.596,0 L787.596,0" id="path-31"></path>
        <path d="M10.596,0 C5.074,0 0.596,4.478 0.596,10 L0.596,10 L0.596,530 C0.596,535.523 5.074,540 10.596,540 L10.596,540 L787.596,540 C793.119,540 797.597,535.523 797.597,530 L797.597,530 L797.597,10 C797.597,4.478 793.119,0 787.596,0 L787.596,0" id="path-33"></path>
        <path d="M10.596,0 C5.074,0 0.596,4.478 0.596,10 L0.596,10 L0.596,530 C0.596,535.523 5.074,540 10.596,540 L10.596,540 L787.596,540 C793.119,540 797.597,535.523 797.597,530 L797.597,530 L797.597,10 C797.597,4.478 793.119,0 787.596,0 L787.596,0" id="path-35"></path>
        <path d="M10.596,0 C5.074,0 0.596,4.478 0.596,10 L0.596,10 L0.596,530 C0.596,535.523 5.074,540 10.596,540 L10.596,540 L787.596,540 C793.119,540 797.597,535.523 797.597,530 L797.597,530 L797.597,10 C797.597,4.478 793.119,0 787.596,0 L787.596,0" id="path-37"></path>
        <path d="M10.596,0 C5.074,0 0.596,4.478 0.596,10 L0.596,10 L0.596,530 C0.596,535.523 5.074,540 10.596,540 L10.596,540 L787.596,540 C793.119,540 797.597,535.523 797.597,530 L797.597,530 L797.597,10 C797.597,4.478 793.119,0 787.596,0 L787.596,0" id="path-39"></path>
        <path d="M10.596,0 C5.074,0 0.596,4.478 0.596,10 L0.596,10 L0.596,530 C0.596,535.523 5.074,540 10.596,540 L10.596,540 L787.596,540 C793.119,540 797.597,535.523 797.597,530 L797.597,530 L797.597,10 C797.597,4.478 793.119,0 787.596,0 L787.596,0 L10.596,0 Z" id="path-41"></path>
        <path d="M10.596,0 C5.074,0 0.596,4.478 0.596,10 L0.596,10 L0.596,530 C0.596,535.523 5.074,540 10.596,540 L10.596,540 L787.596,540 C793.119,540 797.597,535.523 797.597,530 L797.597,530 L797.597,10 C797.597,4.478 793.119,0 787.596,0 L787.596,0" id="path-43"></path>
        <path d="M10.596,0 C5.074,0 0.596,4.478 0.596,10 L0.596,10 L0.596,530 C0.596,535.523 5.074,540 10.596,540 L10.596,540 L787.596,540 C793.119,540 797.597,535.523 797.597,530 L797.597,530 L797.597,10 C797.597,4.478 793.119,0 787.596,0 L787.596,0" id="path-45"></path>
        <path d="M10.596,0 C5.074,0 0.596,4.478 0.596,10 L0.596,10 L0.596,530 C0.596,535.523 5.074,540 10.596,540 L10.596,540 L787.596,540 C793.119,540 797.597,535.523 797.597,530 L797.597,530 L797.597,10 C797.597,4.478 793.119,0 787.596,0 L787.596,0" id="path-47"></path>
        <path d="M10.596,0 C5.074,0 0.596,4.478 0.596,10 L0.596,10 L0.596,530 C0.596,535.523 5.074,540 10.596,540 L10.596,540 L787.596,540 C793.119,540 797.597,535.523 797.597,530 L797.597,530 L797.597,10 C797.597,4.478 793.119,0 787.596,0 L787.596,0" id="path-49"></path>
        <path d="M10.596,0 C5.074,0 0.596,4.478 0.596,10 L0.596,10 L0.596,530 C0.596,535.523 5.074,540 10.596,540 L10.596,540 L787.596,540 C793.119,540 797.597,535.523 797.597,530 L797.597,530 L797.597,10 C797.597,4.478 793.119,0 787.596,0 L787.596,0" id="path-51"></path>
        <path d="M10.596,0 C5.074,0 0.596,4.478 0.596,10 L0.596,10 L0.596,530 C0.596,535.523 5.074,540 10.596,540 L10.596,540 L787.596,540 C793.119,540 797.597,535.523 797.597,530 L797.597,530 L797.597,10 C797.597,4.478 793.119,0 787.596,0 L787.596,0" id="path-53"></path>
        <path d="M10.596,0 C5.074,0 0.596,4.478 0.596,10 L0.596,10 L0.596,530 C0.596,535.523 5.074,540 10.596,540 L10.596,540 L787.596,540 C793.119,540 797.597,535.523 797.597,530 L797.597,530 L797.597,10 C797.597,4.478 793.119,0 787.596,0 L787.596,0" id="path-55"></path>
    </defs>
    <g id="Page-2" stroke="none" stroke-width="1" fill="none" fill-rule="evenodd">
        <g id="Student-page-timer-Copy" transform="translate(-561.000000, -382.000000)">
            <g id="characterlayer" transform="translate(561.000000, 365.000000)">
                <g id="Group-85">
                    <g id="Group-3">
                        <mask id="mask-2" fill="white">
                            <use xlink:href="#path-1"></use>
                        </mask>
                        <g id="Clip-2"></g>
                        <path d="M26.408,473.3986 C37.29,462.1016 49.378,455.9196 62.67,454.8526 L52.775,451.6896 C38.256,457.4646 26.966,464.4456 18.904,472.6366 C10.841,480.8266 3.541,486.2566 -3,488.9296 C5.369,490.8326 15.171,485.6536 26.408,473.3986" id="Fill-1" fill="#89589C" mask="url(#mask-2)"></path>
                    </g>
                    <g id="Group-6">
                        <mask id="mask-4" fill="white">
                            <use xlink:href="#path-3"></use>
                        </mask>
                        <g id="Clip-5"></g>
                        <path d="M26.408,473.3986 C15.171,485.6536 5.369,490.8326 -3,488.9296 C21.11,505.1936 52.577,495.7526 91.4,460.6076 L62.67,454.8526 C49.378,455.9196 37.29,462.1016 26.408,473.3986" id="Fill-4" fill="#A576AC" mask="url(#mask-4)"></path>
                    </g>
                    <g id="Group-9">
                        <mask id="mask-6" fill="white">
                            <use xlink:href="#path-5"></use>
                        </mask>
                        <g id="Clip-8"></g>
                        <path d="M144.0974,392.3591 C145.3764,392.9711 146.4924,393.2561 147.4474,393.2151 C147.5684,395.0171 147.1764,396.4631 146.2724,397.5621 C147.1764,396.4631 147.5684,395.0171 147.4474,393.2151 C146.4924,393.2561 145.3764,392.9711 144.0974,392.3591 C142.6774,391.6801 141.1314,390.7331 139.4584,389.5181 C141.1314,390.7331 142.6774,391.6801 144.0974,392.3591 L144.0974,392.3591 Z M137.7044,393.2181 C136.9424,392.5751 136.2724,391.9491 135.6904,391.3391 C136.2724,391.9491 136.9424,392.5751 137.7044,393.2181 L137.7044,393.2181 Z M150.7764,391.5271 C151.7984,390.5101 152.2264,389.2171 152.0574,387.6501 C151.7924,385.1871 149.8364,382.6411 146.1934,380.0141 C144.3214,378.6481 142.6014,377.6811 141.0394,377.1131 C142.6014,377.6811 144.3214,378.6481 146.1934,380.0141 C149.8364,382.6411 151.7924,385.1871 152.0574,387.6501 C152.2264,389.2171 151.7984,390.5101 150.7764,391.5271 C149.9654,392.3231 149.1434,392.8371 148.3074,393.0661 C149.1434,392.8371 149.9654,392.3231 150.7764,391.5271 L150.7764,391.5271 Z M154.5984,391.7931 C153.3064,393.0461 152.3504,394.5091 151.7304,396.1791 C152.3504,394.5091 153.3064,393.0461 154.5984,391.7931 C156.1714,390.2651 157.8164,389.4081 159.5324,389.2231 C157.8164,389.4081 156.1714,390.2651 154.5984,391.7931 L154.5984,391.7931 Z M147.7544,393.1831 C147.9414,393.1591 148.1244,393.1201 148.3074,393.0661 C148.9894,394.1401 150.1294,395.1791 151.7304,396.1791 C151.8284,396.2471 151.9314,396.3121 152.0334,396.3751 C154.3754,397.7831 156.2374,398.4121 157.6184,398.2661 C158.7394,398.1441 159.8894,397.7941 161.0734,397.2141 C159.8894,397.7941 158.7394,398.1441 157.6184,398.2661 C156.2374,398.4121 154.3754,397.7831 152.0334,396.3751 C151.9314,396.3121 151.8284,396.2471 151.7304,396.1791 C150.1294,395.1791 148.9894,394.1401 148.3074,393.0661 L147.4474,393.2151 C147.5514,393.2051 147.6544,393.1961 147.7544,393.1831 L147.7544,393.1831 Z M135.6904,391.3391 C134.8274,390.4541 134.1504,389.6011 133.6584,388.7831 C132.9664,387.6111 132.5484,386.3531 132.4044,385.0101 C132.1784,382.9191 132.4874,381.0561 133.3294,379.4161 C134.2354,377.6581 135.5274,376.6881 137.2074,376.5061 C138.3584,376.3821 139.6354,376.5851 141.0394,377.1131 C141.9484,375.4891 143.0884,374.0651 144.4564,372.8381 C146.2114,371.2521 147.7804,370.3841 149.1614,370.2351 C151.4014,369.9921 153.1124,370.2821 154.2954,371.0981 C155.6444,372.0481 156.4524,373.7731 156.7214,376.2741 C156.6264,377.7611 156.5704,378.7301 156.5524,379.1811 C156.5524,379.3311 156.5524,379.4261 156.5554,379.4641 C158.3574,380.0631 160.2264,381.4651 162.1634,383.6741 C164.0514,385.7701 165.3614,388.6301 166.0884,392.2561 C166.8134,395.8831 165.8554,398.8081 163.2114,401.0321 C160.5754,403.2541 158.4234,404.0511 156.7584,403.4271 C156.6454,403.4591 156.5354,403.4791 156.4244,403.4921 L156.5564,403.6471 C152.4324,408.1461 148.5564,412.1121 144.9254,415.5471 L144.5284,415.0241 C135.9914,413.2591 130.2264,408.3781 127.2344,400.3771 L135.6904,391.3391 Z" id="Fill-7" fill="#EAA397" mask="url(#mask-6)"></path>
                    </g>
                    <g id="Group-12">
                        <mask id="mask-8" fill="white">
                            <use xlink:href="#path-7"></use>
                        </mask>
                        <g id="Clip-11"></g>
                        <path d="M144.9255,415.5475 C136.7525,423.2705 129.8175,428.3025 124.1225,430.6445 L117.5055,410.7415 L127.2345,400.3775 C130.2265,408.3775 135.9905,413.2595 144.5285,415.0245 L144.9255,415.5475 Z" id="Fill-10" fill="#F27027" mask="url(#mask-8)"></path>
                    </g>
                    <g id="Group-15">
                        <mask id="mask-10" fill="white">
                            <use xlink:href="#path-9"></use>
                        </mask>
                        <g id="Clip-14"></g>
                        <path d="M62.6218,496.3781 L64.2538,496.3051 L62.6218,496.3781 Z M51.4818,496.8791 C48.0248,496.0591 45.1268,493.9051 42.7868,490.3631 C41.9828,489.1971 41.1448,487.6931 40.2728,485.8551 C39.8618,485.0461 39.5118,484.3661 39.2238,483.8161 C41.1118,483.2041 43.6028,482.5851 46.6948,481.9571 C52.5808,480.7901 57.8678,480.1011 62.5568,479.8901 C65.6318,479.7521 69.0048,479.9371 72.6728,480.4491 C74.9438,480.7971 76.8598,481.1841 78.4198,481.6001 C76.6108,488.1841 74.3968,492.4551 71.7798,494.4161 C70.9428,495.0541 70.0518,495.7061 69.0928,496.0871 C68.7578,496.1771 68.4708,496.0381 68.2478,496.1251 L68.0798,496.1321 L64.2538,496.3051 C63.7288,496.3281 63.1848,496.3531 62.6218,496.3781 C62.0958,496.3651 61.5708,496.4251 61.0468,496.4491 C60.2218,496.4861 59.3958,496.5241 58.5708,496.5611 L57.3328,496.6161 C56.9558,496.5961 56.5638,496.6511 56.1518,496.6701 C56.0758,496.6731 56.0028,496.7151 55.9268,496.6801 C54.5758,496.7401 53.2258,496.8011 51.8758,496.8621 C51.8378,496.8641 51.7818,496.8661 51.7058,496.8701 C51.7078,496.9081 51.6868,496.8701 51.6498,496.8721 C51.6128,496.8741 51.5928,496.8371 51.5948,496.8751 L51.4818,496.8791 Z" id="Fill-13" fill="#7B5FA1" mask="url(#mask-10)"></path>
                    </g>
                    <g id="Group-18">
                        <mask id="mask-12" fill="white">
                            <use xlink:href="#path-11"></use>
                        </mask>
                        <g id="Clip-17"></g>
                        <path d="M91.5691,494.4274 L90.3891,494.5074 L91.5691,494.4274 Z M109.9361,494.1644 C113.5361,487.4744 111.0091,483.7434 102.3581,482.9744 C94.0821,482.2394 85.8781,482.6174 77.7441,484.1114 L67.9961,496.1364 L90.3891,494.5074 C89.9651,495.0954 89.5591,495.6694 89.1701,496.2264 C96.3291,496.6834 103.1451,496.1414 109.6191,494.6014 L109.9361,494.1644 Z" id="Fill-16" fill="#7B5FA1" mask="url(#mask-12)"></path>
                    </g>
                    <g id="Group-21">
                        <mask id="mask-14" fill="white">
                            <use xlink:href="#path-13"></use>
                        </mask>
                        <g id="Clip-20"></g>
                        <path d="M105.4841,500.4528 C105.1771,500.3358 104.8541,500.2368 104.5121,500.1598 C104.8541,500.2368 105.1771,500.3358 105.4841,500.4528 M86.2261,500.9818 C85.0801,503.0618 84.5251,504.5158 84.5621,505.3408 C84.6531,507.3668 85.9661,508.5658 88.5021,508.9408 C88.9511,508.9988 89.9661,509.0108 91.5471,508.9738 C93.1361,508.9308 94.7881,508.8648 96.5001,508.7798 C98.2131,508.6908 99.9451,508.5468 101.6961,508.3478 C103.4391,508.1518 104.9871,507.6698 106.3381,506.8968 C107.7311,506.1218 108.4041,505.1898 108.3541,504.1018 C108.3161,503.2388 107.9421,502.4298 107.2301,501.6708 C106.7411,501.1478 106.1591,500.7418 105.4841,500.4528 L109.6191,494.6008 C103.1451,496.1418 96.3291,496.6838 89.1701,496.2268 C87.9891,497.9588 87.0071,499.5458 86.2261,500.9818" id="Fill-19" fill="#898585" mask="url(#mask-14)"></path>
                    </g>
                    <g id="Group-24">
                        <mask id="mask-16" fill="white">
                            <use xlink:href="#path-15"></use>
                        </mask>
                        <g id="Clip-23"></g>
                        <path d="M36.2761,479.7184 C28.4151,482.9284 24.5871,486.8214 24.7931,491.3994 L25.0221,492.7424 L19.6881,495.7164 C22.6401,501.6474 29.4041,504.5454 39.9811,504.4154 L52.3811,496.8394 L36.2761,479.7184 Z" id="Fill-22" fill="#7B5FA1" mask="url(#mask-16)"></path>
                    </g>
                    <g id="Group-27">
                        <mask id="mask-18" fill="white">
                            <use xlink:href="#path-17"></use>
                        </mask>
                        <g id="Clip-26"></g>
                        <path d="M7.2566,502.6188 C-2.0864,507.9428 -3.3704,512.4168 3.4066,516.0408 C8.9166,519.0688 16.1486,518.1608 25.1026,513.3178 L39.9816,504.4148 C29.4036,504.5458 22.6406,501.6478 19.6886,495.7168 L7.2566,502.6188 Z" id="Fill-25" fill="#898585" mask="url(#mask-18)"></path>
                    </g>
                    <g id="Group-30">
                        <mask id="mask-20" fill="white">
                            <use xlink:href="#path-19"></use>
                        </mask>
                        <g id="Clip-29"></g>
                        <path d="M112.1384,452.5466 L87.4734,483.0576 C67.4994,486.8896 49.6224,486.8986 33.0574,484.6006 C33.6674,483.9716 34.2974,483.3586 34.9484,482.7676 C35.7064,482.0946 36.4264,481.3856 37.1074,480.6396 C37.6464,480.0886 38.1844,479.5206 38.7214,478.9336 C39.2604,478.3826 39.8544,477.7916 40.5024,477.1616 C40.5754,477.1196 40.6114,477.0826 40.6094,477.0436 C40.6834,477.0036 40.7374,476.9636 40.7734,476.9226 C40.8464,476.8826 40.9024,476.8436 40.9374,476.8026 C40.9714,476.7276 41.0264,476.6686 41.0984,476.6276 C41.1714,476.5876 41.2434,476.5276 41.3164,476.4496 C41.3514,476.4096 41.3864,476.3516 41.4204,476.2756 C41.4564,476.2336 41.5104,476.1766 41.5814,476.0986 L41.6354,476.0396 C42.8524,474.6686 44.1434,473.3136 45.5124,471.9746 C47.0314,470.5926 48.4924,469.0326 49.8964,467.2936 C51.2954,465.5516 53.1614,463.3916 55.4954,460.8126 C57.8344,458.2386 61.1244,457.4686 65.3714,458.5086 C66.0444,467.6106 71.1714,471.3076 80.7544,469.5986 C87.1244,467.5086 91.4214,463.1796 93.6444,456.6156 L112.1384,452.5466 Z" id="Fill-28" fill="#F27027" mask="url(#mask-20)"></path>
                    </g>
                    <g id="Group-33">
                        <mask id="mask-22" fill="white">
                            <use xlink:href="#path-21"></use>
                        </mask>
                        <g id="Clip-32"></g>
                        <path d="M80.7546,469.5983 C71.1716,471.3073 66.0446,467.6103 65.3716,458.5083 C66.8286,458.3293 70.4106,458.1493 76.1146,457.9683 C81.7806,457.7493 87.6236,457.3003 93.6446,456.6163 C91.4216,463.1803 87.1246,467.5083 80.7546,469.5983" id="Fill-31" fill="#EAA397" mask="url(#mask-22)"></path>
                    </g>
                    <g id="Group-36">
                        <mask id="mask-24" fill="white">
                            <use xlink:href="#path-23"></use>
                        </mask>
                        <g id="Clip-35"></g>
                        <path d="M17.3533,425.0392 C14.0353,423.8052 11.1353,422.0092 8.6543,419.6512 C11.1353,422.0092 14.0353,423.8052 17.3533,425.0392 L17.3533,425.0392 Z M21.5383,439.1142 L18.0273,437.5232 L21.5383,439.1142 Z M27.1363,386.8802 C39.5563,372.9002 54.5553,365.8542 72.1333,365.7422 C96.0743,366.6742 108.7873,373.2062 109.9883,387.1912 C115.6563,415.7622 95.6703,435.1832 70.3933,451.1322 C61.5753,456.8532 61.9983,462.8762 51.5883,461.6662 C33.8723,459.8342 22.7603,452.0182 18.2553,438.2192 C18.1753,437.9902 18.0993,437.7582 18.0273,437.5232 C14.1613,435.3872 11.2573,432.4722 9.3183,428.7832 C7.3793,425.0922 7.1593,422.0482 8.6543,419.6512 C8.1853,419.2152 7.7323,418.7562 7.2953,418.2742 C5.4263,415.5762 4.5793,412.3922 4.7503,408.7202 C4.9213,405.0402 7.5413,401.6432 12.6083,398.5292 C19.9743,394.3642 24.8173,390.4812 27.1363,386.8802 L27.1363,386.8802 Z" id="Fill-34" fill="#58BBCB" mask="url(#mask-24)"></path>
                    </g>
                    <g id="Group-39">
                        <mask id="mask-26" fill="white">
                            <use xlink:href="#path-25"></use>
                        </mask>
                        <g id="Clip-38"></g>
                        <path d="M40.239,438.7228 C39.55,421.6958 44.57,410.9268 55.303,406.4168 L102.131,399.6298 C122.669,406.9268 131.374,418.2818 128.246,433.6908 C125.704,447.5978 112.868,455.9368 89.737,458.7088 L72.288,460.6208 C50.76,460.2298 40.077,452.9308 40.239,438.7228" id="Fill-37" fill="#E99F94" mask="url(#mask-26)"></path>
                    </g>
                    <g id="Group-42">
                        <mask id="mask-28" fill="white">
                            <use xlink:href="#path-27"></use>
                        </mask>
                        <g id="Clip-41"></g>
                        <path d="M44.3582,451.9562 C41.5892,453.5092 38.4322,453.2942 34.8852,451.3122 C31.4172,449.4012 28.5162,446.3542 26.1862,442.1752 C23.8552,437.9952 22.7692,433.8902 22.9252,429.8622 C23.0812,426.6632 24.0062,424.2712 25.7042,422.6902 C25.2902,411.9312 27.8162,402.9102 33.2812,395.6252 C40.4042,386.9772 49.5362,381.0982 60.6762,377.9872 C73.7942,374.7872 84.5292,373.6172 92.8792,374.4782 C98.3202,375.0392 102.8982,376.1412 106.6162,377.7792 C107.7542,379.0562 109.2402,380.9262 111.0682,383.3852 C112.8962,385.8452 115.1562,389.9352 117.8502,395.6522 L123.2042,404.3752 C126.9052,410.7662 128.6842,416.8772 128.5402,422.7122 C124.5592,409.8792 108.9942,406.4362 81.8442,412.3812 C61.7522,414.5872 48.9462,420.0402 43.4262,428.7412 C39.3142,435.3652 39.6252,443.1022 44.3582,451.9562 M27.1772,421.6082 C28.4912,420.8672 29.9232,420.5582 31.4762,420.6822 C29.9232,420.5582 28.4912,420.8672 27.1772,421.6082 C26.6322,421.9122 26.1412,422.2732 25.7042,422.6902 C26.1412,422.2732 26.6322,421.9122 27.1772,421.6082" id="Fill-40" fill="#9B84B7" mask="url(#mask-28)"></path>
                    </g>
                    <g id="Group-45">
                        <mask id="mask-30" fill="white">
                            <use xlink:href="#path-29"></use>
                        </mask>
                        <g id="Clip-44"></g>
                        <path d="M81.2664,407.0529 C82.3864,406.8889 83.3744,407.1269 84.2304,407.7649 C85.1634,408.4749 85.7394,409.5389 85.9534,410.9579 C85.9874,411.2289 86.0244,411.6219 86.0614,412.1359 C86.0264,412.1749 85.9924,412.2519 85.9594,412.3659 C85.9664,412.5169 85.8514,412.8969 85.6174,413.5099 C85.3794,414.0849 85.0994,414.5479 84.7764,414.8999 C84.4894,415.1769 83.9954,415.4989 83.2984,415.8689 C82.7864,416.1929 82.3254,416.3829 81.9144,416.4379 C80.1954,416.6659 78.8914,416.4999 78.0004,415.9379 C77.0364,415.3799 76.3324,414.7729 75.8894,414.1159 L76.2244,412.8039 L76.1964,412.7769 C76.6624,411.0719 77.2534,409.7949 77.9684,408.9489 C78.6114,408.1689 79.3374,407.6279 80.1514,407.3269 C80.5204,407.1609 80.8914,407.0699 81.2664,407.0529" id="Fill-43" fill="#EAA397" mask="url(#mask-30)"></path>
                    </g>
                    <g id="Group-48">
                        <mask id="mask-32" fill="white">
                            <use xlink:href="#path-31"></use>
                        </mask>
                        <g id="Clip-47"></g>
                        <path d="M75.8015,412.1472 C75.4715,411.5222 75.2835,411.0992 75.2365,410.8762 C75.1145,409.8292 75.2795,408.9002 75.7315,408.0902 C76.2195,407.2422 76.8555,406.7622 77.6395,406.6522 C78.6875,406.5292 79.5245,406.7542 80.1515,407.3272 C79.3375,407.6272 78.6115,408.1682 77.9685,408.9492 C77.2535,409.7942 76.6615,411.0712 76.1965,412.7772 C76.0855,412.6002 75.9545,412.3902 75.8015,412.1472" id="Fill-46" fill="#221F20" mask="url(#mask-32)"></path>
                    </g>
                    <g id="Group-51">
                        <mask id="mask-34" fill="white">
                            <use xlink:href="#path-33"></use>
                        </mask>
                        <g id="Clip-50"></g>
                        <path d="M76.196,412.777 C76.662,411.071 77.254,409.795 77.968,408.949 C78.611,408.169 79.338,407.628 80.151,407.327 M75.889,414.116 L76.224,412.804 L76.196,412.777 M86.115,413.317 C86.095,412.875 86.077,412.481 86.061,412.136 M75.889,414.116 C75.988,413.643 76.09,413.197 76.196,412.777 C76.086,412.6 75.955,412.39 75.801,412.147 C75.471,411.523 75.284,411.099 75.236,410.876 C75.114,409.829 75.279,408.901 75.731,408.09 C76.219,407.242 76.855,406.762 77.639,406.652 C78.687,406.529 79.524,406.755 80.151,407.327 C80.52,407.161 80.891,407.069 81.266,407.053 C82.386,406.889 83.375,407.127 84.23,407.765 C85.164,408.475 85.739,409.539 85.953,410.958 C85.987,411.229 86.024,411.622 86.061,412.136" id="Stroke-49" stroke="#221F20" stroke-width="1.56" stroke-linecap="round" stroke-linejoin="round" mask="url(#mask-34)"></path>
                    </g>
                    <g id="Group-54">
                        <mask id="mask-36" fill="white">
                            <use xlink:href="#path-35"></use>
                        </mask>
                        <g id="Clip-53"></g>
                        <path d="M73.1267,417.8493 L97.3727,416.7013 C99.2547,416.7293 100.9887,416.8583 102.5777,417.0873 C102.3227,421.4583 100.3377,424.1033 96.6197,425.0233 L77.1117,426.2393 C74.8907,426.1513 73.3967,425.5243 72.6297,424.3553 C71.9887,423.4813 71.3727,423.5653 70.7797,424.6073 C69.6797,426.0473 67.6687,426.8713 64.7467,427.0783 C61.8617,427.2843 59.6557,425.8783 58.1307,422.8653 C61.2197,419.6823 66.2177,418.0103 73.1267,417.8493" id="Fill-52" fill="#FFFFFF" mask="url(#mask-36)"></path>
                    </g>
                    <g id="Group-57">
                        <mask id="mask-38" fill="white">
                            <use xlink:href="#path-37"></use>
                        </mask>
                        <g id="Clip-56"></g>
                        <path d="M54.74,431.4748 C54.953,427.8568 56.084,424.9868 58.131,422.8648 C59.656,425.8788 61.862,427.2838 64.747,427.0778 C67.669,426.8718 69.679,426.0468 70.78,424.6078 C71.373,423.5658 71.989,423.4818 72.63,424.3548 C73.396,425.5238 74.89,426.1518 77.112,426.2398 L96.62,425.0228 C100.338,424.1028 102.323,421.4588 102.578,417.0878 C109.991,418.1078 114.076,421.6058 114.834,427.5858 C115.77,435.0228 113.018,440.7098 106.581,444.6448 C104.896,445.6238 103.13,446.4548 101.281,447.1388 C104.447,441.5088 103.221,436.8288 97.604,433.0968 C91.856,429.8228 85.987,428.4138 79.993,428.8718 C70.736,429.4768 65.177,432.4518 63.312,437.7978 C62.965,440.9328 63.578,443.6868 65.15,446.0588 C58.088,442.8068 54.617,437.9448 54.74,431.4748" id="Fill-55" fill="#DA4471" mask="url(#mask-38)"></path>
                    </g>
                    <g id="Group-60">
                        <mask id="mask-40" fill="white">
                            <use xlink:href="#path-39"></use>
                        </mask>
                        <g id="Clip-59"></g>
                        <path d="M70.1355,447.864 C68.3095,447.345 66.6465,446.743 65.1505,446.059 C63.5775,443.687 62.9645,440.933 63.3125,437.798 C65.1765,432.452 70.7365,429.477 79.9925,428.872 C85.9875,428.414 91.8565,429.823 97.6045,433.096 C103.2215,436.828 104.4475,441.509 101.2815,447.139 C92.0435,450.675 81.6615,450.917 70.1355,447.864" id="Fill-58" fill="#DF76A7" mask="url(#mask-40)"></path>
                    </g>
                    <g id="Group-63">
                        <mask id="mask-42" fill="white">
                            <use xlink:href="#path-41"></use>
                        </mask>
                        <g id="Clip-62"></g>
                        <path d="M70.1355,447.864 C68.3095,447.345 66.6465,446.743 65.1505,446.059 C58.0875,442.806 54.6165,437.945 54.7395,431.475 C54.9525,427.857 56.0835,424.987 58.1305,422.865 C61.2195,419.682 66.2175,418.01 73.1265,417.849 L97.3725,416.701 C99.2545,416.73 100.9895,416.858 102.5775,417.088 C109.9905,418.108 114.0755,421.606 114.8335,427.586 C115.7705,435.023 113.0185,440.71 106.5805,444.645 C104.8965,445.624 103.1295,446.455 101.2815,447.139 C92.0435,450.675 81.6615,450.917 70.1355,447.864 Z" id="Stroke-61" stroke="#221F20" stroke-width="1.56" stroke-linecap="round" stroke-linejoin="round" mask="url(#mask-42)"></path>
                    </g>
                    <g id="Group-66">
                        <mask id="mask-44" fill="white">
                            <use xlink:href="#path-43"></use>
                        </mask>
                        <g id="Clip-65"></g>
                        <path d="M38.8464,412.7961 C52.0644,411.7111 62.5894,409.6221 70.4164,406.5261" id="Stroke-64" stroke="#221F20" stroke-width="2.253" stroke-linecap="round" mask="url(#mask-44)"></path>
                    </g>
                    <g id="Group-69">
                        <mask id="mask-46" fill="white">
                            <use xlink:href="#path-45"></use>
                        </mask>
                        <g id="Clip-68"></g>
                        <path d="M86.1306,402.3806 C97.3406,402.6276 106.0446,401.8406 112.2396,400.0216" id="Stroke-67" stroke="#221F20" stroke-width="2.253" stroke-linecap="round" mask="url(#mask-46)"></path>
                    </g>
                    <g id="Group-72">
                        <mask id="mask-48" fill="white">
                            <use xlink:href="#path-47"></use>
                        </mask>
                        <g id="Clip-71"></g>
                        <path d="M41.9958,397.6008 L69.9178,402.9398" id="Stroke-70" stroke="#221F20" stroke-width="7.322" stroke-linecap="round" mask="url(#mask-48)"></path>
                    </g>
                    <g id="Group-75">
                        <mask id="mask-50" fill="white">
                            <use xlink:href="#path-49"></use>
                        </mask>
                        <g id="Clip-74"></g>
                        <path d="M85.2488,400.3337 L106.6468,389.7297" id="Stroke-73" stroke="#221F20" stroke-width="7.322" stroke-linecap="round" mask="url(#mask-50)"></path>
                    </g>
                    <g id="Group-78">
                        <mask id="mask-52" fill="white">
                            <use xlink:href="#path-51"></use>
                        </mask>
                        <g id="Clip-77"></g>
                        <path d="M50.3884,478.8591 C50.6904,478.7271 50.9844,478.5901 51.2724,478.4531 C50.9844,478.5901 50.6904,478.7271 50.3884,478.8591 C48.9514,479.4881 47.8754,479.8171 47.1624,479.8491 C47.8754,479.8171 48.9514,479.4881 50.3884,478.8591 M51.4554,472.4951 C51.0864,472.6631 50.7524,472.7351 50.4504,472.7121 C50.7524,472.7351 51.0864,472.6631 51.4554,472.4951 M36.4224,465.4201 C36.4234,465.2261 36.4334,465.0271 36.4514,464.8281 C36.5784,463.4691 37.2484,462.4801 38.4604,461.8611 C39.4894,461.3271 40.5394,461.2791 41.6114,461.7201 C41.7254,461.7521 41.8234,461.8231 41.9024,461.9331 C42.8254,462.3791 43.5744,463.1541 44.1494,464.2561 C44.3294,464.9241 44.4654,465.4241 44.5554,465.7591 C45.6834,465.7461 47.2194,465.6401 49.1644,465.4401 C51.4204,465.4511 52.9394,466.2091 53.7204,467.7161 C53.8624,467.9851 53.9674,468.2431 54.0374,468.4901 C54.2604,469.2051 54.2344,469.8441 53.9544,470.4101 C53.5734,471.1041 52.7944,471.7591 51.6194,472.3761 C51.5454,472.4171 51.4914,472.4561 51.4554,472.4951 C51.4924,474.8401 51.4304,476.8261 51.2724,478.4531 C51.1614,479.4761 51.0134,480.3581 50.8274,481.0951 C50.2104,483.2641 49.0934,484.7421 47.4754,485.5301 C46.2624,486.1491 45.2244,486.4591 44.3604,486.461191 C43.2704,486.4701 41.2294,485.8121 38.2394,484.4801 C34.0534,486.2431 29.5664,486.7461 24.7754,485.9881 C19.5094,484.3731 17.0724,481.1381 17.4594,476.2801 C17.8354,471.5181 22.1724,467.0391 30.4704,462.8431 C33.0074,462.8661 34.9914,463.7251 36.4224,465.4201 M37.0834,468.8581 C37.0074,468.8241 36.0804,468.6971 34.3044,468.4771 C33.1244,468.2851 31.4194,468.3901 29.1884,468.7911 C31.4194,468.3901 33.1244,468.2851 34.3044,468.4771 C36.0804,468.6971 37.0074,468.8241 37.0834,468.8581 C36.6174,467.7251 36.3964,466.5811 36.4224,465.4201 C36.3964,466.5811 36.6174,467.7251 37.0834,468.8581" id="Fill-76" fill="#EAA397" mask="url(#mask-52)"></path>
                    </g>
                    <g id="Group-81">
                        <mask id="mask-54" fill="white">
                            <use xlink:href="#path-53"></use>
                        </mask>
                        <g id="Clip-80"></g>
                        <path d="M53.7205,467.7165 C52.9395,466.2095 51.4205,465.4505 49.1645,465.4405 C47.2195,465.6395 45.6835,465.7465 44.5555,465.7595 C44.4655,465.4245 44.3295,464.9245 44.1495,464.2565 C43.5745,463.1545 42.8245,462.3795 41.9025,461.9325 C41.8235,461.8235 41.7255,461.7525 41.6115,461.7195 C40.5395,461.2795 39.4895,461.3265 38.4605,461.8615 C37.2485,462.4795 36.5785,463.4685 36.4515,464.8275 C36.4335,465.0275 36.4235,465.2265 36.4225,465.4205 C34.9915,463.7255 33.0075,462.8665 30.4705,462.8425 C30.6245,462.7565 30.7815,462.6735 30.9395,462.5955 L43.6805,455.0865 C47.7295,452.2525 53.8475,452.4425 58.9575,454.9775 C63.9475,457.5115 65.3525,460.3835 66.2505,464.2755 L54.0375,468.4895 C53.9675,468.2435 53.8625,467.9855 53.7205,467.7165" id="Fill-79" fill="#F27027" mask="url(#mask-54)"></path>
                    </g>
                    <g id="Group-84">
                        <mask id="mask-56" fill="white">
                            <use xlink:href="#path-55"></use>
                        </mask>
                        <g id="Clip-83"></g>
                        <path d="M51.4558,472.4948 C51.0868,472.6628 50.7528,472.7348 50.4498,472.7118 M54.0378,468.4898 C54.2608,469.2048 54.2338,469.8448 53.9548,470.4098 C53.5728,471.1038 52.7948,471.7598 51.6198,472.3758 C51.5458,472.4168 51.4908,472.4558 51.4558,472.4948 C51.4918,474.8398 51.4308,476.8258 51.2718,478.4528 C51.1618,479.4758 51.0138,480.3578 50.8278,481.0958 C50.2108,483.2638 49.0938,484.7428 47.4758,485.5308 C46.2628,486.1488 45.2248,486.4588 44.3598,486.460891 C43.2698,486.4698 41.2288,485.8118 38.2388,484.4798 M36.4228,465.4198 C36.4238,465.2258 36.4338,465.0278 36.4518,464.8278 C36.5788,463.4688 37.2488,462.4798 38.4608,461.8618 C39.4888,461.3268 40.5398,461.2798 41.6108,461.7198 C41.7258,461.7518 41.8228,461.8238 41.9018,461.9328 C42.8248,462.3788 43.5738,463.1538 44.1488,464.2568 C44.3298,464.9238 44.4658,465.4248 44.5558,465.7598 C45.6838,465.7458 47.2198,465.6398 49.1648,465.4398 C51.4208,465.4508 52.9388,466.2088 53.7208,467.7168 C53.8618,467.9858 53.9678,468.2438 54.0378,468.4898" id="Stroke-82" stroke="#221F20" stroke-width="1.56" stroke-linecap="round" stroke-linejoin="round" mask="url(#mask-56)"></path>
                    </g>
                </g>
                <g id="Group-228" transform="translate(97.000000, 18.000000)">
                    <path d="M16.9031,93.1462 C16.1491,93.6392 15.6101,94.5522 15.2811,95.8832 C15.6101,94.5522 16.1491,93.6392 16.9031,93.1462 L16.9031,93.1462 Z M24.5061,105.6922 L25.8871,104.5762 L24.5061,105.6922 Z M30.3521,95.5392 C30.1061,98.9662 30.1691,102.2722 30.5391,105.4532 C30.1691,102.2722 30.1061,98.9662 30.3521,95.5392 L30.3521,95.5392 Z M41.7831,104.9752 C41.7431,101.8992 41.9201,99.1602 42.3141,96.7622 C41.9201,99.1602 41.7431,101.8992 41.7831,104.9752 L41.7831,104.9752 Z M57.7581,92.7992 C57.5991,95.6892 57.6981,98.9412 58.0501,102.5552 C58.2561,103.1812 58.4061,103.7672 58.5041,104.3102 C58.4061,103.7672 58.2561,103.1812 58.0501,102.5552 C57.6981,98.9412 57.5991,95.6892 57.7581,92.7992 L57.7581,92.7992 Z M57.7581,92.7992 L57.9461,90.8072 L57.7581,92.7992 Z M19.8801,91.8172 C19.0991,91.9922 18.2501,92.3662 17.3281,92.9322 C18.2501,92.3662 19.0991,91.9922 19.8801,91.8172 L21.4741,88.8382 L19.8801,91.8172 Z M41.7831,104.9752 C41.7981,105.4882 41.8151,106.0102 41.8371,106.5432 C42.8301,110.6192 41.5351,112.6562 37.9551,112.6562 C34.0911,112.6212 31.7531,111.1322 30.9371,108.1912 C30.7781,107.2862 30.6441,106.3732 30.5391,105.4532 L24.5061,105.6922 L24.0801,105.9052 L22.0061,106.1712 C19.9161,106.1712 18.2131,105.3742 16.9031,103.7782 C15.6271,102.1832 14.9881,100.0922 14.9881,97.5042 C15.0541,96.9082 15.1531,96.3672 15.2811,95.8832 L14.9351,95.6982 C10.0081,90.7002 8.9641,87.1732 11.7991,85.1182 C14.1381,82.9552 17.1511,84.2492 20.8371,88.9992 L21.4741,88.8382 L22.0061,87.7772 C23.0351,85.5782 23.9381,83.9122 24.7161,82.7792 L31.2571,70.1252 C32.2491,67.9982 34.4641,66.3692 37.9021,65.2342 C40.4891,64.3482 42.9351,63.9052 45.2391,63.9052 C49.7051,63.9052 53.2661,65.5362 55.9241,68.7952 C58.1941,71.5972 59.3281,74.7152 59.3281,78.1542 C59.3281,78.7562 59.2201,79.5712 59.0081,80.5992 L58.7431,82.0342 L58.7431,82.2482 L58.6881,82.5662 L57.9461,90.8072 L58.2121,90.3812 C62.2871,92.5082 64.3251,95.3972 64.3251,99.0472 C64.3251,101.5272 63.3501,103.1412 61.4021,103.8842 L58.6881,104.3102 L58.5041,104.3102 C59.0231,107.3232 57.8101,108.9372 54.8621,109.1482 C51.1041,109.3962 48.7291,108.0322 47.7371,105.0542 C47.7141,104.9522 47.6851,104.8442 47.6571,104.7352 C47.6491,104.7032 47.6401,104.6672 47.6311,104.6282 C46.7931,100.9272 46.5281,97.9152 46.8351,95.5912 C46.5281,97.9152 46.7931,100.9272 47.6311,104.6282 L42.4731,104.9482 L41.7831,104.9752 Z" id="Fill-86" fill="#FFFFFF"></path>
                    <path d="M30.3523,95.5383 C30.1063,98.9663 30.1683,102.2713 30.5393,105.4523" id="Stroke-88" stroke="#B0ACD1" stroke-width="1.498" stroke-linecap="round" stroke-linejoin="round"></path>
                    <path d="M46.8347,95.5915 C46.5277,97.9145 46.7927,100.9275 47.6307,104.6285 C47.6407,104.6675 47.6487,104.7025 47.6577,104.7355" id="Stroke-90" stroke="#B0ACD1" stroke-width="1.498" stroke-linecap="round" stroke-linejoin="round"></path>
                    <path d="M57.7585,92.7995 C57.6005,95.6885 57.6975,98.9405 58.0515,102.5555 C58.2555,103.1815 58.4055,103.7665 58.5035,104.3095" id="Stroke-92" stroke="#B0ACD1" stroke-width="1.498" stroke-linecap="round" stroke-linejoin="round"></path>
                    <path d="M47.658,104.7355 C47.685,104.8445 47.714,104.9515 47.738,105.0545 C48.729,108.0315 51.104,109.3965 54.862,109.1475 C57.81,108.9365 59.023,107.3235 58.504,104.3095" id="Stroke-94" stroke="#B0ACD1" stroke-width="1.498" stroke-linecap="round" stroke-linejoin="round"></path>
                    <path d="M30.5398,105.4523 C30.6438,106.3723 30.7778,107.2853 30.9368,108.1913 C31.7528,111.1313 34.0918,112.6203 37.9548,112.6563 C41.5358,112.6563 42.8298,110.6183 41.8368,106.5423 C41.8148,106.0103 41.7978,105.4883 41.7838,104.9743 C41.7438,101.8983 41.9198,99.1603 42.3138,96.7613" id="Stroke-96" stroke="#B0ACD1" stroke-width="1.498" stroke-linecap="round" stroke-linejoin="round"></path>
                    <path d="M21.4734,88.8386 L20.8364,88.9986 C17.1514,84.2486 14.1384,82.9556 11.7984,85.1186 C8.9634,87.1736 10.0084,90.6996 14.9354,95.6986" id="Stroke-98" stroke="#B0ACD1" stroke-width="1.498" stroke-linecap="round" stroke-linejoin="round"></path>
                    <path d="M16.9031,93.1462 C16.1501,93.6392 15.6101,94.5522 15.2811,95.8832" id="Stroke-100" stroke="#B0ACD1" stroke-width="1.498" stroke-linecap="round" stroke-linejoin="round"></path>
                    <path d="M25.8875,104.5764 L24.5055,105.6924" id="Stroke-102" stroke="#B0ACD1" stroke-width="1.498" stroke-linecap="round" stroke-linejoin="round"></path>
                    <path d="M47.6306,104.6281 L42.4736,104.9481" id="Stroke-104" stroke="#B0ACD1" stroke-width="1.498" stroke-linecap="round" stroke-linejoin="round"></path>
                    <path d="M57.946,90.8073 L57.759,92.7993" id="Stroke-106" stroke="#B0ACD1" stroke-width="1.498" stroke-linecap="round" stroke-linejoin="round"></path>
                    <polyline id="Stroke-108" stroke="#B0ACD1" stroke-width="1.498" stroke-linecap="round" stroke-linejoin="round" points="41.783 104.9753 42.473 104.9483 47.657 104.7353"></polyline>
                    <path d="M15.281,95.8835 C15.153,96.3675 15.054,96.9085 14.988,97.5045 C14.988,100.0925 15.627,102.1835 16.903,103.7785 C18.213,105.3745 19.916,106.1715 22.006,106.1715 L24.08,105.9055 L24.506,105.6925 L30.539,105.4535" id="Stroke-110" stroke="#B0ACD1" stroke-width="1.498" stroke-linecap="round" stroke-linejoin="round"></path>
                    <path d="M58.5037,104.3102 L58.6887,104.3102 L61.4017,103.8842 C63.3507,103.1412 64.3247,101.5272 64.3247,99.0472 C64.3247,95.3972 62.2867,92.5082 58.2117,90.3812 L57.9457,90.8072 L58.6887,82.5662 L58.7427,82.2482 L58.7427,82.0342 L59.0087,80.5992 C59.2207,79.5712 59.3277,78.7562 59.3277,78.1542 C59.3277,74.7152 58.1937,71.5972 55.9247,68.7952 C53.2667,65.5362 49.7047,63.9052 45.2387,63.9052 C42.9357,63.9052 40.4887,64.3482 37.9017,65.2342 C34.4637,66.3692 32.2487,67.9982 31.2567,70.1252 L24.7167,82.7792 C23.9387,83.9122 23.0347,85.5782 22.0057,87.7772 L21.4747,88.8382 L19.8797,91.8172 C19.0997,91.9922 18.2497,92.3662 17.3277,92.9322" id="Stroke-112" stroke="#B0ACD1" stroke-width="1.498" stroke-linecap="round" stroke-linejoin="round"></path>
                    <path d="M33.7019,16.2702 C29.2379,18.3252 25.2319,18.8392 21.6869,17.8122 C24.0969,24.1912 27.9249,30.9082 33.1699,37.9612 L36.9459,35.7282 C39.6389,33.3892 40.2949,31.0682 38.9119,28.7642" id="Fill-114" fill="#D0A7C8"></path>
                    <path d="M21.6873,17.8132 C25.2333,18.8402 29.2383,18.3252 33.7023,16.2712 L34.1273,16.0582 C38.9483,13.4702 40.1873,9.6782 37.8493,4.6802 C34.9443,0.1792 30.1233,-0.8648 23.3893,1.5442 C15.1313,4.6632 12.6833,10.4582 16.0523,18.9292 C19.0643,26.8682 23.0693,33.1602 28.0673,37.8032 C29.4143,38.7592 31.1163,38.8132 33.1693,37.9612 C27.9243,30.9092 24.0963,24.1922 21.6873,17.8132" id="Fill-116" fill="#FFFFFF"></path>
                    <path d="M33.7019,16.2702 L34.1279,16.0582 C38.9479,13.4702 40.1869,9.6772 37.8479,4.6802 C34.9439,0.1792 30.1229,-0.8658 23.3889,1.5442 C15.1319,4.6632 12.6829,10.4572 16.0529,18.9282 C19.0639,26.8672 23.0689,33.1602 28.0669,37.8022 C29.4139,38.7582 31.1159,38.8122 33.1699,37.9612 L36.9459,35.7282 C39.6389,33.3892 40.2949,31.0682 38.9119,28.7642 L33.7019,16.2702 C29.2379,18.3252 25.2319,18.8392 21.6869,17.8122" id="Stroke-118" stroke="#B0ACD1" stroke-width="1.498" stroke-linecap="round" stroke-linejoin="round"></path>
                    <path d="M24.6638,44.6061 C16.0878,39.3971 10.4528,32.3781 7.7588,23.5531 C12.2598,23.9801 16.7078,23.2871 21.1018,21.4801 C23.5828,20.4171 25.1618,18.8221 25.8338,16.6951 C26.5798,14.5341 25.9388,12.2471 23.9208,9.8371 C20.1638,5.8321 14.9888,5.6901 8.3948,9.4121 C0.3158,14.2321 -1.4402,20.7721 3.1328,29.0301 C7.4578,36.5791 12.8268,42.0731 19.2418,45.5111 C20.8368,46.2211 22.6438,45.9191 24.6638,44.6061" id="Fill-120" fill="#FFFFFF"></path>
                    <path d="M7.7585,23.5534 C10.4515,32.3784 16.0875,39.3964 24.6645,44.6064 L28.1735,41.5774 C30.5825,38.6704 30.8665,36.1894 29.0235,34.1334 L21.1025,21.4804 C16.7075,23.2874 12.2585,23.9804 7.7585,23.5534" id="Fill-122" fill="#D0A7C8"></path>
                    <path d="M21.1033,21.4802 C23.5833,20.4172 25.1623,18.8222 25.8343,16.6952 C26.5803,14.5342 25.9413,12.2472 23.9213,9.8372 C20.1643,5.8322 14.9893,5.6902 8.3963,9.4122 C0.3163,14.2322 -1.4387,20.7722 3.1333,29.0302 C7.4573,36.5792 12.8283,42.0732 19.2433,45.5112 C20.8373,46.2212 22.6453,45.9182 24.6653,44.6062 L28.1733,41.5772 C30.5833,38.6702 30.8683,36.1892 29.0243,34.1332 L21.1033,21.4802 C16.7073,23.2872 12.2593,23.9802 7.7593,23.5532" id="Stroke-124" stroke="#B0ACD1" stroke-width="1.498" stroke-linecap="round" stroke-linejoin="round"></path>
                    <path d="M62.199,59.4391 L62.305,59.4911 L62.305,59.4391 L62.305,59.4911 L62.199,59.4391 L62.253,59.3851 L62.199,59.4391 Z M63.687,50.6941 C65.141,51.2331 66.649,51.5971 68.206,51.7831 L73.629,51.5711 L78.519,50.3471 L82.826,48.1141 C84.245,47.1231 85.503,46.0601 86.6,44.9261 C87.878,43.6131 88.727,42.1081 89.153,40.4071 C89.614,38.6691 89.703,36.9321 89.42,35.1961 C89.171,33.4951 88.444,31.9011 87.24,30.4111 C86.176,29.1001 84.777,28.0721 83.04,27.3281 C82.578,27.1151 82.118,26.9911 81.657,26.9561 L79.983,27.2221 C77.72,26.6811 73.689,27.1411 67.887,28.6031 C59.097,30.8731 53.374,33.1401 50.716,35.4091 C48.021,37.7131 47.084,40.0521 47.897,42.4271 C48.713,44.8001 51.62,46.9811 56.617,48.9671 C59.167,49.9781 61.524,50.5541 63.687,50.6941 L63.687,50.6941 Z M51.036,63.1591 L50.928,63.2131 L49.546,58.6941 C49.226,57.7381 49.068,56.9041 49.068,56.1951 C50.379,56.1611 52.753,56.6381 56.191,57.6311 L62.253,59.3851 L62.305,59.3851 L62.305,59.4391 L62.305,59.3851 L62.253,59.3851 L56.191,57.6311 C52.753,56.6381 50.379,56.1611 49.068,56.1951 L48.377,56.2491 C46.569,56.5311 44.973,57.6151 43.592,59.4911 C42.102,61.5831 41.428,63.7991 41.571,66.1371 C41.678,68.9371 42.954,71.3831 45.399,73.4741 L45.93,73.4221 C45.969,74.3531 46.111,75.2751 46.355,76.1851 C40.746,75.0521 35.297,73.0501 30.008,70.1791 C29.943,70.1381 29.881,70.1031 29.822,70.0721 L29.024,69.4861 L24.133,65.9251 C18.108,61.1401 14.742,54.9921 14.032,47.4771 C13.324,39.9631 15.469,33.3001 20.466,27.4881 C25.427,21.6391 31.79,18.3441 39.551,17.5991 C43.203,17.2451 46.658,17.5111 49.918,18.3961 C53.072,19.4231 57.307,19.3371 62.624,18.1311 L66.24,17.5991 C74.427,16.7841 81.692,18.9111 88.037,23.9791 C94.381,29.0121 97.926,35.4801 98.67,43.3841 C99.414,51.2861 97.18,58.3221 91.971,64.4891 C90.269,66.4391 88.444,68.1231 86.495,69.5401 C84.573,70.9321 82.481,72.1361 80.22,73.1561 C80.11,72.4331 79.932,71.7251 79.689,71.0291 L79.53,70.4981 L80.699,68.1051 C81.054,67.2551 81.178,66.3501 81.072,65.3931 C80.86,62.9121 78.768,61.4231 74.799,60.9281 L68.471,60.4481 L68.42,60.4481 L67.195,60.1831 L65.6,60.1301 L62.465,59.3851 L62.305,59.4391 L62.465,59.3851 L62.412,59.5451 L62.305,59.5981 C62.341,60.9091 62.145,62.1851 61.72,63.4271 C60.799,66.2261 59.08,67.6621 56.563,67.7321 C55.04,67.8031 53.552,66.8471 52.097,64.8621 L51.088,63.1591 L51.036,63.1591 Z M29.024,69.4861 L30.008,70.1791 L29.024,69.4861 Z M24.506,27.1151 C22.449,28.0721 20.855,29.6501 19.721,31.8471 C18.907,33.5491 18.587,35.3911 18.763,37.3751 L19.295,39.4491 C20.218,41.8241 21.936,43.5261 24.454,44.5521 C26.332,45.2611 28.226,45.4571 30.14,45.1371 L32.32,44.4471 L33.491,43.8631 L33.915,43.4891 C39.126,40.7961 44.283,38.2801 49.386,35.9411 L49.811,35.7801 C51.76,34.8241 53.251,33.4251 54.278,31.5801 C55.164,29.9511 55.465,28.2851 55.181,26.5841 C55.181,25.8741 55.005,25.1491 54.65,24.4041 C53.728,21.8521 52.045,20.0271 49.598,18.9281 C47.897,18.0431 46.073,17.7931 44.124,18.1841 L42.102,18.5031 C41.502,18.6801 40.916,18.9451 40.347,19.3001 C35.103,21.7451 29.859,24.3331 24.613,27.0621 L24.506,27.1151 L24.506,27.1151 Z" id="Fill-126" fill="#FFFFFF"></path>
                    <path d="M24.5056,27.1164 C22.4486,28.0734 20.8546,29.6504 19.7206,31.8464 C18.9056,33.5494 18.5866,35.3914 18.7636,37.3764 L19.2936,39.4504 C20.2166,41.8244 21.9356,43.5274 24.4526,44.5534 C26.3316,45.2624 28.2266,45.4574 30.1406,45.1374 L32.3196,44.4484 L33.4906,43.8634 L33.9146,43.4904 C39.1256,40.7964 44.2826,38.2814 49.3856,35.9424 L49.8106,35.7814 C51.7596,34.8244 53.2496,33.4264 54.2766,31.5814 C55.1636,29.9514 55.4636,28.2854 55.1806,26.5844 C55.1806,25.8754 55.0046,25.1494 54.6506,24.4044 C53.7276,21.8534 52.0436,20.0274 49.5976,18.9284 C47.8976,18.0434 46.0716,17.7934 44.1236,18.1854 L42.1026,18.5034 C41.5006,18.6814 40.9156,18.9464 40.3476,19.3014 C35.1026,21.7454 29.8596,24.3334 24.6116,27.0634" id="Fill-128" fill="#B0ACD1"></path>
                    <path d="M45.3982,73.4743 C42.9532,71.3833 41.6772,68.9383 41.5712,66.1383 C41.4282,63.7993 42.1022,61.5833 43.5912,59.4923 C44.9722,57.6153 46.5692,56.5323 48.3772,56.2493 L49.0682,56.1953 C49.0682,56.9043 49.2262,57.7383 49.5452,58.6943 L50.9272,63.2143 L50.8752,63.1603 L50.8222,63.1603 L50.6092,63.2143 L50.5022,63.1603 L50.3432,63.2143 L50.2902,63.1603 L50.2382,63.2143 C48.3232,64.9153 47.0302,67.0603 46.3542,69.6483 C46.0022,70.9223 45.8602,72.1803 45.9302,73.4223 L45.3982,73.4743 Z M74.7982,60.9283 C78.7672,61.4233 80.8602,62.9123 81.0722,65.3943 C81.1782,66.3503 81.0542,67.2553 80.6992,68.1053 L79.5302,70.4983 C79.1042,69.2923 78.4312,68.1053 77.5092,66.9343 C75.4182,63.8533 72.5832,61.7783 69.0032,60.7153 L68.5252,60.5033 L68.4712,60.4493 L74.7982,60.9283 Z" id="Fill-130" fill="#C23A7F"></path>
                    <path d="M46.3542,76.1852 C46.8032,77.7852 47.5832,79.3452 48.6952,80.8642 C51.2102,84.4082 54.7922,86.7842 59.4332,87.9882 C64.0772,89.1582 68.4182,88.7862 72.4582,86.8722 C76.4282,84.8872 78.9452,81.9462 80.0092,78.0462 C80.4002,76.3632 80.4692,74.7322 80.2192,73.1562 C80.1092,72.4342 79.9322,71.7252 79.6882,71.0292 L79.5302,70.4972 C79.1042,69.2912 78.4312,68.1052 77.5092,66.9342 C75.4172,63.8522 72.5832,61.7782 69.0032,60.7152 L68.5232,60.5022 L68.4702,60.4492 L68.4182,60.4492 L67.1952,60.1832 L65.5992,60.1302 L62.4642,59.3852 L62.4122,59.5452 L62.3042,59.5992 C62.3402,60.9102 62.1442,62.1852 61.7202,63.4272 C60.7982,66.2272 59.0802,67.6622 56.5622,67.7322 C55.0402,67.8042 53.5502,66.8462 52.0972,64.8622 L51.0872,63.1602 L51.0352,63.1602 L50.9272,63.2132 L50.8752,63.1602 L50.8212,63.1602 L50.6082,63.2132 L50.5012,63.1602 L50.3422,63.2132 L50.2902,63.1602 L50.2372,63.2132 C48.3222,64.9142 47.0292,67.0602 46.3542,69.6472 C46.0012,70.9222 45.8592,72.1802 45.9302,73.4222 C45.9672,74.3532 46.1112,75.2752 46.3542,76.1852" id="Fill-132" fill="#DB463B"></path>
                    <path d="M79.9822,27.2224 C77.7202,26.6814 73.6892,27.1414 67.8872,28.6034 C59.0972,30.8734 53.3742,33.1404 50.7152,35.4104 C48.0212,37.7134 47.0842,40.0524 47.8972,42.4274 C48.7122,44.8004 51.6202,46.9814 56.6172,48.9674 C59.1672,49.9784 61.5232,50.5544 63.6872,50.6944 C63.4952,50.6164 63.2992,50.5364 63.1022,50.4544 C61.4372,49.7464 59.9302,48.7364 58.5852,47.4234 C57.3072,46.0424 56.4392,44.4824 55.9782,42.7464 C55.4472,40.9744 55.6412,39.2904 56.5632,37.6954 C57.0252,36.7744 57.7322,36.0474 58.6892,35.5154 L67.3022,32.2194 L76.3932,27.8064" id="Fill-134" fill="#D0A7C8"></path>
                    <path d="M63.6863,50.6955 C65.6293,51.4155 67.6633,51.7745 69.7373,51.7165 C70.9993,51.6815 72.3353,51.7385 73.5863,51.5745 C74.7653,51.4185 75.9613,50.9985 77.1153,50.7115 C78.1003,50.4675 78.7633,50.1935 79.6653,49.7495 C82.9863,48.1125 86.6053,45.9205 88.3453,42.5075 C89.6353,39.9785 90.0233,36.8245 89.1693,34.0965 C88.1803,30.9305 86.0133,28.6965 83.0393,27.3295 C82.5783,27.1165 82.4313,27.1325 81.2903,26.9125 C79.3943,26.5495 76.3923,27.8075 76.3923,27.8075 L67.3023,32.2205 L58.6883,35.5165 C57.7333,36.0485 57.0243,36.7755 56.5623,37.6955 C55.6413,39.2915 55.4473,40.9755 55.9783,42.7475 C56.4383,44.4835 57.3073,46.0435 58.5833,47.4245 C59.9293,48.7375 61.4363,49.7475 63.1013,50.4555 C63.2983,50.5375 63.4953,50.6175 63.6863,50.6955" id="Fill-136" fill="#C74B92"></path>
                    <path d="M62.2527,59.3854 L56.1907,57.6314 C52.7527,56.6384 50.3787,56.1614 49.0677,56.1954 L48.3767,56.2494 C46.5687,56.5314 44.9737,57.6154 43.5917,59.4914 C42.1027,61.5834 41.4287,63.7994 41.5707,66.1374 C41.6777,68.9374 42.9537,71.3834 45.3987,73.4744" id="Stroke-138" stroke="#000000" stroke-width="1.498" stroke-linecap="round" stroke-linejoin="round"></path>
                    <path d="M79.53,70.4982 L80.699,68.1052 C81.054,67.2552 81.178,66.3502 81.072,65.3932 C80.86,62.9122 78.768,61.4232 74.799,60.9282 L68.471,60.4482 L68.42,60.4482 L67.195,60.1832 L65.6,60.1302 L62.465,59.3852 L62.305,59.4392" id="Stroke-140" stroke="#000000" stroke-width="1.498" stroke-linecap="round" stroke-linejoin="round"></path>
                    <polygon id="Stroke-142" stroke="#B0ACD1" stroke-width="0.106" stroke-linecap="round" stroke-linejoin="round" points="62.3044 59.4391 62.3044 59.3851 62.2514 59.3851 62.1994 59.4391 62.3044 59.4921"></polygon>
                    <path d="M18.8162,33.7082 L19.0832,33.3892 L19.9872,33.1762 C20.3402,33.2112 20.6062,33.3542 20.7852,33.6012 C20.9982,33.8852 21.0862,34.1692 21.0502,34.4522 L20.5712,35.2502 L19.7752,35.5162 L18.9232,35.1442 L18.6572,34.2392 L18.8162,33.7082 Z M35.7222,35.0912 C35.9352,34.8782 36.2022,34.7712 36.5202,34.7712 L37.3712,35.2502 C37.5842,35.4982 37.6722,35.7992 37.6352,36.1552 L37.1582,37.0042 L36.3062,37.2172 C36.0232,37.1822 35.7572,37.0222 35.5102,36.7392 L35.3502,36.5782 L35.5622,35.5692 L35.5622,35.3022 L35.7222,35.0912 Z M27.0042,33.5492 C26.8972,32.4862 27.1802,31.5452 27.8532,30.7312 C28.5282,29.9512 29.4142,29.5092 30.5122,29.4022 C31.4692,29.3312 32.3902,29.6152 33.2782,30.2522 C34.0562,30.9262 34.5002,31.7942 34.6062,32.8582 C34.6772,33.8852 34.3932,34.7892 33.7552,35.5692 C33.0102,36.4202 32.1622,36.8812 31.2042,36.9512 C30.1042,37.0572 29.1472,36.7562 28.3342,36.0482 C27.5172,35.4102 27.0742,34.5762 27.0042,33.5492 L27.0042,33.5492 Z" id="Fill-144" fill="#000000"></path>
                    <path d="M35.2966,36.5783 C35.1206,37.7483 34.6946,38.7413 34.0226,39.5563 L32.7456,40.9913 C31.2916,42.1253 29.5376,42.6213 27.4816,42.4783 C25.4256,42.2323 23.7956,41.3273 22.5916,39.7683 C21.3506,38.2093 20.8716,36.4543 21.1556,34.5053 L21.4206,33.2303 C21.6686,32.2013 22.1646,31.2453 22.9106,30.3583 L23.8126,29.6153 C25.4096,28.4453 27.1806,27.9493 29.1296,28.1253 C31.1506,28.3383 32.7636,29.2233 33.9676,30.7833 C35.0306,32.2013 35.5616,33.7073 35.5616,35.3023 L35.5616,35.5683 L35.3506,36.5783 L35.2966,36.5783 Z M27.0026,33.5493 C27.0736,34.5763 27.5176,35.4103 28.3326,36.0473 C29.1466,36.7563 30.1046,37.0573 31.2036,36.9513 C32.1616,36.8803 33.0106,36.4193 33.7556,35.5683 C34.3926,34.7893 34.6766,33.8853 34.6056,32.8573 C34.4996,31.7943 34.0566,30.9263 33.2766,30.2513 C32.3906,29.6153 31.4696,29.3303 30.5126,29.4013 C29.4136,29.5083 28.5276,29.9513 27.8526,30.7303 C27.1806,31.5453 26.8966,32.4853 27.0026,33.5493 L27.0026,33.5493 Z" id="Fill-146" fill="#FFFFFF"></path>
                    <polyline id="Stroke-148" stroke="#000000" stroke-width="1.498" stroke-linecap="round" stroke-linejoin="round" points="35.5623 35.3024 35.5623 35.5694 35.3513 36.5784"></polyline>
                    <path d="M35.5623,35.3024 C35.5623,33.7084 35.0313,32.2024 33.9683,30.7844 C32.7633,29.2244 31.1513,28.3394 29.1293,28.1264 C27.1803,27.9494 25.4103,28.4454 23.8133,29.6154 L22.9123,30.3594 C22.1663,31.2464 21.6693,32.2024 21.4213,33.2314 L21.1573,34.5054 C20.8723,36.4554 21.3513,38.2104 22.5913,39.7684 C23.7953,41.3284 25.4263,42.2334 27.4833,42.4794 C29.5393,42.6224 31.2913,42.1264 32.7473,40.9924 L34.0223,39.5564 C34.6953,38.7424 35.1213,37.7494 35.2973,36.5784 L35.3513,36.5784" id="Stroke-150" stroke="#000000" stroke-width="1.498" stroke-linecap="round" stroke-linejoin="round"></path>
                    <path d="M49.6257,20.9484 C48.4357,20.3264 47.1327,20.0774 45.7177,20.2054 C43.7327,20.3814 42.1027,21.2324 40.8267,22.7574 C39.5507,24.3874 39.0017,26.1404 39.1787,28.0204 C39.1437,28.6564 39.2667,29.2784 39.5507,29.8814 C39.9397,30.9444 40.5427,31.8664 41.3587,32.6444 L41.3587,32.6984 L41.6247,32.8584 L42.1557,33.2834 L42.3687,33.4954 C43.7157,34.3824 45.2577,34.7714 46.9937,34.6654 C48.9437,34.5234 50.5737,33.6554 51.8847,32.0604 C53.1257,30.5724 53.6747,28.8174 53.5327,26.7974 L53.4267,25.6794 C53.3137,25.2934 53.1737,24.9214 53.0017,24.5644 C53.0387,25.5254 52.7547,26.3774 52.1507,27.1164 C51.4067,27.9664 50.5557,28.4274 49.5987,28.4984 C48.5007,28.6044 47.5427,28.3034 46.7277,27.5944 C45.9127,26.9564 45.4697,26.1234 45.3977,25.0954 C45.2927,24.0324 45.5757,23.0934 46.2497,22.2774 C46.9227,21.4994 47.8087,21.0554 48.9077,20.9484 C49.1457,20.9314 49.3837,20.9314 49.6257,20.9484" id="Fill-152" fill="#FFFFFF"></path>
                    <path d="M41.6248,32.8571 L42.1558,33.2821 L42.3688,33.4951 L42.4218,33.7071 C42.4578,34.0631 42.3868,34.3631 42.2098,34.6121 C41.9968,34.8601 41.7298,35.0011 41.4118,35.0371 C41.0578,35.0721 40.7558,34.9851 40.5078,34.7711 L40.0298,33.9201 L40.3478,33.0691 C40.5258,32.8221 40.7918,32.6801 41.1458,32.6441 L41.3588,32.6971 L41.6248,32.8571 Z M53.0018,24.5631 C53.0388,25.5241 52.7548,26.3781 52.1508,27.1151 C51.4068,27.9661 50.5558,28.4261 49.5988,28.4981 C48.5008,28.6031 47.5438,28.3021 46.7278,27.5941 C45.9128,26.9561 45.4698,26.1231 45.3988,25.0951 C45.2928,24.0311 45.5758,23.0941 46.2498,22.2771 C46.9228,21.4991 47.8088,21.0551 48.9078,20.9471 C49.1458,20.9301 49.3838,20.9301 49.6258,20.9471 C49.9828,20.9961 50.3368,21.0941 50.6898,21.2401 L50.5558,21.0031 L50.8748,20.1501 C51.0528,19.9041 51.3188,19.7611 51.6728,19.7251 L52.0978,19.7791 L52.5758,19.9911 L52.8418,20.4171 L52.9488,20.7891 C52.9838,21.1431 52.9138,21.4441 52.7358,21.6931 C52.5148,21.9131 52.2668,22.0471 51.9918,22.0921 C52.5738,22.7231 52.9098,23.4951 53.0018,24.4041 C53.0058,24.4571 53.0058,24.5111 53.0018,24.5631 L53.0018,24.5631 Z" id="Fill-154" fill="#000000"></path>
                    <path d="M53.0017,24.5641 C53.3347,25.3901 53.4287,25.7811 53.4267,25.6801 C53.4257,25.5791 53.5327,26.7971 53.5327,26.7971 C53.6747,28.8171 53.1257,30.5721 51.8847,32.0601 C50.5737,33.6551 48.9437,34.5231 46.9937,34.6651 C45.2577,34.7711 43.7157,34.3821 42.3687,33.4961 L42.1557,33.2831 L41.6247,32.8581 L41.3587,32.6981 L41.3587,32.6451 C40.5437,31.8661 39.9397,30.9441 39.5507,29.8811 C39.2667,29.2781 39.1437,28.6571 39.1787,28.0201 C39.0017,26.1411 39.5507,24.3871 40.8267,22.7571 C42.1027,21.2321 43.7317,20.3811 45.7177,20.2061 C47.1327,20.0771 48.6187,20.5361 49.6257,20.9481 C50.6327,21.3611 52.3557,22.9651 53.0017,24.5641 Z" id="Stroke-156" stroke="#000000" stroke-width="1.498" stroke-linecap="round" stroke-linejoin="round"></path>
                    <path d="M4.0906,81.2365 C3.6646,81.6625 3.2386,82.6205 2.8146,84.1075 C2.3536,85.7025 2.1236,87.1215 2.1236,88.3605" id="Stroke-158" stroke="#000000" stroke-width="1.498" stroke-linecap="round" stroke-linejoin="round"></path>
                    <path d="M8.1316,81.0773 C7.4226,81.5383 6.8546,82.6543 6.4296,84.4263 C5.9686,86.3053 5.8626,88.0053 6.1116,89.5293" id="Stroke-160" stroke="#000000" stroke-width="1.498" stroke-linecap="round" stroke-linejoin="round"></path>
                    <path d="M20.3572,79.5353 L21.7402,80.6523" id="Stroke-162" stroke="#000000" stroke-width="1.498" stroke-linecap="round" stroke-linejoin="round"></path>
                    <polyline id="Stroke-164" stroke="#000000" stroke-width="1.498" stroke-linecap="round" stroke-linejoin="round" points="17.7527 81.2365 18.9237 81.7145 19.7747 82.4065"></polyline>
                    <path d="M30.0066,70.1794 L29.0236,69.4864 L24.1316,65.9254 C18.1076,61.1404 14.7406,54.9924 14.0306,47.4774 C13.3236,39.9634 15.4676,33.3004 20.4646,27.4884 C25.4256,21.6394 31.7896,18.3444 39.5496,17.5994 C43.2016,17.2454 46.6566,17.5114 49.9166,18.3964 C53.0706,19.4234 57.3066,19.3374 62.6226,18.1314 L66.2386,17.5994 C74.4256,16.7844 81.6906,18.9114 88.0356,23.9794 C94.3806,29.0124 97.9246,35.4804 98.6686,43.3844 C99.4126,51.2864 97.1796,58.3224 91.9706,64.4894 C90.2686,66.4394 88.4446,68.1234 86.4936,69.5404 C84.5716,70.9324 82.4806,72.1364 80.2196,73.1564" id="Stroke-166" stroke="#B0ACD1" stroke-width="1.498" stroke-linecap="round" stroke-linejoin="round"></path>
                    <path d="M31.6296,71.3474 L30.0076,70.1794" id="Stroke-168" stroke="#B0ACD1" stroke-width="1.498" stroke-linecap="round" stroke-linejoin="round"></path>
                    <path d="M36.0945,18.5031 L41.0385,17.6531" id="Stroke-170" stroke="#000000" stroke-width="3.19" stroke-linecap="round" stroke-linejoin="round"></path>
                    <path d="M19.2937,29.2433 C20.0397,27.7893 21.1567,26.5843 22.6447,25.6273" id="Stroke-172" stroke="#000000" stroke-width="3.19" stroke-linecap="round" stroke-linejoin="round"></path>
                    <path d="M594.5369,470.8786 C594.4169,478.1066 594.6559,485.9376 592.6869,490.3246 C590.2099,495.8006 590.0769,498.1676 592.6139,500.6246 C595.1559,503.0616 602.9499,503.2756 604.8979,495.2966 C605.5219,492.7606 606.8619,481.3146 606.2169,472.9046 C605.5699,464.4706 594.5869,466.9886 594.5369,470.8786" id="Fill-174" fill="#397F7F"></path>
                    <path d="M615.9246,469.8644 C615.1946,472.7434 614.3756,482.6654 615.2626,486.5324 C616.2346,490.7734 620.3706,494.5774 617.2976,500.0344 C615.1276,503.8584 608.6066,505.1154 604.5716,499.5344 C601.4486,495.2564 602.2716,488.1404 603.6536,470.2994 C605.0386,452.4824 616.6306,466.9994 615.9246,469.8644" id="Fill-176" fill="#489C9A"></path>
                    <path d="M604.5564,497.9816 C604.5564,497.8596 604.5294,497.7356 604.4704,497.6196 C602.6334,493.9696 603.0624,484.3426 604.0774,476.5516 C604.1424,476.0946 603.8234,475.7056 603.3824,475.6486 C602.9404,475.5906 602.5354,475.9016 602.4784,476.3436 C601.9694,480.2386 600.5074,493.3406 603.0304,498.3456 C603.2304,498.7436 603.7154,498.9036 604.1134,498.7026 C604.3954,498.5616 604.5564,498.2766 604.5564,497.9816" id="Fill-178" fill="#0F3A26"></path>
                    <path d="M587.2361,448.9191 C587.4431,440.8521 587.8881,434.5491 588.5781,430.0121 C587.8881,434.5491 587.4431,440.8521 587.2361,448.9191 L587.2361,448.9191 Z M615.3601,447.8181 C613.6801,448.2041 611.9731,448.5261 610.2371,448.7821 C610.1521,447.1841 610.0851,445.6471 610.0311,444.1751 C609.7281,435.2701 610.0491,428.8291 610.9931,424.8521 C612.2321,419.6241 615.3251,416.4421 620.2771,415.2941 C620.4231,415.4581 620.5601,415.6261 620.6901,415.8081 C620.7401,415.7511 620.7861,415.6941 620.8281,415.6391 C623.3011,417.1041 624.8831,420.2231 625.5711,424.9901 C626.2581,430.0791 626.4201,436.8621 626.0521,445.3461 L626.0521,448.7121 C624.6751,449.1321 623.2321,449.4091 621.7201,449.5381 C619.7501,449.7131 617.6651,449.6431 615.4641,449.3341 C615.4261,448.8321 615.3911,448.3311 615.3601,447.8181 C615.0151,442.0701 615.0941,435.2601 615.6011,427.3961 C615.0941,435.2601 615.0151,442.0701 615.3601,447.8181 L615.3601,447.8181 Z M617.0461,460.5421 C618.7411,460.7941 620.2901,460.9091 621.6871,460.8851 C623.5951,460.8421 625.2341,460.5451 626.6011,459.9891 L627.0851,462.1221 C627.7721,463.4051 628.5061,463.8641 629.2841,463.4991 C630.3841,462.3501 631.2551,462.0981 631.8981,462.7391 C632.5861,463.3351 632.4711,464.5731 631.5551,466.4561 C630.0401,468.3801 628.1151,469.4351 625.7781,469.6191 C623.8571,469.8381 622.1611,469.2191 620.6901,467.7611 C619.6921,466.7861 618.7981,465.4331 618.0071,463.7051 L617.0461,460.5421 L617.0461,460.5421 Z M589.4601,469.1251 C589.4601,469.1251 587.7781,469.5621 586.3841,467.3941 C584.6541,464.7051 585.0021,461.4341 585.0021,461.4341 L587.4761,461.4341 C587.6241,463.3181 588.9181,467.5451 589.4601,469.1251 L589.4601,469.1251 Z M597.1731,410.8251 L597.2411,410.8251 C602.9721,409.8611 608.8621,409.8611 614.9141,410.8251 L614.8441,413.4021 L616.2881,413.7141 C616.2401,413.7271 616.1931,413.7341 616.1511,413.7471 L614.9821,414.1231 C614.9201,414.1511 614.8631,414.1711 614.8111,414.1951 C614.6351,414.2671 614.4651,414.3481 614.2951,414.4351 L610.1011,418.1491 C606.6541,423.0711 605.1641,431.7711 605.6311,444.2441 C605.6861,445.8811 605.7801,447.5771 605.9051,449.3341 L605.9051,449.4021 L594.4231,449.4021 L594.4231,449.2651 C594.3001,447.6211 594.2091,446.0281 594.1471,444.4871 C593.6751,433.0671 594.7651,424.0501 597.4141,417.4271 C597.5671,417.0421 597.7291,416.6641 597.8931,416.2911 C598.2861,415.4101 598.7121,414.5731 599.1681,413.7801 C598.4121,413.8231 597.7461,413.9261 597.1731,414.0921 L597.1731,410.8251 Z M595.7271,414.7451 C595.6301,414.8071 595.5381,414.8761 595.4531,414.9511 L594.8001,415.7421 L594.5601,416.0511 L594.5931,416.0511 C594.5561,416.0961 594.5211,416.1441 594.4901,416.1901 C594.5211,416.1441 594.5561,416.0961 594.5931,416.0511 L594.6271,416.0511 L594.4901,416.1901 L594.4231,416.2581 C591.3471,420.9091 589.9271,430.3421 590.1581,444.5531 C590.1681,444.9201 590.1781,445.2871 590.1931,445.6541 L590.2971,449.1251 L587.2361,448.9191 C587.2381,448.9891 587.2381,449.0571 587.2361,449.1251 L585.4151,448.9891 L586.0331,433.2421 C586.1621,423.8331 589.3951,417.6671 595.7271,414.7451 L595.7271,414.7451 Z" id="Fill-180" fill="#C3D458"></path>
                    <path d="M615.4636,449.3317 C617.6666,449.6417 619.7516,449.7117 621.7226,449.5367 C623.2346,449.4077 624.6776,449.1327 626.0546,448.7127 C625.8696,453.6637 626.0546,457.4227 626.6036,459.9887 C625.2346,460.5437 623.5956,460.8407 621.6876,460.8847 C620.2896,460.9067 618.7426,460.7947 617.0456,460.5397 C616.2216,457.5137 615.6936,453.7787 615.4636,449.3317 M585.4146,448.9867 L587.2356,449.1247 C587.1736,452.0177 587.2326,455.1817 587.4076,458.6157 C587.3876,459.5907 587.4076,460.5287 587.4766,461.4327 L585.0036,461.4327" id="Fill-182" fill="#E288B2"></path>
                    <path d="M625.2527,449.7316 C624.1347,450.0096 622.9747,450.2016 621.7907,450.3026 C620.0577,450.4566 618.2077,450.4256 616.2837,450.2106 C616.5187,453.9556 616.9807,457.1916 617.6577,459.8516 C619.1037,460.0466 620.4507,460.1356 621.6697,460.1156 C623.2097,460.0806 624.5687,459.8706 625.7237,459.4926 C625.3867,457.5976 625.2177,455.1476 625.2177,452.1766 C625.2177,451.3976 625.2297,450.5826 625.2527,449.7316 L625.2527,449.7316 Z M626.8927,460.7006 C625.4487,461.2866 623.7037,461.6066 621.6997,461.6526 C620.2527,461.6766 618.6487,461.5576 616.9317,461.3006 L616.4357,461.2256 L616.3037,460.7426 C615.4697,457.6786 614.9287,453.8546 614.6957,449.3716 L614.6487,448.4406 L615.5707,448.5706 C617.7137,448.8726 619.7607,448.9396 621.6577,448.7706 C623.1037,448.6476 624.5077,448.3806 625.8307,447.9776 L626.8627,447.6636 L626.8217,448.7416 C626.6437,453.5996 626.8207,457.3296 627.3557,459.8276 L627.4897,460.4586 L626.8927,460.7006 Z" id="Fill-184" fill="#E288B2"></path>
                    <path d="M586.6394,458.654 C586.4784,455.476 586.4154,452.517 586.4544,449.837 L586.1564,449.815 L585.7984,460.664 L586.6604,460.664 C586.6414,460.24 586.6314,459.808 586.6314,459.368 C586.6314,459.132 586.6344,458.894 586.6394,458.654 L586.6394,458.654 Z M584.2094,462.201 L584.6724,448.16 L588.0204,448.413 L588.0054,449.142 C587.9464,451.968 588.0024,455.144 588.1764,458.631 C588.1534,459.622 588.1774,460.519 588.2434,461.375 L588.3044,462.201 L584.2094,462.201 Z" id="Fill-186" fill="#E288B2"></path>
                    <path d="M593.323,459.3015 C593.156,459.9095 593.441,460.6235 594.18,461.4325 C594.435,461.7125 594.745,461.9985 595.11,462.2915 C595.43,462.5715 595.796,462.8595 596.211,463.1525 C595.341,466.1775 595.499,468.0575 596.689,468.7915 C597.885,469.5695 599.51,468.8375 601.575,466.5905 C603.682,468.8375 605.288,469.5495 606.386,468.7215 C607.487,467.8975 607.487,466.1095 606.386,463.3585 C608.77,461.2035 609.758,459.5535 609.345,458.4085 C608.84,457.2625 606.983,456.9195 603.772,457.3745 C602.719,454.7185 601.735,453.4795 600.815,453.6625 C599.855,453.7565 598.915,455.2915 597.999,458.2705 C596.817,458.0905 595.854,458.0555 595.11,458.1675 C594.149,458.3035 593.553,458.6815 593.323,459.3015 M597.173,414.0925 C597.746,413.9265 598.412,413.8215 599.168,413.7805 C598.712,414.5715 598.286,415.4085 597.893,416.2895 C597.731,416.6615 597.569,417.0395 597.414,417.4255 C594.765,424.0485 593.676,433.0685 594.147,444.4855 C594.209,446.0265 594.301,447.6195 594.424,449.2635 L594.424,449.4005 L605.907,449.4005 L605.907,449.3315 C605.78,447.5745 605.687,445.8795 605.631,444.2415 C605.164,431.7695 606.654,423.0715 610.101,418.1475 L614.295,414.4335 C614.465,414.3465 614.637,414.2675 614.811,414.1935 C614.864,414.1735 614.92,414.1495 614.982,414.1235 L616.151,413.7455 C616.195,413.7345 616.24,413.7255 616.29,413.7145 C617.755,413.8945 619.086,414.4225 620.279,415.2925 C615.327,416.4405 612.232,419.6265 610.993,424.8505 C610.052,428.8265 609.728,435.2675 610.031,444.1755 C610.085,445.6445 610.152,447.1825 610.237,448.7805 C611.973,448.5245 613.68,448.2015 615.362,447.8185 C615.391,448.3285 615.427,448.8325 615.464,449.3315 C615.694,453.7785 616.219,457.5135 617.046,460.5405 L618.008,463.7035 C618.799,465.4305 619.692,466.7855 620.69,467.7595 C620.174,469.5695 619.486,470.9445 618.627,471.8845 C616.382,474.4065 611.797,475.7805 604.875,476.0105 C598.915,476.1025 594.652,474.8895 592.085,472.3655 C590.486,470.7695 589.294,468.8565 588.511,466.6255 C587.967,465.0455 587.624,463.3165 587.476,461.4325 C587.408,460.5295 586.962,456.6285 587.236,449.1235 C587.238,449.0555 587.238,448.9875 587.236,448.9195 L590.297,449.1235 L590.193,445.6545 C589.871,430.8025 591.303,420.9815 594.49,416.1885 C591.303,420.9815 589.871,430.8025 590.193,445.6545 C590.178,445.2855 590.168,444.9185 590.158,444.5515 C589.927,430.3405 591.349,420.9075 594.424,416.2565 L594.49,416.1885 L594.627,416.0505 L594.56,416.0505 L594.801,415.7395 C594.732,415.8455 594.664,415.9505 594.594,416.0505 C594.664,415.9505 594.732,415.8455 594.801,415.7395 L595.453,414.9495 C595.538,414.8735 595.63,414.8055 595.729,414.7425 C596.118,414.4625 596.599,414.2445 597.173,414.0925" id="Fill-188" fill="#489C9A"></path>
                    <path d="M593.323,459.3015 C593.156,459.9095 593.441,460.6235 594.18,461.4325 C594.435,461.7125 594.745,461.9985 595.11,462.2915 C595.43,462.5715 595.796,462.8595 596.211,463.1525 C595.341,466.1775 595.499,468.0575 596.689,468.7915 C597.885,469.5695 599.51,468.8375 601.575,466.5905 C603.682,468.8375 605.288,469.5495 606.386,468.7215 C607.487,467.8975 607.487,466.1095 606.386,463.3585 C608.77,461.2035 609.758,459.5535 609.345,458.4085 C608.84,457.2625 606.983,456.9195 603.772,457.3745 C602.719,454.7185 601.735,453.4795 600.815,453.6625 C599.855,453.7565 598.915,455.2915 597.999,458.2705 C596.817,458.0905 595.854,458.0555 595.11,458.1675 C594.149,458.3035 593.553,458.6815 593.323,459.3015" id="Fill-190" fill="#F3F7EF"></path>
                    <path d="M589.5935,430.0119 C589.5935,429.5179 589.2335,429.0859 588.7305,429.0099 C588.1775,428.9259 587.6605,429.3069 587.5755,429.8609 C586.8845,434.4109 586.4295,440.8139 586.2235,448.8929 C586.2095,449.4209 586.6505,449.9179 587.2105,449.9319 C587.7705,449.9469 588.2365,449.5049 588.2495,448.9449 C588.4545,440.9499 588.9025,434.6309 589.5815,430.1649 C589.5885,430.1139 589.5935,430.0619 589.5935,430.0119" id="Fill-192" fill="#8EA14E"></path>
                    <path d="M616.615,427.3957 C616.615,426.8657 616.204,426.4187 615.667,426.3847 C615.108,426.3487 614.626,426.7727 614.59,427.3327 C614.082,435.1927 614.002,442.1067 614.348,447.8787 C614.38,448.3977 614.415,448.9027 614.453,449.4087 C614.493,449.9667 614.979,450.3867 615.539,450.3447 C616.097,450.3047 616.522,449.8087 616.474,449.2597 L616.372,447.7557 C616.031,442.0667 616.111,435.2397 616.613,427.4617 C616.615,427.4397 616.615,427.4177 616.615,427.3957" id="Fill-194" fill="#8EA14E"></path>
                    <path d="M626.8787,408.2097 L625.5027,408.8967 L626.8787,408.2097 Z M648.9517,403.8117 C649.5477,402.6647 649.8907,401.4497 649.9827,400.1677 C649.8907,401.4497 649.5477,402.6647 648.9517,403.8117 L648.9517,403.8117 Z M668.4807,377.2007 L673.9127,373.4177 L668.4807,377.2007 Z M668.9627,341.8577 L667.1047,341.0317 L668.9627,341.8577 Z M648.8147,329.7517 C652.4807,329.2937 656.1037,330.1207 659.6797,332.2297 C663.1167,334.2917 665.4087,336.7897 666.5557,339.7227 L667.1047,341.0317 C668.2047,344.6967 668.1817,348.4347 667.0347,352.2377 C665.8437,356.3177 663.5277,359.7317 660.0907,362.4817 C663.5277,359.7317 665.8437,356.3177 667.0347,352.2377 C668.1817,348.4347 668.2047,344.6967 667.1047,341.0317 L666.5557,339.7227 C665.4087,336.7897 663.1167,334.2917 659.6797,332.2297 C656.1037,330.1207 652.4807,329.2937 648.8147,329.7517 L648.8147,329.7517 Z M623.9237,388.1327 C625.5707,389.8287 627.6117,390.7007 630.0397,390.7447 C632.4717,390.7447 634.5567,389.8747 636.2987,388.1327 C638.0407,386.4827 638.9127,384.4417 638.9127,382.0117 C638.9587,379.5857 638.1327,377.5197 636.4367,375.8237 C634.7867,374.1737 632.7477,373.3477 630.3167,373.3477 C627.8407,373.3037 625.7557,374.1287 624.0597,375.8237 C622.3617,377.4757 621.4917,379.5157 621.4467,381.9437 C621.4467,384.3737 622.2717,386.4347 623.9237,388.1327 L623.9237,388.1327 Z M552.2697,381.3247 L549.7957,380.7067 L552.2697,381.3247 Z M571.7317,386.6877 C573.3327,388.3387 575.3077,389.1887 577.6437,389.2307 C580.0727,389.2307 582.1377,388.3827 583.8337,386.6877 C585.5267,384.9927 586.3997,382.9727 586.4447,380.6387 C586.4447,378.2977 585.6217,376.3047 583.9697,374.6567 C582.2747,373.0047 580.2327,372.1547 577.8497,372.1127 C575.5117,372.1127 573.4947,372.9387 571.7997,374.5867 C570.1037,376.2847 569.2327,378.2977 569.1857,380.6387 C569.1857,382.9727 570.0347,384.9927 571.7317,386.6877 L571.7317,386.6877 Z M550.9627,345.0887 L549.7957,341.3067 L550.9627,345.0887 Z M567.9477,343.5717 C564.7847,338.8067 563.8467,333.9917 565.1297,329.1357 C566.5047,323.9557 570.1947,319.8517 576.1987,316.8227 C580.9687,314.3517 586.1947,313.9587 591.8777,315.6567 C597.9287,317.4907 601.5047,320.9507 602.6057,326.0407 C601.5047,320.9507 597.9287,317.4907 591.8777,315.6567 C586.1947,313.9587 580.9687,314.3517 576.1987,316.8227 C570.1947,319.8517 566.5047,323.9557 565.1297,329.1357 C563.8467,333.9917 564.7847,338.8067 567.9477,343.5717 L567.9477,343.5717 Z M616.5647,327.5517 C618.1677,323.0597 620.9417,319.8727 624.8857,317.9937 C628.8267,316.0217 633.2507,315.8147 638.1547,317.3747 C642.8777,318.9337 646.0877,321.8927 647.7827,326.2467 C648.2407,327.3937 648.5857,328.5607 648.8147,329.7517 C649.3167,332.7797 648.9957,335.9157 647.8517,339.1747 C648.9957,335.9157 649.3167,332.7797 648.8147,329.7517 C648.5857,328.5607 648.2407,327.3937 647.7827,326.2467 C646.0877,321.8927 642.8777,318.9337 638.1547,317.3747 C633.2507,315.8147 628.8267,316.0217 624.8857,317.9937 C620.9417,319.8727 618.1677,323.0597 616.5647,327.5517 L616.5647,327.5517 Z M602.1907,412.0607 C592.5657,412.3847 583.1917,409.5627 574.0677,403.6047 C564.9007,405.3007 558.0927,403.1917 553.6467,397.2777 C550.0247,392.4667 548.7407,386.9417 549.7957,380.7067 C546.2197,379.6537 543.3767,377.8887 541.2697,375.4107 C538.6547,372.4777 537.2117,368.5127 536.9357,363.5147 C536.7067,358.7917 537.6927,354.5337 539.8947,350.7247 C542.1377,346.7837 545.4397,343.6437 549.7957,341.3067 C548.5587,337.0427 548.2817,333.0547 548.9697,329.3417 C549.8397,324.3887 552.3607,320.0347 556.5327,316.2757 C560.1557,312.8857 564.8747,310.7967 570.6987,310.0187 C576.1987,309.1907 581.1967,309.7427 585.6897,311.6667 C588.5297,306.4867 592.0587,302.5217 596.2777,299.7747 C600.7717,296.9287 605.8137,295.505765 611.4077,295.505765 C618.2377,295.4647 623.7387,296.8377 627.9107,299.6327 C632.2207,302.5217 635.2437,306.8337 636.9857,312.5617 C640.8367,310.0867 645.4437,309.0787 650.8087,309.5397 C656.1247,309.9047 660.4817,311.6667 663.8727,314.8307 C667.9987,318.7297 670.4507,323.1057 671.2307,327.9647 C671.9177,332.5057 671.1617,337.1307 668.9627,341.8577 C671.5747,342.9547 673.6137,344.2597 675.0817,345.7767 C677.5577,348.5267 679.2317,351.5987 680.1017,354.9887 C681.7047,362.0937 679.6427,368.2337 673.9127,373.4177 C675.9757,377.4067 676.9157,381.3007 676.7317,385.1067 C676.4567,389.2307 674.9427,393.0377 672.1927,396.5207 C669.7187,399.7757 666.2337,402.0447 661.7417,403.3277 C657.5247,404.5647 653.2607,404.7297 648.9517,403.8117 L647.3707,406.4227 C645.8117,408.3477 643.9327,409.7247 641.7317,410.5507 C638.9347,411.5117 636.0017,411.8337 632.9287,411.5117 C629.9027,411.2387 627.4277,410.3647 625.5027,408.8967 C622.1567,410.5507 617.6187,411.5357 611.8897,411.8547 L602.1907,412.0607 L602.1907,412.0607 Z" id="Fill-196" fill="#C3D458"></path>
                    <path d="M623.9236,388.1325 C622.2716,386.4365 621.4466,384.3755 621.4466,381.9455 C621.4916,379.5135 622.3636,377.4765 624.0596,375.8235 C625.7556,374.1295 627.8406,373.3035 630.3186,373.3475 C632.7476,373.3475 634.7866,374.1755 636.4386,375.8235 C638.1326,377.5195 638.9586,379.5845 638.9126,382.0135 C638.9126,384.4435 638.0426,386.4825 636.3006,388.1325 C634.5586,389.8745 632.4716,390.7445 630.0416,390.7445 C627.6116,390.7005 625.5726,389.8305 623.9236,388.1325 M571.7316,386.6885 C570.0366,384.9945 569.1876,382.9745 569.1876,380.6385 C569.2336,378.2995 570.1056,376.2825 571.8006,374.5865 C573.4966,372.9385 575.5116,372.1125 577.8516,372.1125 C580.2356,372.1565 582.2746,373.0045 583.9696,374.6545 C585.6236,376.3065 586.4466,378.2995 586.4466,380.6385 C586.4016,382.9745 585.5286,384.9945 583.8336,386.6885 C582.1376,388.3845 580.0736,389.2325 577.6446,389.2325 C575.3076,389.1865 573.3346,388.3385 571.7316,386.6885" id="Fill-198" fill="#DDB0B8"></path>
                    <path d="M603.6179,326.0392 C603.6179,325.9682 603.6099,325.8962 603.5949,325.8242 C602.4169,320.3742 598.5739,316.6262 592.1729,314.6852 C586.2509,312.9182 580.7209,313.3352 575.7319,315.9242 C569.4989,319.0672 565.5979,323.4262 564.1489,328.8752 C562.7979,334.0042 563.7879,339.1402 567.1039,344.1342 C567.4139,344.6012 568.0429,344.7282 568.5099,344.4192 C568.9749,344.1082 569.1029,343.4792 568.7929,343.0132 C565.7689,338.4582 564.8899,334.0022 566.1089,329.3942 C567.4019,324.5312 570.9499,320.6062 576.6549,317.7302 C581.1719,315.3872 586.1919,315.0182 591.5889,316.6272 C597.3069,318.3622 600.5889,321.5102 601.6119,326.2522 C601.7299,326.8002 602.2699,327.1472 602.8179,327.0292 C603.2929,326.9262 603.6179,326.5062 603.6179,326.0392" id="Fill-200" fill="#8EA14E"></path>
                    <path d="M650.0564,332.5515 C650.0564,331.5505 649.9744,330.5595 649.8124,329.5835 C649.5734,328.3295 649.2084,327.0885 648.7254,325.8725 C646.9244,321.2465 643.4754,318.0615 638.4744,316.4135 C633.3234,314.7755 628.6014,315.0035 624.4304,317.0885 C620.2734,319.0675 617.2994,322.4775 615.6094,327.2135 C615.4204,327.7385 615.6974,328.3205 616.2224,328.5095 C616.7494,328.6975 617.3304,328.4225 617.5184,327.8955 C619.0224,323.6825 621.6474,320.6595 625.3194,318.9105 C629.0194,317.0625 633.2294,316.8735 637.8504,318.3425 C642.2994,319.8095 645.2434,322.5155 646.8374,326.6155 C647.2774,327.7185 647.6054,328.8365 647.8154,329.9415 C648.2864,332.7595 647.9784,335.7595 646.8954,338.8365 C646.7074,339.3595 646.9864,339.9435 647.5144,340.1295 C648.0414,340.3155 648.6214,340.0385 648.8074,339.5095 C649.6394,337.1495 650.0564,334.8205 650.0564,332.5515" id="Fill-202" fill="#8EA14E"></path>
                    <path d="M596.5535,396.1091 C595.7755,393.8171 595.9805,391.7091 597.1725,389.7841 C598.5035,387.8121 600.6785,386.4601 603.7035,385.7271 L613.1945,385.4501 C615.4885,386.2761 617.0455,387.8561 617.8685,390.1951 L618.1465,389.7841 C620.3935,386.5281 620.4375,383.2511 618.2825,379.9491 C617.2765,378.4821 615.8305,377.5891 613.9515,377.2671 C611.9355,376.9021 609.5275,377.3591 606.7315,378.6441 C603.5215,380.1091 599.7415,380.6831 595.3845,380.3621 C593.2775,380.1331 591.5335,380.6141 590.1575,381.8051 C588.4625,383.1381 587.7545,385.1751 588.0275,387.9271 C589.4025,392.3741 592.2425,395.1011 596.5535,396.1091" id="Fill-204" fill="#CB4587"></path>
                    <path d="M596.5535,396.1091 L606.9375,396.1091 C611.9355,395.2831 615.5775,393.3121 617.8685,390.1951 C617.0455,387.8561 615.4885,386.2761 613.1945,385.4501 L603.7035,385.7271 C600.6785,386.4601 598.5035,387.8121 597.1725,389.7841 C595.9805,391.7091 595.7755,393.8171 596.5535,396.1091" id="Fill-206" fill="#E286B0"></path>
                    <path d="M588.9753,387.736 C590.5993,392.823 595.4063,394.728 596.8483,395.194 C600.4033,396.334 606.6973,395.175 606.7813,395.159 C611.4973,394.38 614.9673,392.518 617.0713,389.659 L617.3543,389.237 C619.3753,386.31 619.4143,383.444 617.4883,380.493 C616.6293,379.24 615.4193,378.495 613.7813,378.214 C611.9673,377.886 609.7313,378.325 607.1313,379.519 C603.7863,381.046 599.8103,381.653 595.2813,381.319 C593.4333,381.118 591.9623,381.515 590.7533,382.561 C589.5323,383.522 588.9313,384.919 588.9313,386.814 C588.9313,387.11 588.9463,387.417 588.9753,387.736 M618.9443,390.32 L618.6453,390.765 C616.2103,394.076 612.3253,396.194 607.1163,397.055 C606.8383,397.107 600.2793,398.316 596.2583,397.026 C596.2583,397.026 596.2573,397.026 596.2573,397.025 C591.7893,395.584 588.3693,392.29 587.1083,388.212 C587.0873,388.15 587.0753,388.087 587.0693,388.022 C586.7713,384.944 587.6033,382.591 589.5283,381.078 C591.1083,379.711 593.1123,379.148 595.4543,379.403 C599.6243,379.71 603.2853,379.159 606.3293,377.77 C609.2923,376.408 611.9143,375.921 614.1153,376.318 C616.2543,376.686 617.9233,377.725 619.0873,379.423 C620.2543,381.209 620.8363,383.001 620.8363,384.786 C620.8363,386.644 620.2053,388.494 618.9443,390.32" id="Fill-208" fill="#000000"></path>
                    <path d="M646.8875,364.4782 C646.8875,364.3242 646.8615,364.1672 646.8065,364.0142 C646.3475,362.7352 645.6515,361.4962 644.7385,360.3312 C643.7985,359.2312 642.6615,358.2452 641.3235,357.3532 L640.7395,356.9872 C637.9165,355.1342 634.6575,354.0872 631.0785,353.8912 C622.5325,353.2072 616.0005,356.9452 611.7055,365.0002 C611.3485,365.6692 611.6015,366.5022 612.2725,366.8612 C612.9425,367.2182 613.7755,366.9642 614.1325,366.2952 C617.9175,359.1962 623.4015,356.0372 630.8945,356.6352 C634.0165,356.8072 636.8185,357.7032 639.2565,359.3032 L639.8315,359.6642 C640.9265,360.3942 641.8735,361.2112 642.6125,362.0732 C643.3045,362.9602 643.8585,363.9422 644.2175,364.9432 C644.4745,365.6572 645.2615,366.0292 645.9765,365.7722 C646.5375,365.5712 646.8875,365.0422 646.8875,364.4782" id="Fill-210" fill="#000000"></path>
                    <path d="M572.074,358.4977 C572.074,358.1277 571.86,357.7757 571.502,357.6167 C569.83,356.8767 568.866,355.6277 568.554,353.7967 C568.466,353.2727 567.969,352.9197 567.444,353.0087 C566.921,353.0987 566.576,353.6017 566.657,354.1187 C567.079,356.6007 568.446,358.3697 570.721,359.3767 C571.208,359.5927 571.777,359.3727 571.992,358.8867 C572.048,358.7597 572.074,358.6277 572.074,358.4977" id="Fill-212" fill="#000000"></path>
                    <path d="M567.8093,362.6232 C567.8093,362.2682 567.6123,361.9252 567.2703,361.7582 C565.3953,360.8392 564.3533,359.6292 564.0843,358.0602 C563.9953,357.5362 563.4973,357.1842 562.9743,357.2722 C562.4503,357.3632 562.1063,357.8612 562.1873,358.3832 C562.5633,360.5762 563.9883,362.2922 566.4243,363.4862 C566.9013,363.7202 567.4773,363.5232 567.7113,363.0452 C567.7783,362.9092 567.8093,362.7652 567.8093,362.6232" id="Fill-214" fill="#000000"></path>
                    <path d="M597.449,365.4382 C597.449,365.2462 597.409,365.0522 597.324,364.8662 C594.369,358.4172 589.509,354.7952 582.878,354.1042 C578.338,353.6572 574.12,354.7552 570.331,357.3642 C568.699,358.5482 567.177,360.0212 565.777,361.7612 L564.088,363.7172 C563.59,364.2912 563.656,365.1592 564.231,365.6572 C564.805,366.1522 565.674,366.0882 566.171,365.5132 L567.89,363.5212 C569.167,361.9352 570.512,360.6312 571.919,359.6102 C575.176,357.3672 578.678,356.4552 582.6,356.8402 C588.266,357.4312 592.267,360.4312 594.824,366.0112 C595.14,366.7022 595.956,367.0052 596.646,366.6892 C597.151,366.4582 597.449,365.9592 597.449,365.4382" id="Fill-216" fill="#000000"></path>
                    <path d="M588.2341,333.6022 C588.2341,332.4032 587.4431,331.3002 586.2331,330.9572 C583.1321,330.0802 580.2901,330.8542 578.0101,333.1992 C576.9521,334.2872 576.9751,336.0282 578.0651,337.0882 C579.1531,338.1462 580.8951,338.1232 581.9551,337.0332 C582.8161,336.1472 583.5951,335.9282 584.7331,336.2502 C586.1951,336.6642 587.7151,335.8142 588.1301,334.3532 C588.2011,334.1022 588.2341,333.8502 588.2341,333.6022" id="Fill-218" fill="#000000"></path>
                    <path d="M635.613,334.9089 C635.613,334.2039 635.344,333.4999 634.805,332.9619 C632.526,330.6869 629.692,329.9459 626.61,330.8199 C625.147,331.2349 624.3,332.7619 624.715,334.2169 C625.13,335.6779 626.65,336.5269 628.111,336.1129 C629.253,335.7879 630.066,336.0039 630.919,336.8559 C631.995,337.9289 633.735,337.9279 634.809,336.8519 C635.344,336.3149 635.613,335.6119 635.613,334.9089" id="Fill-220" fill="#000000"></path>
                    <path d="M670.3484,346.4968 C670.3484,344.4218 670.0434,342.3638 669.4364,340.3378 L668.8064,338.8248 C667.4984,335.4788 664.8594,332.5868 660.9704,330.2568 C656.9284,327.8718 652.7664,326.9278 648.5934,327.4458 C647.9964,327.5188 647.5684,328.0608 647.6464,328.6618 C647.7214,329.2588 648.2654,329.6828 648.8634,329.6088 C652.5464,329.1508 656.2444,329.9998 659.8574,332.1298 C663.3144,334.2038 665.6484,336.7328 666.7864,339.6428 L667.3884,341.0738 C668.4624,344.6798 668.4404,348.5198 667.2744,352.3858 C666.0594,356.5428 663.6724,360.0638 660.1734,362.8628 C659.7044,363.2378 659.6254,363.9228 660.0024,364.3948 C660.3794,364.8648 661.0654,364.9408 661.5354,364.5648 C665.3894,361.4818 668.0254,357.5928 669.3644,353.0058 C670.0204,350.8288 670.3484,348.6528 670.3484,346.4968" id="Fill-222" fill="#8EA14E"></path>
                    <path d="M646.906,354.8307 C646.906,354.4057 646.642,354.0077 646.22,353.8567 C645.683,353.6637 645.091,353.9437 644.898,354.4807 C644.31,356.1217 643.296,357.2037 641.798,357.7867 C641.265,357.9947 641,358.5937 641.21,359.1257 C641.417,359.6577 642.016,359.9207 642.549,359.7137 C644.609,358.9127 646.054,357.3857 646.845,355.1797 C646.886,355.0647 646.906,354.9467 646.906,354.8307" id="Fill-224" fill="#000000"></path>
                    <path d="M651.2654,359.0446 C651.2654,358.7266 651.1194,358.4126 650.8424,358.2096 C650.3814,357.8716 649.7344,357.9716 649.3964,358.4326 C648.3564,359.8486 647.0734,360.5576 645.4754,360.5986 C644.9024,360.6126 644.4794,361.1246 644.4664,361.6596 C644.4814,362.2316 644.9554,362.6816 645.5274,362.6676 C647.7784,362.6096 649.6404,361.5966 651.0654,359.6546 C651.2004,359.4716 651.2654,359.2566 651.2654,359.0446" id="Fill-226" fill="#000000"></path>
                </g>
            </g>
        </g>
    </g>
</svg>