<?xml version="1.0" encoding="utf-8"?>
<!-- Generator: Adobe Illustrator 22.0.1, SVG Export Plug-In . SVG Version: 6.00 Build 0)  -->
<svg version="1.1" id="Layer_1" xmlns="http://www.w3.org/2000/svg" xmlns:xlink="http://www.w3.org/1999/xlink" x="0px" y="0px"
	 viewBox="0 0 66 36" style="enable-background:new 0 0 66 36;" xml:space="preserve">
<style type="text/css">
	.st0{filter:url(#Adobe_OpacityMaskFilter);}
	.st1{fill:#FFFFFF;}
	.st2{mask:url(#mask-2_1_);fill:#C1D357;}
	.st3{enable-background:new    ;}
	.st4{fill:#637619;}
</style>
<title>clock3</title>
<desc>Created with Sketch.</desc>
<g id="Page-2">
	<g id="Student-page-timer-Copy" transform="translate(-828.000000, -491.000000)">
		<g id="clock3" transform="translate(828.000000, 490.000000)">
			<g id="Group-3" transform="translate(0.000000, 0.196500)">
				<g id="Clip-2">
				</g>
				<defs>
					<filter id="Adobe_OpacityMaskFilter" filterUnits="userSpaceOnUse" x="0" y="0.8" width="65.3" height="35.2">
						<feColorMatrix  type="matrix" values="1 0 0 0 0  0 1 0 0 0  0 0 1 0 0  0 0 0 1 0"/>
					</filter>
				</defs>
				<mask maskUnits="userSpaceOnUse" x="0" y="0.8" width="65.3" height="35.2" id="mask-2_1_">
					<g class="st0">
						<polygon id="path-1_1_" class="st1" points="0,0.8 65.3,0.8 65.3,36 0,36 						"/>
					</g>
				</mask>
				<path id="Fill-1" class="st2" d="M53.3,36H12C5.4,36,0,30.6,0,24V12.8c0-6.6,5.4-12,12-12h41.3c6.6,0,12,5.4,12,12V24
					C65.3,30.6,59.9,36,53.3,36"/>
			</g>
			<g class="st3">
				<path class="st4" d="M13.8,16.4c0.2-0.1,0.4-0.1,0.6-0.1s0.4,0,0.6,0c0.6,0,1,0.1,1.5,0.3c0.4,0.2,0.8,0.5,1,0.8
					s0.5,0.8,0.6,1.2c0.1,0.5,0.2,0.9,0.2,1.5c0,0.6-0.1,1.1-0.3,1.6c-0.2,0.5-0.5,1-0.9,1.3c-0.4,0.4-0.8,0.7-1.3,0.9
					c-0.5,0.2-1.1,0.3-1.7,0.3c-0.4,0-0.8-0.1-1.3-0.2s-0.8-0.3-1.2-0.4c-0.4-0.2-0.7-0.4-0.9-0.7c-0.2-0.3-0.3-0.5-0.3-0.9
					c0-0.4,0.1-0.7,0.3-0.9c0.2-0.2,0.5-0.4,0.8-0.4c0.2,0,0.4,0,0.6,0.1c0.2,0.1,0.4,0.2,0.6,0.3s0.4,0.2,0.6,0.3
					c0.2,0.1,0.5,0.1,0.8,0.1c0.5,0,0.8-0.2,1.1-0.5c0.3-0.3,0.4-0.8,0.4-1.4c0-0.2,0-0.4-0.1-0.6c-0.1-0.2-0.1-0.3-0.2-0.5
					c-0.1-0.1-0.2-0.3-0.4-0.3c-0.2-0.1-0.3-0.1-0.5-0.1c-0.3,0-0.5,0-0.6,0.1c-0.2,0.1-0.3,0.1-0.4,0.2c-0.1,0.1-0.3,0.1-0.4,0.2
					c-0.1,0.1-0.3,0.1-0.5,0.1c-0.3,0-0.6-0.1-0.8-0.2c-0.2-0.2-0.3-0.4-0.3-0.7c0-0.2,0-0.3,0-0.5c0-0.2,0-0.4,0.1-0.7l0.4-3.1
					c0-0.2,0.1-0.4,0.2-0.6c0.1-0.1,0.2-0.2,0.3-0.3s0.3-0.1,0.4-0.1c0.1,0,0.3,0,0.5,0h3.9c0.4,0,0.7,0.1,0.9,0.4
					c0.2,0.2,0.3,0.5,0.3,0.8c0,0.3-0.1,0.6-0.3,0.8c-0.2,0.3-0.5,0.4-0.9,0.4H14L13.8,16.4z"/>
				<path class="st4" d="M23.4,16.7c0-0.4,0.1-0.7,0.3-0.9c0.2-0.2,0.5-0.4,0.9-0.4c0.3,0,0.6,0.1,0.8,0.3c0.2,0.2,0.3,0.4,0.4,0.5
					c0.2-0.3,0.5-0.5,0.9-0.7c0.4-0.2,0.8-0.2,1.3-0.2c0.4,0,0.8,0.1,1.2,0.2c0.4,0.1,0.8,0.4,1.1,0.8c0.1-0.1,0.3-0.2,0.5-0.3
					c0.2-0.1,0.4-0.2,0.6-0.3s0.4-0.2,0.6-0.2c0.2-0.1,0.5-0.1,0.7-0.1c0.4,0,0.8,0.1,1.2,0.2c0.4,0.1,0.7,0.3,1,0.5
					c0.3,0.2,0.5,0.5,0.7,0.9c0.2,0.4,0.2,0.8,0.2,1.3v4.6c0,0.4-0.1,0.7-0.3,0.9c-0.2,0.3-0.5,0.4-0.9,0.4c-0.4,0-0.7-0.1-0.9-0.4
					c-0.2-0.2-0.3-0.6-0.3-0.9v-4c0-0.4-0.1-0.7-0.3-1c-0.2-0.3-0.5-0.5-0.9-0.5s-0.7,0.2-0.9,0.5s-0.3,0.7-0.3,1v4
					c0,0.4-0.1,0.7-0.3,0.9c-0.2,0.3-0.5,0.4-0.9,0.4S29,24,28.7,23.7c-0.2-0.2-0.3-0.6-0.3-0.9v-4c0-0.4-0.1-0.7-0.3-1
					s-0.5-0.5-0.9-0.5s-0.7,0.2-0.9,0.5s-0.3,0.7-0.3,1v4c0,0.4-0.1,0.7-0.3,0.9c-0.2,0.3-0.5,0.4-0.9,0.4c-0.4,0-0.7-0.1-0.9-0.4
					c-0.2-0.2-0.3-0.6-0.3-0.9V16.7z"/>
				<path class="st4" d="M36.8,13.2c0-0.2,0-0.4,0.1-0.6c0.1-0.2,0.2-0.3,0.3-0.5c0.1-0.1,0.3-0.2,0.5-0.3c0.2-0.1,0.4-0.1,0.6-0.1
					c0.2,0,0.4,0,0.6,0.1c0.2,0.1,0.3,0.2,0.5,0.3c0.1,0.1,0.2,0.3,0.3,0.5c0.1,0.2,0.1,0.4,0.1,0.6c0,0.2,0,0.4-0.1,0.6
					s-0.2,0.3-0.3,0.5c-0.1,0.1-0.3,0.2-0.5,0.3c-0.2,0.1-0.4,0.1-0.6,0.1c-0.2,0-0.4,0-0.6-0.1c-0.2-0.1-0.3-0.2-0.5-0.3
					c-0.1-0.1-0.2-0.3-0.3-0.5C36.8,13.6,36.8,13.4,36.8,13.2z M37,16.7c0-0.4,0.1-0.7,0.3-0.9c0.2-0.2,0.5-0.4,0.9-0.4
					c0.4,0,0.7,0.1,0.9,0.4c0.2,0.3,0.3,0.6,0.3,0.9v6.1c0,0.4-0.1,0.7-0.3,0.9c-0.2,0.3-0.5,0.4-0.9,0.4c-0.4,0-0.7-0.1-0.9-0.4
					c-0.2-0.2-0.3-0.6-0.3-0.9V16.7z"/>
				<path class="st4" d="M40.6,16.7c0-0.4,0.1-0.7,0.3-0.9c0.2-0.2,0.5-0.4,0.9-0.4c0.3,0,0.6,0.1,0.8,0.3c0.2,0.2,0.3,0.4,0.4,0.5
					c0.2-0.3,0.5-0.5,0.8-0.7c0.3-0.2,0.8-0.2,1.3-0.2c0.4,0,0.8,0.1,1.2,0.2s0.7,0.3,1,0.5c0.3,0.2,0.5,0.5,0.7,0.9
					c0.2,0.4,0.2,0.8,0.2,1.3v4.6c0,0.4-0.1,0.7-0.3,0.9c-0.2,0.3-0.5,0.4-0.9,0.4c-0.4,0-0.7-0.1-0.9-0.4c-0.2-0.2-0.3-0.6-0.3-0.9
					v-4c0-0.4-0.1-0.8-0.4-1.1c-0.2-0.3-0.6-0.4-1-0.4c-0.4,0-0.8,0.1-1,0.4c-0.2,0.3-0.4,0.6-0.4,1.1v4c0,0.4-0.1,0.7-0.3,0.9
					c-0.2,0.3-0.5,0.4-0.9,0.4c-0.4,0-0.7-0.1-0.9-0.4c-0.2-0.2-0.3-0.6-0.3-0.9V16.7z"/>
				<path class="st4" d="M49.1,22.5c0-0.4,0.1-0.6,0.3-0.9c0.2-0.2,0.4-0.3,0.7-0.3c0.2,0,0.4,0,0.6,0.1c0.2,0.1,0.4,0.2,0.5,0.2
					c0.2,0.1,0.4,0.2,0.6,0.2C52,22,52.2,22,52.5,22c0.3,0,0.4-0.1,0.5-0.2c0.1-0.1,0.2-0.2,0.2-0.3s0-0.2-0.1-0.3s-0.2-0.2-0.3-0.2
					c-0.2-0.1-0.4-0.2-0.6-0.2c-0.2-0.1-0.5-0.2-0.9-0.4c-0.3-0.1-0.6-0.3-0.8-0.4c-0.2-0.1-0.5-0.3-0.6-0.5
					c-0.2-0.2-0.3-0.4-0.4-0.6c-0.1-0.2-0.1-0.5-0.1-0.9c0-0.4,0.1-0.7,0.2-1c0.1-0.3,0.4-0.6,0.6-0.9c0.3-0.3,0.6-0.5,1-0.6
					c0.4-0.2,0.8-0.2,1.3-0.2c0.3,0,0.5,0,0.9,0.1c0.3,0.1,0.6,0.2,0.9,0.3c0.3,0.1,0.5,0.3,0.8,0.6c0.2,0.2,0.3,0.5,0.3,0.8
					c0,0.3-0.1,0.6-0.3,0.8c-0.2,0.2-0.4,0.3-0.7,0.3c-0.1,0-0.3,0-0.4-0.1c-0.1-0.1-0.3-0.1-0.5-0.2c-0.2-0.1-0.3-0.2-0.5-0.2
					c-0.2-0.1-0.4-0.1-0.6-0.1c-0.2,0-0.3,0-0.5,0.1c-0.1,0.1-0.2,0.2-0.2,0.4c0,0.2,0.1,0.3,0.3,0.4s0.4,0.2,0.7,0.3
					s0.6,0.2,0.9,0.4c0.3,0.1,0.7,0.3,0.9,0.5c0.3,0.2,0.5,0.5,0.7,0.8c0.2,0.3,0.3,0.7,0.3,1.1c0,0.4-0.1,0.8-0.3,1.2
					c-0.2,0.3-0.4,0.6-0.7,0.9c-0.3,0.2-0.6,0.4-1,0.6c-0.4,0.1-0.8,0.2-1.2,0.2c-0.4,0-0.8,0-1.2-0.1c-0.4-0.1-0.8-0.2-1.1-0.3
					c-0.3-0.1-0.6-0.3-0.8-0.5C49.2,23.1,49.1,22.8,49.1,22.5z"/>
			</g>
		</g>
	</g>
</g>
</svg>
