<?xml version="1.0" encoding="UTF-8"?>
<svg width="536px" height="176px" viewBox="0 0 536 176" version="1.1" xmlns="http://www.w3.org/2000/svg" xmlns:xlink="http://www.w3.org/1999/xlink">
    <!-- Generator: Sketch 55.1 (78136) - https://sketchapp.com -->
    <title>tinytimer</title>
    <desc>Created with Sketch.</desc>
    <defs>
        <polygon id="path-1" points="0.0004 0.8925 536 0.8925 536 98 0.0004 98"></polygon>
        <polygon id="path-3" points="0 176 536 176 536 0.158 0 0.158"></polygon>
        <polygon id="path-5" points="0.646 0.442 48.657 0.442 48.657 48.4516 0.646 48.4516"></polygon>
        <polygon id="path-7" points="0.678938418 0.158 111.934394 0.158 111.934394 90.7247191 0.678938418 90.7247191"></polygon>
    </defs>
    <g id="Page-2" stroke="none" stroke-width="1" fill="none" fill-rule="evenodd">
        <g id="Student-page-timer-Copy" transform="translate(-805.000000, -60.000000)">
            <g id="tinytimer" transform="translate(805.000000, 59.000000)">
                <g id="Group-15" transform="translate(0.000000, 0.842000)">
                    <path d="M517.9984,167.9978 L302.2894,167.9978 L302.2894,86.8938 L517.9984,86.8938 C523.5204,86.8938 527.9984,91.3718 527.9984,96.8938 L527.9984,157.9978 C527.9984,163.5208 523.5204,167.9978 517.9984,167.9978" id="Fill-1" fill="#E6E6E6"></path>
                    <g id="Group-5" transform="translate(0.000000, 78.000000)">
                        <mask id="mask-2" fill="white">
                            <use xlink:href="#path-1"></use>
                        </mask>
                        <g id="Clip-4"></g>
                        <path d="M0.0004,79.1975 L0.0004,19.6955 C0.0004,9.3105 8.4184,0.8925 18.8024,0.8925 L517.1974,0.8925 C527.5814,0.8925 536.0004,9.3105 536.0004,19.6955 L536.0004,79.1975 C536.0004,89.5815 527.5814,98.0005 517.1974,98.0005 L18.8024,98.0005 C8.4184,98.0005 0.0004,89.5815 0.0004,79.1975" id="Fill-3" fill="#E6E6E6" mask="url(#mask-2)"></path>
                    </g>
                    <path d="M517.9984,167.9978 L302.2894,167.9978 L302.2894,86.8938 L517.9984,86.8938 C523.5204,86.8938 527.9984,91.3718 527.9984,96.8938 L527.9984,157.9978 C527.9984,163.5208 523.5204,167.9978 517.9984,167.9978" id="Fill-6" fill="#F0F0F0"></path>
                    <path d="M317.0365,167.9978 L20.0025,167.9978 C14.4795,167.9978 10.0025,163.5208 10.0025,157.9978 L10.0025,96.8938 C10.0025,91.3718 14.4795,86.8938 20.0025,86.8938 L317.0365,86.8938 C322.5585,86.8938 327.0365,91.3718 327.0365,96.8938 L327.0365,157.9978 C327.0365,163.5208 322.5585,167.9978 317.0365,167.9978" id="Fill-8" fill="#7C5D9F"></path>
                    <mask id="mask-4" fill="white">
                        <use xlink:href="#path-3"></use>
                    </mask>
                    <g id="Clip-11"></g>
                    <polygon id="Fill-10" fill="#FFFFFF" mask="url(#mask-4)" points="96.233 155.625 302.289 155.625 302.289 99.267 96.233 99.267"></polygon>
                    <path d="M91.271,161.008 L307.252,161.008 L307.252,93.885 L91.271,93.885 L91.271,161.008 Z M96.233,155.625 L302.289,155.625 L302.289,99.267 L96.233,99.267 L96.233,155.625 Z" id="Fill-12" fill="#4F3174" mask="url(#mask-4)"></path>
                    <polygon id="Fill-13" fill="#663F9E" mask="url(#mask-4)" points="96.2338 99.2673 91.2708 93.8853 91.2708 161.0073 307.2528 161.0073 302.2898 155.6253 96.2338 155.6253"></polygon>
                    <path d="M199.2611,129.3073 C201.0291,129.3073 202.4951,130.6233 202.4951,132.4283 C202.4951,134.2713 201.0291,135.5873 199.2611,135.5873 C197.4941,135.5873 196.0281,134.2713 196.0281,132.4283 C196.0281,130.6233 197.4941,129.3073 199.2611,129.3073 M199.2611,117.3493 C201.0291,117.3493 202.4951,118.6653 202.4951,120.5083 C202.4951,122.3133 201.0291,123.6293 199.2611,123.6293 C197.4941,123.6293 196.0281,122.3133 196.0281,120.5083 C196.0281,118.6653 197.4941,117.3493 199.2611,117.3493" id="Fill-14" fill="#4A4A4A" mask="url(#mask-4)"></path>
                </g>
                <g id="Group-18" transform="translate(26.000000, 103.842000)">
                    <mask id="mask-6" fill="white">
                        <use xlink:href="#path-5"></use>
                    </mask>
                    <g id="Clip-17"></g>
                    <path d="M24.6517,0.4406 C37.9097,0.4406 48.6577,11.1876 48.6577,24.4456 C48.6577,37.7046 37.9097,48.4516 24.6517,48.4516 C11.3927,48.4516 0.6457,37.7046 0.6457,24.4456 C0.6457,11.1876 11.3927,0.4406 24.6517,0.4406" id="Fill-16" fill="#C1D357" mask="url(#mask-6)"></path>
                </g>
                <g id="Group-86" transform="translate(44.000000, 0.842000)">
                    <path d="M153.5306,89.9958 C154.1246,89.2258 153.4696,87.7308 152.9786,86.1528 C153.4696,87.7308 154.1246,89.2258 153.5306,89.9958 L152.2416,91.6728 C150.3736,92.0818 148.0366,90.4748 146.6676,88.0218 C144.6336,84.3808 142.1856,81.1888 140.1146,79.2258 L139.1956,78.4968 C142.6046,76.3968 145.1056,73.1968 146.7006,68.8938 L152.5846,73.1418 C160.2156,79.9938 162.2056,85.3808 157.6206,86.7728 L156.3946,83.3678 L157.4426,86.2918 C157.8706,88.9758 157.0386,90.4248 153.5306,89.9958" id="Fill-33" fill="#C6D553"></path>
                    <path d="M139.1957,78.4973 L140.1147,79.2263 C142.1857,81.1893 144.2397,83.9913 146.2737,87.6313 C147.6427,90.0843 149.5317,92.0183 150.9957,92.0563 C152.8147,92.1033 153.8057,90.4053 153.8057,90.4053 C154.0917,89.3723 154.3707,86.8273 150.7827,82.6043" id="Stroke-35" stroke="#81A24F" stroke-width="0.936" stroke-linecap="round" stroke-linejoin="round"></path>
                    <path d="M154.1517,90.0984 C156.7557,90.3104 157.8707,88.9764 157.4427,86.2924 C157.4427,86.2924 156.9887,82.9384 154.3117,81.0434" id="Stroke-37" stroke="#81A24F" stroke-width="0.936" stroke-linecap="round" stroke-linejoin="round"></path>
                    <path d="M158.1332,86.9109 C163.1002,85.1159 157.7302,76.9409 151.5742,72.0289 C150.4382,71.1219 148.8932,69.6999 147.3202,68.8379" id="Stroke-39" stroke="#81A24F" stroke-width="0.936" stroke-linecap="round" stroke-linejoin="round"></path>
                    <g id="Group-44" transform="translate(138.000000, 76.000000)">
                        <path d="M0.1283,0.0505 C-0.4557,4.7615 1.5973,5.7325 1.5663,9.5385 C1.5443,12.2815 2.8543,14.6525 4.3713,14.5975 C5.6893,14.5505 8.3373,12.9255 8.0603,7.6345" id="Fill-41" fill="#C6D553"></path>
                        <path d="M0.1283,0.0505 C-0.4557,4.7615 1.5973,5.7325 1.5663,9.5385 C1.5443,12.2815 2.8543,14.6525 4.3713,14.5975 C5.6893,14.5505 8.3373,12.9255 8.0603,7.6345" id="Stroke-43" stroke="#81A24F" stroke-width="0.936" stroke-linecap="round" stroke-linejoin="round"></path>
                    </g>
                    <path d="M62.4906,89.9387 C61.8966,89.1687 62.5526,87.6737 63.0436,86.0957 C62.5526,87.6737 61.8966,89.1687 62.4906,89.9387 L63.7806,91.6157 C65.6476,92.0247 67.9846,90.4177 69.3536,87.9647 C71.3886,84.3247 73.8356,81.1317 75.9066,79.1687 L76.8256,78.4397 C73.4166,76.3397 70.9156,73.1397 69.3216,68.8367 L63.4366,73.0847 C55.8066,79.9367 53.8166,85.3237 58.4006,86.7157 L59.6276,83.3107 L58.5786,86.2347 C58.1516,88.9197 58.9836,90.3677 62.4906,89.9387" id="Fill-45" fill="#C6D553"></path>
                    <path d="M76.8256,78.4402 L75.9066,79.1692 C73.8356,81.1322 71.7826,83.9342 69.7476,87.5742 C68.3786,90.0272 66.4906,91.9612 65.0256,91.9992 C63.2076,92.0462 62.2156,90.3482 62.2156,90.3482 C61.9296,89.3152 61.6516,86.7702 65.2386,82.5472" id="Stroke-47" stroke="#81A24F" stroke-width="0.936" stroke-linecap="round" stroke-linejoin="round"></path>
                    <path d="M61.8695,90.0417 C59.2655,90.2537 58.1515,88.9197 58.5785,86.2347 C58.5785,86.2347 59.0325,82.8817 61.7095,80.9867" id="Stroke-49" stroke="#81A24F" stroke-width="0.936" stroke-linecap="round" stroke-linejoin="round"></path>
                    <path d="M57.889,86.8537 C52.921,85.0587 58.291,76.8837 64.448,71.9717 C65.583,71.0657 67.128,69.6427 68.701,68.7807" id="Stroke-51" stroke="#81A24F" stroke-width="0.936" stroke-linecap="round" stroke-linejoin="round"></path>
                    <g id="Group-56" transform="translate(69.000000, 75.000000)">
                        <path d="M8.8929,0.9934 C9.4769,5.7044 7.4249,6.6754 7.4559,10.4814 C7.4769,13.2244 6.1669,15.5954 4.6499,15.5404 C3.3319,15.4934 0.6839,13.8684 0.9609,8.5774" id="Fill-53" fill="#C6D553"></path>
                        <path d="M8.8929,0.9934 C9.4769,5.7044 7.4249,6.6754 7.4559,10.4814 C7.4769,13.2244 6.1669,15.5954 4.6499,15.5404 C3.3319,15.4934 0.6839,13.8684 0.9609,8.5774" id="Stroke-55" stroke="#81A24F" stroke-width="0.936" stroke-linecap="round" stroke-linejoin="round"></path>
                    </g>
                    <g id="Group-59" transform="translate(55.000000, 0.000000)">
                        <mask id="mask-8" fill="white">
                            <use xlink:href="#path-7"></use>
                        </mask>
                        <g id="Clip-58"></g>
                        <path d="M24.9877,82.1638 C25.0807,83.1488 25.3647,84.0908 25.8427,84.9828 C25.3647,84.0908 25.0807,83.1488 24.9877,82.1638 M10.3167,64.8838 C8.7257,63.9828 7.3317,63.0268 6.1347,62.0158 C7.3317,63.0268 8.7257,63.9828 10.3167,64.8838 M43.0007,87.0688 C43.3307,87.2638 43.6767,87.4388 44.0407,87.5938 C43.6767,87.4388 43.3307,87.2638 43.0007,87.0688 M89.6237,25.0708 C88.4707,21.0968 85.5447,18.0048 80.8417,15.7958 C77.1217,13.9928 73.0527,13.8208 68.6347,15.2838 C64.0117,16.8648 61.3207,19.6448 60.5587,23.6228 C61.3207,19.6448 64.0117,16.8648 68.6347,15.2838 C73.0527,13.8208 77.1217,13.9928 80.8417,15.7958 C85.5447,18.0048 88.4707,21.0968 89.6237,25.0708 C90.6567,28.8028 90.0067,32.5618 87.6747,36.3498 C90.0067,32.5618 90.6567,28.8028 89.6237,25.0708 M25.6917,34.8488 C24.7577,32.3798 24.4667,29.9698 24.8207,27.6158 C24.4667,29.9698 24.7577,32.3798 25.6917,34.8488 M11.0497,45.4848 C12.0457,48.5828 13.8967,51.1688 16.6057,53.2468 C13.8967,51.1688 12.0457,48.5828 11.0497,45.4848 C10.0997,42.5628 10.0197,39.6618 10.8077,36.7798 C10.0197,39.6618 10.0997,42.5628 11.0497,45.4848 M43.2097,17.8778 C40.0787,16.4668 36.6367,16.4168 32.8857,17.7348 C29.2747,19.0438 26.8257,21.4208 25.5367,24.8628 C25.2017,25.7688 24.9627,26.6858 24.8207,27.6158 C21.9857,27.3548 19.2017,28.0828 16.4657,29.8038 C13.8337,31.4798 12.0877,33.4618 11.2277,35.7448 C11.1077,36.1068 10.9667,36.4518 10.8077,36.7798 C10.3247,36.9838 9.8587,37.2058 9.4127,37.4468 C9.8587,37.2058 10.3247,36.9838 10.8077,36.7798 C10.9667,36.4518 11.1077,36.1068 11.2277,35.7448 C12.0877,33.4618 13.8337,31.4798 16.4657,29.8038 C19.2017,28.0828 21.9857,27.3548 24.8207,27.6158 C24.9627,26.6858 25.2017,25.7688 25.5367,24.8628 C26.8257,21.4208 29.2747,19.0438 32.8857,17.7348 C36.6367,16.4168 40.0787,16.4668 43.2097,17.8778 C46.2687,19.2608 48.4457,21.6678 49.7447,25.1038 C48.4457,21.6678 46.2687,19.2608 43.2097,17.8778 M99.4857,77.6178 C96.1757,82.2758 90.9457,84.0708 83.7937,82.9978 C76.8447,87.8238 69.6557,90.2348 62.2267,90.2348 L54.6547,90.3278 C50.2717,90.2318 46.7417,89.5688 44.0637,88.3378 C42.6107,89.5568 40.7217,90.3038 38.3977,90.5818 C36.0417,90.8958 33.7607,90.6928 31.5557,89.9688 C29.8207,89.3978 28.3437,88.3838 27.1267,86.9318 C26.5917,86.2878 26.1647,85.6388 25.8427,84.9828 C22.5567,85.7778 19.2587,85.7558 15.9497,84.9228 C12.4587,84.0248 9.7377,82.3588 7.7877,79.9188 C5.6117,77.2448 4.3787,74.3208 4.0887,71.1488 C3.8827,68.2178 4.5647,65.1738 6.1347,62.0158 C1.5677,58.1408 -0.1323,53.4448 1.0357,47.9298 C1.6617,45.2698 2.9027,42.8578 4.7627,40.6948 C5.8607,39.4598 7.4097,38.3768 9.4127,37.4468 C7.6437,33.8618 6.9947,30.3018 7.4617,26.7648 C7.9857,22.9768 9.8227,19.5208 12.9737,16.3928 C15.5207,13.8698 18.8567,12.3998 22.9797,11.9828 C27.1367,11.5278 30.7197,12.2068 33.7327,14.0178 C34.9947,9.5128 37.2597,6.0828 40.5257,3.7298 C43.7277,1.4888 47.9667,0.3038 53.2397,0.1718 C57.5917,0.0268 61.5127,1.0048 65.0037,3.1058 C68.3447,5.1078 71.1607,8.0998 73.4477,12.0788 C76.8637,10.4628 80.7127,9.9028 84.9947,10.3978 C89.4907,10.8808 93.1757,12.3858 96.0507,14.9118 C99.3347,17.6998 101.3507,21.0018 102.1057,24.8228 C102.6977,27.6958 102.5597,30.8038 101.6907,34.1518 C101.4267,35.0898 101.1297,36.0628 100.7987,37.0768 C101.1297,36.0628 101.4267,35.0898 101.6907,34.1518 C105.0867,35.8338 107.6677,38.1828 109.4377,41.2008 C111.2007,44.0748 112.0297,47.3588 111.9257,51.0528 C111.7947,54.8888 110.7357,57.9978 108.7457,60.3838 C107.1567,62.3168 105.0067,63.7358 102.2947,64.6388 C101.6697,64.8518 101.0057,65.0328 100.3037,65.1808 C101.0057,65.0328 101.6697,64.8518 102.2947,64.6388 C103.1757,69.4448 102.2397,73.7698 99.4857,77.6178" id="Fill-57" fill="#BED73B" mask="url(#mask-8)"></path>
                    </g>
                    <path d="M115.559,23.6223 C116.321,19.6443 119.012,16.8653 123.635,15.2843 C128.053,13.8203 132.121,13.9923 135.842,15.7953 C140.544,18.0043 143.471,21.0963 144.623,25.0713 C145.657,28.8023 145.006,32.5623 142.674,36.3493 M80.692,34.8493 C79.757,32.3803 79.467,29.9693 79.821,27.6153 M71.606,53.2463 C68.897,51.1683 67.045,48.5823 66.049,45.4843 C65.1,42.5623 65.02,39.6613 65.808,36.7793 M65.808,36.7793 C65.967,36.4523 66.108,36.1063 66.228,35.7453 C67.087,33.4613 68.833,31.4803 71.465,29.8033 C74.202,28.0833 76.986,27.3553 79.821,27.6153 C79.962,26.6853 80.202,25.7683 80.537,24.8623 C81.826,21.4213 84.275,19.0443 87.886,17.7353 C91.637,16.4163 95.079,16.4663 98.209,17.8773 C101.269,19.2613 103.446,21.6673 104.745,25.1033" id="Stroke-60" stroke="#8AA340" stroke-width="1.29" stroke-linecap="round"></path>
                    <path d="M134.973,77.5129 C133.416,77.5669 132.076,77.0599 130.95,75.9919 C129.825,74.9229 129.236,73.6279 129.182,72.1059 C129.129,70.5849 129.637,69.2629 130.705,68.1359 C131.775,67.0099 133.086,66.4209 134.644,66.3649 C136.165,66.3109 137.489,66.8189 138.615,67.8899 C139.74,68.9589 140.329,70.2539 140.382,71.7749 C140.436,73.2969 139.927,74.6179 138.859,75.7439 C137.79,76.8719 136.494,77.4599 134.973,77.5129 M95.582,80.4419 C93.778,80.5109 92.219,79.9279 90.907,78.6939 C89.597,77.4919 88.924,75.9909 88.89,74.1839 C88.821,72.3809 89.404,70.8229 90.638,69.5099 C91.841,68.2339 93.343,67.5609 95.148,67.4919 C96.952,67.4219 98.509,67.9879 99.819,69.1869 C101.132,70.4239 101.822,71.9419 101.892,73.7479 C101.926,75.5519 101.342,77.0939 100.141,78.3689 C98.906,79.6819 97.385,80.3729 95.582,80.4419" id="Fill-62" fill="#D9A5CB"></path>
                    <path d="M120.4515,72.9421 C116.8555,76.7651 111.2025,75.8671 108.8185,72.5021" id="Stroke-64" stroke="#221F20" stroke-width="1.29" stroke-linecap="round"></path>
                    <path d="M87.5326,44.6999 C87.1896,44.9989 86.8546,45.3219 86.5296,45.6669 C85.1066,47.2179 84.1476,48.9319 83.6516,50.8109 C83.4436,51.8739 83.3756,52.9959 83.4436,54.1709 C83.4786,54.7749 83.5626,55.3449 83.6946,55.8779 C84.1756,58.3709 85.4436,60.5289 87.5006,62.3549 C90.0766,64.4669 93.1086,65.4249 96.5936,65.2209 C100.0106,65.0219 102.8596,63.7249 105.1416,61.3279 C106.1236,60.2819 106.8666,59.1859 107.3706,58.0409 C108.1146,56.3709 108.4316,54.5989 108.3226,52.7239 C108.3166,52.6279 108.3116,52.5479 108.3086,52.4849 C108.0946,49.3729 106.7146,46.7589 104.1716,44.6409 C101.6236,42.4629 98.6396,41.4699 95.2226,41.6689 C92.2296,41.8449 89.6666,42.8529 87.5326,44.6999" id="Fill-66" fill="#FFFFFF"></path>
                    <path d="M88.0072,45.1921 C87.6832,45.4721 87.3632,45.7821 87.0602,46.1051 C85.7182,47.5661 84.8002,49.2041 84.3442,50.9281 C84.1482,51.9351 84.0822,53.0111 84.1472,54.1301 C84.1802,54.6901 84.2582,55.2261 84.3872,55.7541 C84.8382,58.0901 86.0492,60.1471 87.9632,61.8461 C90.3852,63.8341 93.2752,64.7441 96.5542,64.5541 C99.8092,64.3631 102.4472,63.1631 104.6162,60.8831 C105.5412,59.8991 106.2492,58.8581 106.7222,57.7841 C107.4192,56.2161 107.7212,54.5281 107.6182,52.7641 L107.6052,52.5321 C107.4012,49.5761 106.1252,47.1611 103.6962,45.1401 C101.2732,43.0661 98.5132,42.1481 95.2622,42.3381 C92.4472,42.5001 90.0052,43.4631 88.0072,45.1921 M87.0172,62.8441 C84.8592,60.9281 83.5072,58.6261 83.0072,56.0351 C82.8662,55.4621 82.7772,54.8501 82.7402,54.2111 C82.6692,52.9871 82.7422,51.8021 82.9682,50.6501 C83.4892,48.6781 84.5092,46.8531 86.0052,45.2251 C86.3452,44.8611 86.6992,44.5201 87.0592,44.2061 C89.3062,42.2641 92.0382,41.1841 95.1842,41.0021 C98.7812,40.7921 101.9642,41.8491 104.6372,44.1371 C107.3152,46.3641 108.7852,49.1571 109.0122,52.4451 L109.0262,52.6841 C109.1412,54.6521 108.8022,56.5411 108.0212,58.2951 C107.4872,59.5041 106.6962,60.6741 105.6632,61.7731 C103.2642,64.2951 100.2252,65.6781 96.6322,65.8881 C92.9742,66.1031 89.7442,65.0831 87.0172,62.8441" id="Fill-68" fill="#000000"></path>
                    <path d="M87.1976,45.2908 C85.7186,44.5438 84.7286,43.3818 84.2576,41.8368 C84.1496,41.4818 84.3646,41.1098 84.7376,41.0048 C85.1136,40.9018 85.5046,41.1038 85.6106,41.4588 C85.9776,42.6618 86.7166,43.5288 87.8666,44.1098 C88.2086,44.2838 88.3376,44.6878 88.1526,45.0138 C88.0316,45.2268 87.8076,45.3548 87.5696,45.3678 C87.4456,45.3738 87.3176,45.3508 87.1976,45.2908 M83.4426,49.8038 C81.9606,48.7618 81.0366,47.6458 80.6936,46.4868 C80.5896,46.1328 80.8066,45.7628 81.1806,45.6598 C81.5566,45.5578 81.9446,45.7648 82.0516,46.1188 C82.3076,46.9888 83.0606,47.8648 84.2866,48.7278 C84.5986,48.9488 84.6616,49.3668 84.4286,49.6638 C84.2986,49.8298 84.1036,49.9218 83.9036,49.9338 C83.7436,49.9428 83.5796,49.9028 83.4426,49.8038" id="Fill-70" fill="#000000"></path>
                    <path d="M89.3451,51.2893 C88.2071,53.1103 87.8881,55.0823 88.3901,57.2063 C88.9071,59.3943 90.0831,61.0473 91.9181,62.1653 C93.7001,63.3313 95.6451,63.6643 97.7491,63.1643 C99.8261,62.6733 101.4301,61.5003 102.5621,59.6473 C103.6691,57.8333 103.9641,55.8323 103.4481,53.6433 C102.9451,51.5193 101.7921,49.8963 99.9881,48.7703 C98.1461,47.6203 96.1851,47.2903 94.1101,47.7823 C92.0021,48.2803 90.4161,49.4493 89.3451,51.2893" id="Fill-72" fill="#000000"></path>
                    <path d="M96.974,56.778 C96.54,57.019 96.023,57.107 95.417,57.043 C93.211,56.841 92.017,57.495 91.834,59.003 C91.681,60.092 92.113,60.912 93.128,61.465 C94.182,62.044 95.623,62.134 97.46,61.734 C99.226,61.177 100.477,60.519 101.213,59.759 C101.928,59.039 102.139,58.272 101.848,57.462 C101.535,56.553 101.018,55.959 100.297,55.681 C99.617,55.43 98.918,55.525 98.205,55.97 C97.859,56.156 97.449,56.424 96.974,56.778" id="Fill-74" fill="#6E5A85"></path>
                    <path d="M143.2748,50.7341 C143.0238,49.4031 142.5348,48.1891 141.8098,47.0891 C141.2318,46.2001 140.4968,45.3861 139.6018,44.6461 C137.2538,42.6101 134.4968,41.6841 131.3278,41.8691 C128.1258,42.0531 125.4608,43.2951 123.3328,45.5911 C122.0048,47.0221 121.1308,48.6151 120.7088,50.3711 C120.4718,51.3591 120.3848,52.4181 120.4518,53.5481 C120.4818,54.0821 120.5458,54.5961 120.6398,55.0951 C121.1378,57.4601 122.3378,59.4821 124.2388,61.1661 C126.6168,63.1691 129.4068,64.0761 132.6078,63.8891 C135.7778,63.7061 138.4098,62.4831 140.5068,60.2201 C141.3998,59.2251 142.0948,58.1911 142.5888,57.1251 C143.2548,55.6061 143.5378,53.9681 143.4348,52.2121 C143.4288,52.1181 143.4238,52.0381 143.4208,51.9781 C143.3908,51.5501 143.3428,51.1351 143.2748,50.7341" id="Fill-76" fill="#FFFFFF"></path>
                    <path d="M141.2299,47.4455 C141.2279,47.4455 141.2279,47.4435 141.2269,47.4435 L141.1549,47.3315 C140.6259,46.5445 139.9519,45.8065 139.1399,45.1335 C136.9149,43.2055 134.3719,42.3535 131.3659,42.5265 C128.3249,42.7025 125.8659,43.8495 123.8459,46.0285 C122.6019,47.3685 121.7719,48.8775 121.3789,50.5165 C121.1579,51.4405 121.0759,52.4465 121.1369,53.5085 C121.1669,54.0095 121.2259,54.5015 121.3139,54.9605 C121.7799,57.1745 122.9209,59.1005 124.6929,60.6675 C126.9519,62.5695 129.5279,63.4065 132.5689,63.2295 C135.5779,63.0555 138.0059,61.9285 139.9879,59.7905 C140.8329,58.8485 141.4979,57.8615 141.9569,56.8695 C142.5789,55.4535 142.8439,53.8995 142.7499,52.2515 L142.7359,52.0245 C142.7079,51.6195 142.6619,51.2275 142.5979,50.8485 C142.3639,49.6105 141.9039,48.4655 141.2299,47.4455 M123.7719,61.6525 C121.7719,59.8805 120.4919,57.7195 119.9639,55.2175 C119.8649,54.6915 119.7979,54.1435 119.7649,53.5875 C119.6959,52.4025 119.7899,51.2725 120.0399,50.2255 C120.4859,48.3655 121.4219,46.6595 122.8209,45.1535 C125.0649,42.7325 127.9139,41.4045 131.2899,41.2095 C134.6339,41.0155 137.5859,42.0045 140.0519,44.1445 C140.8279,44.7855 141.4999,45.4925 142.0539,46.2475 C143.0709,45.7135 143.6279,44.9625 143.7509,43.9575 C143.7959,43.5955 144.1389,43.3345 144.5159,43.3785 C144.8909,43.4195 145.1619,43.7465 145.1169,44.1085 C144.9409,45.5335 144.1549,46.6275 142.7779,47.3695 C143.2399,48.1915 143.5889,49.0755 143.8199,50.0105 C145.0419,49.8025 145.8029,49.1795 146.1949,48.0725 C146.3169,47.7295 146.7079,47.5425 147.0669,47.6575 C147.4249,47.7745 147.6179,48.1485 147.4949,48.4925 C146.9439,50.0505 145.7599,51.0135 144.0489,51.3075 C144.0739,51.5125 144.0919,51.7215 144.1069,51.9355 L144.1209,52.1725 C144.2279,54.0225 143.9259,55.7735 143.2159,57.3895 C142.6969,58.5125 141.9589,59.6075 141.0189,60.6585 C138.8069,63.0455 135.9899,64.3545 132.6459,64.5485 C129.2729,64.7435 126.2909,63.7735 123.7719,61.6525" id="Fill-78" fill="#000000"></path>
                    <path d="M129.6322,47.1394 C127.5992,47.8004 126.1272,49.0574 125.2102,50.9104 C124.2242,52.7514 124.0532,54.6664 124.7002,56.6524 C125.3672,58.6994 126.6422,60.1764 128.5222,61.0844 C130.3542,62.0414 132.2882,62.1894 134.3192,61.5284 C136.3192,60.8764 137.8092,59.6134 138.7852,57.7414 C139.7432,55.9094 139.8882,53.9694 139.2202,51.9234 C138.5732,49.9364 137.3252,48.4844 135.4732,47.5674 C133.5812,46.6284 131.6332,46.4864 129.6322,47.1394" id="Fill-80" fill="#000000"></path>
                    <path d="M133.0844,55.4519 C132.6744,55.7209 132.1714,55.8499 131.5744,55.8419 C129.3944,55.8419 128.2694,56.5729 128.1974,58.0319 C128.1294,59.0839 128.6104,59.8319 129.6454,60.2709 C130.7234,60.7329 132.1464,60.6899 133.9194,60.1469 C135.6124,59.4599 136.7924,58.7219 137.4594,57.9299 C138.1054,57.1779 138.2594,56.4269 137.9164,55.6779 C137.5434,54.8369 136.9934,54.3129 136.2664,54.1109 C135.5784,53.9299 134.9004,54.0829 134.2334,54.5699 C133.9064,54.7779 133.5214,55.0729 133.0844,55.4519" id="Fill-82" fill="#6E5A85"></path>
                    <path d="M15.7494,125.1482 C18.0244,126.4172 18.0204,128.4762 15.7494,129.7432 L4.7704,136.5352 C2.4944,137.8042 0.6504,136.7212 0.6504,134.1142 L0.6504,120.7762 C0.6504,118.1702 2.4974,117.0892 4.7704,118.3562 L15.7494,125.1482 Z" id="Fill-84" fill="#67752B"></path>
                </g>
            </g>
        </g>
    </g>
</svg>